<svg id="Layouts" xmlns="http://www.w3.org/2000/svg" viewBox="0 0 909 468"><title>9_col_drag_drop</title><g id="Base"><rect id="bg_rec_9_col" width="909" height="468" fill="#f0f1f2"/><path id="sec_sep_6" d="M896.51,216.5h-587V628.55h880v-412Zm-586,1h292v204h-292Zm292,410.05h-292v-205h292Zm293,0h-292v-205h292Zm0-206h-292v-204h292Zm293,206h-292v-205h292Zm0-206h-292v-204h292Z" transform="translate(-291 -177)" fill="#671d73"/><text transform="translate(331.64 24)" font-size="13.52" fill="#303539" font-family="ArialMT, Arial">Sort the terms into their proper containe<tspan x="238.2" y="0" letter-spacing="-0.06em">r</tspan><tspan x="241.96" y="0">.</tspan></text><g id="c5_drag_cir_targ"><g id="a_bg_cir_bg"><path d="M786.47,587.89l-1.39,1a62.81,62.81,0,0,1-6.61,4.06,61.45,61.45,0,0,1-9.69,4.13c0-.42,0-.85-.07-1.26l-.06-.61c0-.18,0-.36-.08-.53a19.29,19.29,0,0,0-19-16.38c-.54,0-1.08,0-1.61.07l-.53,0a19.28,19.28,0,0,0-17.09,17.36c0,.43-.07.86-.08,1.29a61.77,61.77,0,1,1,70.29-93.52c.32.47.63.95.94,1.43.92,1.43,1.79,2.92,2.61,4.45A61.79,61.79,0,0,1,786.47,587.89Z" transform="translate(-291 -177)" fill="#f0f1f2"/></g><g id="a_bg_cir_stroke"><path d="M805.15,508.86c-.82-1.56-1.72-3.08-2.65-4.54-.3-.47-.62-.95-1-1.46a63,63,0,1,0-71.28,95.5c0-.27,0-.54,0-.82v-.47c0-.43,0-.86.08-1.29a60.54,60.54,0,1,1,69.2-91.54c.34.49.64.95.92,1.4.9,1.4,1.76,2.87,2.56,4.36a60.94,60.94,0,0,1-17.25,76.91l-1.37,1a62.72,62.72,0,0,1-6.48,4,61.46,61.46,0,0,1-9.19,4c0,.41.06.84.07,1.26,0,.18,0,.36,0,.54s0,.51,0,.75a63.6,63.6,0,0,0,17-8.48c.43-.3.88-.63,1.41-1a63,63,0,0,0,17.95-80Z" transform="translate(-291 -177)" fill="#babfc3"/></g><text transform="translate(421.12 343.79)" font-size="10.98" fill="#303539" font-family="Arial-ItalicMT, Arial" font-style="italic">Drag the proper <tspan x="12.22" y="13.18">terms here</tspan></text><g id="a_sm_cir_btm"><path d="M749.48,615.39a17.81,17.81,0,0,1-1.91-35.51l.49,0c.49,0,1-.06,1.49-.06a17.81,17.81,0,0,1,17.57,15.12c0,.16,0,.32.07.49a20.54,20.54,0,0,1,.13,2.23A17.81,17.81,0,0,1,749.48,615.39Z" transform="translate(-291 -177)" fill="#babfc3"/></g><path id="a_sm_cir_btm-2" data-name="a_sm_cir_btm" d="M749.48,613.43a15.84,15.84,0,0,1-1.69-31.59l.43-.05c.44,0,.88,0,1.33,0a15.85,15.85,0,0,1,15.63,13.45l.06.44a14.48,14.48,0,0,1,.11,2A15.84,15.84,0,0,1,749.48,613.43Z" transform="translate(-291 -177)" fill="#42134a"/><text transform="translate(452.33 426.81)" font-size="20" fill="#babfc3" font-family="Arial-BoldMT, Arial" font-weight="700">5</text></g><text transform="translate(404.51 283.61)" font-size="29" fill="#42134a" font-family="ArialMT, Arial">CODE 5</text><g id="c4_drag_cir_targ"><g id="n_bg_cir_bg_sol"><path d="M493.47,587.89l-1.39,1a62.81,62.81,0,0,1-6.61,4.06,61.45,61.45,0,0,1-9.69,4.13c0-.42,0-.85-.07-1.26l-.06-.61c0-.18,0-.36-.08-.53a19.29,19.29,0,0,0-19-16.38c-.54,0-1.08,0-1.61.07l-.53,0a19.28,19.28,0,0,0-17.09,17.36c0,.43-.07.86-.08,1.29a61.77,61.77,0,1,1,70.29-93.52c.32.47.63.95.94,1.43.92,1.43,1.79,2.92,2.61,4.45A61.79,61.79,0,0,1,493.47,587.89Z" transform="translate(-291 -177)" fill="#f0f1f2"/></g><text transform="translate(127.05 343.79)" font-size="10.98" fill="#303539" font-family="Arial-ItalicMT, Arial" font-style="italic">Drag the proper <tspan x="12.22" y="13.18">terms here</tspan></text><path id="n_bg_cir_stroke" d="M512.15,508.86c-.82-1.56-1.72-3.08-2.65-4.54-.3-.47-.62-.95-1-1.46a63,63,0,1,0-71.28,95.5c0-.27,0-.54,0-.82v-.47c0-.43,0-.86.08-1.29a60.54,60.54,0,1,1,69.2-91.54c.34.49.64.95.92,1.4.9,1.4,1.76,2.87,2.56,4.36a60.94,60.94,0,0,1-17.25,76.91l-1.37,1a62.72,62.72,0,0,1-6.48,4,61.46,61.46,0,0,1-9.19,4c0,.41.06.84.07,1.26,0,.18,0,.36,0,.54s0,.51,0,.75a63.6,63.6,0,0,0,17-8.48c.43-.3.88-.63,1.41-1a63,63,0,0,0,17.95-80Z" transform="translate(-291 -177)" fill="#babfc3"/><path id="n_sm_cir_btm" d="M456.48,615.39a17.81,17.81,0,0,1-1.91-35.51l.49,0c.49,0,1-.06,1.49-.06a17.81,17.81,0,0,1,17.57,15.12c0,.16,0,.32.07.49a20.54,20.54,0,0,1,.13,2.23A17.81,17.81,0,0,1,456.48,615.39Z" transform="translate(-291 -177)" fill="#babfc3"/><path id="n_sm_cir_btm-2" data-name="n_sm_cir_btm" d="M456.48,613.43a15.84,15.84,0,0,1-1.69-31.59l.43-.05c.44,0,.88,0,1.33,0a15.85,15.85,0,0,1,15.63,13.45l.06.44a14.48,14.48,0,0,1,.11,2A15.84,15.84,0,0,1,456.48,613.43Z" transform="translate(-291 -177)" fill="#42134a"/><text transform="translate(159.33 426.81)" font-size="20" fill="#babfc3" font-family="Arial-BoldMT, Arial" font-weight="700">4</text></g><text transform="translate(111.51 283.61)" font-size="29" fill="#42134a" font-family="ArialMT, Arial">CODE 4</text><g id="c3_drag_cir_targ"><g id="n_bg_cir_bg_sol-2" data-name="n_bg_cir_bg_sol"><path d="M1079.47,381.83c-.46.34-.92.68-1.39,1a62.81,62.81,0,0,1-6.61,4.06,61.45,61.45,0,0,1-9.69,4.13c0-.42,0-.84-.07-1.26l-.06-.61c0-.18-.05-.36-.08-.53a19.27,19.27,0,0,0-19-16.37c-.54,0-1.08,0-1.61.06l-.53.05a19.28,19.28,0,0,0-17.09,17.36c0,.43-.07.86-.08,1.29a61.77,61.77,0,1,1,70.29-93.52c.32.47.63.95.94,1.43.92,1.43,1.79,2.92,2.61,4.45A61.79,61.79,0,0,1,1079.47,381.83Z" transform="translate(-291 -177)" fill="#f0f1f2"/></g><path id="n_bg_cir_stroke-2" data-name="n_bg_cir_stroke" d="M1098.15,302.8c-.82-1.56-1.72-3.08-2.65-4.54-.3-.47-.62-.94-1-1.45a63,63,0,1,0-71.28,95.49c0-.27,0-.54,0-.81V391c0-.43,0-.86.08-1.29a60.54,60.54,0,1,1,69.2-91.54c.34.49.64.95.92,1.4.9,1.4,1.76,2.87,2.56,4.37a60.92,60.92,0,0,1-17.25,76.9c-.52.38-1,.7-1.37,1a61,61,0,0,1-6.48,4,59.46,59.46,0,0,1-9.19,3.95c0,.42.06.84.07,1.26,0,.18,0,.37,0,.55s0,.5,0,.75a64,64,0,0,0,17-8.49c.43-.3.88-.62,1.41-1a63,63,0,0,0,18-80Z" transform="translate(-291 -177)" fill="#babfc3"/><text transform="translate(714.12 137.73)" font-size="10.98" fill="#303539" font-family="Arial-ItalicMT, Arial" font-style="italic">Drag the proper <tspan x="12.22" y="13.18">terms here</tspan></text><path id="n_sm_cir_btm-3" data-name="n_sm_cir_btm" d="M1042.48,409.33a17.8,17.8,0,0,1-1.91-35.5l.49-.05c.49,0,1-.06,1.49-.06a17.82,17.82,0,0,1,17.57,15.12c0,.16,0,.32.07.49a20.54,20.54,0,0,1,.13,2.23A17.8,17.8,0,0,1,1042.48,409.33Z" transform="translate(-291 -177)" fill="#babfc3"/><path id="n_sm_cir_btm-4" data-name="n_sm_cir_btm" d="M1042.48,407.37a15.84,15.84,0,0,1-1.69-31.59l.43,0c.44,0,.88-.06,1.33-.06a15.85,15.85,0,0,1,15.63,13.46l.06.43a14.57,14.57,0,0,1,.11,2A15.84,15.84,0,0,1,1042.48,407.37Z" transform="translate(-291 -177)" fill="#42134a"/><text transform="translate(745.33 220.75)" font-size="20" fill="#babfc3" font-family="Arial-BoldMT, Arial" font-weight="700">3</text></g><text transform="translate(697.51 77.55)" font-size="29" fill="#42134a" font-family="ArialMT, Arial">CODE 3</text><g id="c2_drag_cir_targ"><g id="n_bg_cir_bg_sol-3" data-name="n_bg_cir_bg_sol"><path d="M786.47,381.83c-.46.34-.92.68-1.39,1a62.81,62.81,0,0,1-6.61,4.06,61.45,61.45,0,0,1-9.69,4.13c0-.42,0-.84-.07-1.26l-.06-.61c0-.18,0-.36-.08-.53a19.27,19.27,0,0,0-19-16.37c-.54,0-1.08,0-1.61.06l-.53.05a19.28,19.28,0,0,0-17.09,17.36c0,.43-.07.86-.08,1.29a61.77,61.77,0,1,1,70.29-93.52c.32.47.63.95.94,1.43.92,1.43,1.79,2.92,2.61,4.45A61.79,61.79,0,0,1,786.47,381.83Z" transform="translate(-291 -177)" fill="#f0f1f2"/></g><path id="n_bg_cir_stroke-3" data-name="n_bg_cir_stroke" d="M805.15,302.8c-.82-1.56-1.72-3.08-2.65-4.54-.3-.47-.62-.94-1-1.45a63,63,0,1,0-71.28,95.49c0-.27,0-.54,0-.81V391c0-.43,0-.86.08-1.29a60.54,60.54,0,1,1,69.2-91.54c.34.49.64.95.92,1.4.9,1.4,1.76,2.87,2.56,4.37a60.92,60.92,0,0,1-17.25,76.9c-.52.38-1,.7-1.37,1a61,61,0,0,1-6.48,4,59.46,59.46,0,0,1-9.19,3.95c0,.42.06.84.07,1.26,0,.18,0,.37,0,.55s0,.5,0,.75a64,64,0,0,0,17-8.49c.43-.3.88-.62,1.41-1a63,63,0,0,0,17.95-80Z" transform="translate(-291 -177)" fill="#babfc3"/><text transform="translate(421.12 137.73)" font-size="10.98" fill="#303539" font-family="Arial-ItalicMT, Arial" font-style="italic">Drag the proper <tspan x="12.22" y="13.18">terms here</tspan></text><path id="n_sm_cir_btm-5" data-name="n_sm_cir_btm" d="M749.48,409.33a17.8,17.8,0,0,1-1.91-35.5l.49-.05c.49,0,1-.06,1.49-.06a17.82,17.82,0,0,1,17.57,15.12c0,.16,0,.32.07.49a20.54,20.54,0,0,1,.13,2.23A17.8,17.8,0,0,1,749.48,409.33Z" transform="translate(-291 -177)" fill="#babfc3"/><path id="n_sm_cir_btm-6" data-name="n_sm_cir_btm" d="M749.48,407.37a15.84,15.84,0,0,1-1.69-31.59l.43,0c.44,0,.88-.06,1.33-.06a15.85,15.85,0,0,1,15.63,13.46l.06.43a14.57,14.57,0,0,1,.11,2A15.84,15.84,0,0,1,749.48,407.37Z" transform="translate(-291 -177)" fill="#42134a"/><text transform="translate(452.33 220.75)" font-size="20" fill="#babfc3" font-family="Arial-BoldMT, Arial" font-weight="700">2</text></g><text transform="translate(404.51 77.55)" font-size="29" fill="#42134a" font-family="ArialMT, Arial">CODE 2</text><g id="c1_drag_cir_targ"><g id="n_bg_cir_bg_sol-4" data-name="n_bg_cir_bg_sol"><path d="M493.47,381.83c-.46.34-.92.68-1.39,1a62.81,62.81,0,0,1-6.61,4.06,61.45,61.45,0,0,1-9.69,4.13c0-.42,0-.84-.07-1.26l-.06-.61c0-.18,0-.36-.08-.53a19.27,19.27,0,0,0-19-16.37c-.54,0-1.08,0-1.61.06l-.53.05a19.28,19.28,0,0,0-17.09,17.36c0,.43-.07.86-.08,1.29a61.77,61.77,0,1,1,70.29-93.52c.32.47.63.95.94,1.43.92,1.43,1.79,2.92,2.61,4.45A61.79,61.79,0,0,1,493.47,381.83Z" transform="translate(-291 -177)" fill="#f0f1f2"/></g><text transform="translate(127.05 137.73)" font-size="10.98" fill="#303539" font-family="Arial-ItalicMT, Arial" font-style="italic">Drag the proper <tspan x="12.22" y="13.18">terms here</tspan></text><path id="h_bg_cir_stroke" d="M512.15,302.8c-.82-1.56-1.72-3.08-2.65-4.54-.3-.47-.62-.94-1-1.45a63,63,0,1,0-71.28,95.49c0-.27,0-.54,0-.81V391c0-.43,0-.86.08-1.29a60.54,60.54,0,1,1,69.2-91.54c.34.49.64.95.92,1.4.9,1.4,1.76,2.87,2.56,4.37a60.92,60.92,0,0,1-17.25,76.9c-.52.38-.95.7-1.37,1a61,61,0,0,1-6.48,4,59.46,59.46,0,0,1-9.19,3.95c0,.42.06.84.07,1.26,0,.18,0,.37,0,.55s0,.5,0,.75a64,64,0,0,0,17-8.49c.43-.3.88-.62,1.41-1a63,63,0,0,0,17.95-80Z" transform="translate(-291 -177)" fill="#babfc3"/><path id="h_sm_cir_btm" d="M456.48,409.33a17.8,17.8,0,0,1-1.91-35.5l.49-.05c.49,0,1-.06,1.49-.06a17.82,17.82,0,0,1,17.57,15.12c0,.16,0,.32.07.49a20.54,20.54,0,0,1,.13,2.23A17.8,17.8,0,0,1,456.48,409.33Z" transform="translate(-291 -177)" fill="#babfc3"/><path id="h_sm_cir_btm-2" data-name="h_sm_cir_btm" d="M456.48,407.37a15.84,15.84,0,0,1-1.69-31.59l.43,0c.44,0,.88-.06,1.33-.06a15.85,15.85,0,0,1,15.63,13.46l.06.43a14.57,14.57,0,0,1,.11,2A15.84,15.84,0,0,1,456.48,407.37Z" transform="translate(-291 -177)" fill="#42134a"/><text transform="translate(159.95 220.75)" font-size="20" fill="#babfc3" font-family="Arial-BoldMT, Arial" font-weight="700">1</text></g><text transform="translate(111.51 77.55)" font-size="29" fill="#42134a" font-family="ArialMT, Arial">CODE 1</text></g></svg>