<svg xmlns="http://www.w3.org/2000/svg" width="94.47" height="105.05" viewBox="0 0 94.47 105.05">
    <title>ICD_container_btn_circle_text_number</title>
    <g id="c_btn_cir_txt_drg_drp">
        <path id="n_bg_cir_bg" d="M74.74,84.14c-.34.25-.68.5-1,.74a46,46,0,0,1-4.93,3A45.54,45.54,0,0,1,61.58,91c0-.31,0-.63,0-.94,0-.15,0-.3-.05-.45s0-.26,0-.39A14.35,14.35,0,0,0,47.28,77c-.41,0-.81,0-1.2,0l-.39,0A14.35,14.35,0,0,0,33,90q0,.46-.06,1A45.95,45.95,0,1,1,85.19,21.4c.24.35.48.7.71,1.06.68,1.07,1.33,2.18,1.93,3.32A46,46,0,0,1,74.74,84.14Z" fill="#671d73" />
        <path id="n_bg_cir_stk" d="M88.64,25.35c-.62-1.16-1.28-2.29-2-3.38q-.33-.51-.72-1.08a46.85,46.85,0,1,0-53,71c0-.2,0-.4,0-.6V91q0-.5.06-1a45,45,0,1,1,51.47-68.1c.25.37.48.71.69,1C85.8,24,86.44,25.09,87,26.2A45.34,45.34,0,0,1,74.2,83.41l-1,.73a46.57,46.57,0,0,1-4.83,3A45.16,45.16,0,0,1,61.53,90c0,.31,0,.63,0,.94,0,.14,0,.27,0,.41s0,.37,0,.56a48.16,48.16,0,0,0,12.65-6.31l1-.77A46.86,46.86,0,0,0,88.64,25.35Z" fill="#babfc3" /><text transform="translate(20.22 35.77)" font-size="10.35" fill="#fff" font-family="ArialMT, Arial">Concussion <tspan x="3.74" y="12.42">Screening </tspan>
            <tspan x="12.08" y="24.83">Codes</tspan>
        </text>
        <path id="n_sm_cir_btm" d="M47.22,104.59A13.24,13.24,0,0,1,45.8,78.18l.37,0c.36,0,.73-.05,1.1-.05A13.25,13.25,0,0,1,60.34,89.35c0,.12,0,.24,0,.36a13.25,13.25,0,0,1-13.17,14.88Z" fill="#babfc3" /><text transform="translate(44.21 95.83)" font-size="10.35" fill="#671d73" font-family="Arial-BoldMT, Arial" font-weight="700">1</text></g>
</svg>