<?xml version="1.0" encoding="utf-8"?>
<!-- Generator: Adobe Illustrator 22.0.1, SVG Export Plug-In . SVG Version: 6.00 Build 0)  -->
<svg version="1.1" id="Layer_1" xmlns="http://www.w3.org/2000/svg" xmlns:xlink="http://www.w3.org/1999/xlink" x="0px" y="0px"
	 viewBox="0 0 572 275" style="enable-background:new 0 0 572 275;" xml:space="preserve">
<style type="text/css">
	.st0{fill:#0C0C0C;fill-opacity:0;}
	.st1{opacity:1.818182e-02;fill:#0C0C0C;enable-background:new    ;}
	.st2{opacity:3.636364e-02;fill:#0C0C0C;enable-background:new    ;}
	.st3{opacity:5.454545e-02;fill:#0C0C0C;enable-background:new    ;}
	.st4{opacity:7.272727e-02;fill:#0C0C0C;enable-background:new    ;}
	.st5{opacity:9.090909e-02;fill:#0C0C0C;enable-background:new    ;}
	.st6{opacity:0.1091;fill:#0C0C0C;enable-background:new    ;}
	.st7{opacity:0.1273;fill:#0C0C0C;enable-background:new    ;}
	.st8{opacity:0.1455;fill:#0C0C0C;enable-background:new    ;}
	.st9{opacity:0.1636;fill:#0C0C0C;enable-background:new    ;}
	.st10{opacity:0.1818;fill:#0C0C0C;enable-background:new    ;}
	.st11{opacity:0.2;fill:#0C0C0C;enable-background:new    ;}
	.st12{opacity:0.2182;fill:#0C0C0C;enable-background:new    ;}
	.st13{opacity:0.2364;fill:#0C0C0C;enable-background:new    ;}
	.st14{opacity:0.2545;fill:#0C0C0C;enable-background:new    ;}
	.st15{opacity:0.2727;fill:#0C0C0C;enable-background:new    ;}
	.st16{opacity:0.2909;fill:#0C0C0C;enable-background:new    ;}
	.st17{opacity:0.3091;fill:#0C0C0C;enable-background:new    ;}
	.st18{opacity:0.3273;fill:#0C0C0C;enable-background:new    ;}
	.st19{opacity:0.3455;fill:#0C0C0C;enable-background:new    ;}
	.st20{opacity:0.3636;fill:#0C0C0C;enable-background:new    ;}
	.st21{opacity:0.3818;fill:#0C0C0C;enable-background:new    ;}
	.st22{opacity:0.4;fill:#0C0C0C;enable-background:new    ;}
	.st23{opacity:0.4308;fill:#0C0C0C;enable-background:new    ;}
	.st24{opacity:0.4615;fill:#0C0C0C;enable-background:new    ;}
	.st25{opacity:0.4923;fill:#0C0C0C;enable-background:new    ;}
	.st26{opacity:0.5231;fill:#0C0C0C;enable-background:new    ;}
	.st27{opacity:0.5538;fill:#0C0C0C;enable-background:new    ;}
	.st28{opacity:0.5846;fill:#0C0C0C;enable-background:new    ;}
	.st29{opacity:0.6154;fill:#0C0C0C;enable-background:new    ;}
	.st30{opacity:0.6462;fill:#0C0C0C;enable-background:new    ;}
	.st31{opacity:0.6769;fill:#0C0C0C;enable-background:new    ;}
	.st32{opacity:0.7077;fill:#0C0C0C;enable-background:new    ;}
	.st33{opacity:0.7385;fill:#0C0C0C;enable-background:new    ;}
	.st34{opacity:0.7692;fill:#0C0C0C;enable-background:new    ;}
	.st35{opacity:0.8;fill:#0C0C0C;enable-background:new    ;}
	.st36{fill:#412064;}
	.st37{fill:#0E2845;}
	.st38{fill:#F5C840;}
	.st39{fill:#C3A133;}
	.st40{fill:#245DA3;}
	.st41{fill:#1C4A86;}
	.st42{fill:#D24627;}
	.st43{fill:#AD391D;}
	.st44{clip-path:url(#SVGID_2_);}
	.st45{fill:#422165;}
	.st46{fill:#422065;}
	.st47{fill:#412065;}
	.st48{fill:#4C2A74;}
	.st49{fill:#FACC41;}
	.st50{fill:#245EA6;}
	.st51{fill:#D44627;}
	.st52{fill:#4D2B75;}
	.st53{fill:#444B50;}
	.st54{fill:#FFFFFF;}
	.st55{fill:#151718;}
</style>
<title>chart-budget2</title>
<ellipse class="st0" cx="243.2" cy="222.9" rx="134.3" ry="26.5"/>
<ellipse class="st1" cx="243.2" cy="222.9" rx="132.1" ry="26.2"/>
<ellipse class="st2" cx="243.2" cy="222.9" rx="129.8" ry="25.8"/>
<ellipse class="st3" cx="243.2" cy="222.9" rx="127.6" ry="25.4"/>
<ellipse class="st4" cx="243.2" cy="222.9" rx="125.3" ry="25"/>
<ellipse class="st5" cx="243.2" cy="222.9" rx="123.1" ry="24.6"/>
<ellipse class="st6" cx="243.2" cy="222.9" rx="120.8" ry="24.2"/>
<ellipse class="st7" cx="243.2" cy="222.9" rx="118.5" ry="23.9"/>
<ellipse class="st8" cx="243.2" cy="222.9" rx="116.3" ry="23.5"/>
<ellipse class="st9" cx="243.2" cy="222.9" rx="114" ry="23.1"/>
<ellipse class="st10" cx="243.2" cy="222.9" rx="111.8" ry="22.7"/>
<ellipse class="st11" cx="243.2" cy="222.9" rx="109.5" ry="22.3"/>
<ellipse class="st12" cx="243.2" cy="222.9" rx="107.3" ry="21.9"/>
<ellipse class="st13" cx="243.2" cy="222.9" rx="105" ry="21.6"/>
<ellipse class="st14" cx="243.2" cy="222.9" rx="102.8" ry="21.2"/>
<ellipse class="st15" cx="243.2" cy="222.9" rx="100.5" ry="20.8"/>
<ellipse class="st16" cx="243.2" cy="222.9" rx="98.3" ry="20.4"/>
<ellipse class="st17" cx="243.2" cy="222.9" rx="96" ry="20"/>
<ellipse class="st18" cx="243.2" cy="222.9" rx="93.7" ry="19.6"/>
<ellipse class="st19" cx="243.2" cy="222.9" rx="91.5" ry="19.2"/>
<ellipse class="st20" cx="243.2" cy="222.9" rx="89.2" ry="18.9"/>
<ellipse class="st21" cx="243.2" cy="222.9" rx="87" ry="18.5"/>
<ellipse class="st22" cx="243.2" cy="222.9" rx="84.7" ry="18.1"/>
<ellipse class="st23" cx="243.2" cy="223.1" rx="82.5" ry="17.6"/>
<ellipse class="st24" cx="243.2" cy="223.3" rx="80.3" ry="17.1"/>
<ellipse class="st25" cx="243.2" cy="223.6" rx="78.1" ry="16.7"/>
<ellipse class="st26" cx="243.2" cy="223.8" rx="75.9" ry="16.2"/>
<ellipse class="st27" cx="243.2" cy="224" rx="73.7" ry="15.7"/>
<ellipse class="st28" cx="243.2" cy="224.3" rx="71.5" ry="15.3"/>
<ellipse class="st29" cx="243.2" cy="224.5" rx="69.3" ry="14.8"/>
<ellipse class="st30" cx="243.2" cy="224.7" rx="67.1" ry="14.3"/>
<ellipse class="st31" cx="243.2" cy="224.9" rx="64.9" ry="13.9"/>
<ellipse class="st32" cx="243.2" cy="225.2" rx="62.7" ry="13.4"/>
<ellipse class="st33" cx="243.2" cy="225.4" rx="60.5" ry="12.9"/>
<ellipse class="st34" cx="243.2" cy="225.6" rx="58.3" ry="12.4"/>
<ellipse class="st35" cx="243.2" cy="225.9" rx="56.1" ry="12"/>
<g>
	<polygon class="st36" points="240.1,121.5 230.7,142.2 204.6,45.3 214,24.7 	"/>
	<path class="st37" d="M214,24.7l26.1,96.8l-35.4-95.8C207.4,25.3,211.2,24.9,214,24.7z"/>
	<polygon class="st37" points="240.1,121.5 230.7,142.2 195.3,46.4 204.7,25.7 	"/>
	<path class="st38" d="M204.7,25.7l35.4,95.8l-42.7-94.4C200.1,26.5,202,26.1,204.7,25.7z"/>
	<polygon class="st39" points="240.1,121.5 230.7,142.2 188,47.7 197.4,27.1 	"/>
	<path class="st40" d="M197.4,27.1l42.7,94.4l-72.4-82.8C176.9,33.2,186.9,29.3,197.4,27.1z"/>
	<polygon class="st41" points="240.1,121.5 230.7,142.2 158.3,59.3 167.7,38.7 	"/>
	<path class="st42" d="M167.7,38.7l72.4,82.8l-89.6-69.3C155.6,46.9,161.4,42.4,167.7,38.7z"/>
	<polygon class="st43" points="240.1,121.5 230.7,142.2 141.1,72.9 150.5,52.2 	"/>
	<g>
		<g>
			<defs>
				<path id="SVGID_1_" d="M344.6,169l-9.4,20.6c-12.4,27.3-40.9,46.8-78.5,49.4c-59.8,4.1-119.9-35.8-134.3-89.3
					c-5.4-19.9-4.3-38.1,3-54.3l9.4-20.6c-7.3,16.1-8.4,34.3-3,54.2c14.4,53.5,74.5,93.4,134.3,89.3
					C303.7,215.7,332.2,196.3,344.6,169z"/>
			</defs>
			<clipPath id="SVGID_2_">
				<use xlink:href="#SVGID_1_"  style="overflow:visible;"/>
			</clipPath>
			<g class="st44">
				<g>
					<path class="st45" d="M344.6,169l-9.4,20.6c-0.7,1.5-1.4,2.9-2.1,4.4l9.4-20.6C343.3,171.9,344,170.5,344.6,169"/>
					<path class="st45" d="M342.5,173.3l-9.4,20.7c-4,7.4-9.1,14.1-15.2,19.8l9.4-20.6C333.4,187.4,338.5,180.7,342.5,173.3"/>
					<path class="st45" d="M327.3,193.1l-9.4,20.6c-9.5,8.9-20.9,15.6-33.2,19.7l9.4-20.6C306.4,208.8,317.8,202,327.3,193.1"/>
					<path class="st45" d="M294.1,212.9l-9.4,20.6c-8.9,3-18.2,4.9-27.6,5.5l9.4-20.6C275.9,217.7,285.2,215.9,294.1,212.9"/>
					<path class="st45" d="M266.5,218.3l-9.4,20.7h-0.4c-6.5,0.5-13.1,0.4-19.6-0.2l9.4-20.6c6.5,0.6,13.1,0.6,19.6,0.2L266.5,218.3
						"/>
					<path class="st46" d="M246.6,218.2l-9.4,20.6c-6-0.5-12-1.5-17.9-2.8l9.4-20.6C234.6,216.7,240.6,217.6,246.6,218.2"/>
					<path class="st46" d="M228.7,215.4l-9.4,20.6c-6.1-1.4-12.1-3.2-17.9-5.4l9.4-20.6C216.6,212.2,222.6,214,228.7,215.4"/>
					<path class="st47" d="M210.8,210l-9.4,20.6c-6.8-2.6-13.4-5.6-19.8-9.2l9.4-20.6C197.3,204.4,203.9,207.5,210.8,210"/>
					<path class="st36" d="M191,200.8l-9.4,20.6c-28.7-16.1-51.1-41.8-59.1-71.8c-5.4-19.9-4.3-38.1,3-54.3l9.4-20.6
						c-7.3,16.1-8.4,34.3-3,54.2C139.9,159,162.3,184.8,191,200.8"/>
				</g>
			</g>
		</g>
	</g>
	<path class="st48" d="M214,24.7c59.8-4.2,120,35.8,134.4,89.3S326,214.1,266.2,218.3s-120-35.8-134.3-89.3
		c-8-29.9-1.7-55.9,18.7-76.9l89.6,69.3L214,24.7z"/>
</g>
<rect x="411.6" y="12.3" class="st37" width="42.4" height="33.9"/>
<rect x="411.6" y="63.2" class="st49" width="42.4" height="33.9"/>
<rect x="411.6" y="114" class="st50" width="42.4" height="33.9"/>
<rect x="411.6" y="164.9" class="st51" width="42.4" height="33.9"/>
<rect x="411.6" y="215.7" class="st52" width="42.4" height="33.9"/>
<path class="st53" d="M471.5,30.5c0,0.9-0.2,1.7-0.5,2.5c-0.3,0.7-0.8,1.3-1.5,1.7c-0.7,0.4-1.4,0.6-2.2,0.6c-1.2,0-2.3-0.5-3-1.3
	c-0.8-1-1.2-2.3-1.1-3.6v-1.1c0-0.9,0.2-1.8,0.5-2.6c0.6-1.5,2.1-2.4,3.6-2.3c0.8,0,1.5,0.2,2.2,0.6c0.6,0.4,1.1,1,1.5,1.7
	c0.4,0.8,0.5,1.6,0.5,2.5L471.5,30.5z M470.6,29.3c0.1-1.1-0.2-2.1-0.9-3c-1.1-1.3-3.1-1.5-4.4-0.3c-0.1,0.1-0.2,0.2-0.3,0.3
	c-0.6,0.9-0.9,2-0.9,3v1.1c-0.1,1.1,0.3,2.1,0.9,3c1.1,1.3,3.1,1.5,4.4,0.3c0.1-0.1,0.2-0.2,0.3-0.3c0.6-0.9,0.9-1.9,0.9-3V29.3z"/>
<path class="st53" d="M474.9,25.3v2h1.6V28h-1.6v5.3c0,0.4,0.1,0.7,0.2,1c0.2,0.2,0.5,0.4,0.8,0.3c0.2,0,0.5,0,0.7-0.1v0.7
	c-0.3,0.1-0.6,0.1-0.9,0.1c-0.5,0-1-0.2-1.3-0.5c-0.3-0.5-0.4-1-0.4-1.5V28h-1.5v-0.7h1.4v-2L474.9,25.3z"/>
<path class="st53" d="M479.3,28.6c0.3-0.5,0.7-0.8,1.1-1.1c0.4-0.3,1-0.4,1.5-0.4c0.7-0.1,1.4,0.2,1.9,0.7c0.5,0.6,0.7,1.4,0.6,2.1
	v5.2h-0.9V30c0-0.6-0.1-1.1-0.5-1.6c-0.4-0.4-0.9-0.6-1.4-0.5c-0.5,0-1,0.2-1.4,0.5c-0.4,0.4-0.8,0.8-0.9,1.4v5.4h-0.9V24h0.9
	L479.3,28.6z"/>
<path class="st53" d="M489.7,35.4c-0.6,0-1.3-0.2-1.8-0.5c-0.5-0.3-1-0.8-1.3-1.4c-0.3-0.6-0.5-1.3-0.5-2v-0.3
	c0-0.7,0.1-1.4,0.4-2.1c0.3-0.6,0.7-1.1,1.2-1.4c0.5-0.3,1.1-0.5,1.7-0.5c0.9,0,1.7,0.3,2.3,1c0.6,0.8,0.9,1.7,0.8,2.7v0.5H487v0.2
	c0,0.8,0.2,1.6,0.8,2.3c0.5,0.6,1.2,0.9,2,0.9c0.4,0,0.9-0.1,1.2-0.3c0.4-0.2,0.7-0.5,1-0.8l0.5,0.4
	C491.9,34.9,490.8,35.4,489.7,35.4z M489.5,27.9c-0.6,0-1.2,0.3-1.7,0.7c-0.5,0.5-0.8,1.2-0.8,2h4.8v-0.1c0-0.7-0.2-1.3-0.6-1.9
	C490.7,28.1,490.1,27.9,489.5,27.9z"/>
<path class="st53" d="M498,28c-0.2,0-0.4,0-0.6,0c-0.5,0-1,0.1-1.4,0.5c-0.4,0.3-0.7,0.8-0.8,1.3v5.4h-0.9v-7.9h0.9v1.3
	c0.4-0.9,1.3-1.4,2.2-1.4c0.2,0,0.4,0,0.6,0.1L498,28z"/>
<path class="st53" d="M471.2,82.7c0,1-0.5,1.9-1.2,2.6c-0.8,0.6-1.7,0.9-2.7,0.9c-0.7,0-1.5-0.2-2.1-0.6c-0.6-0.4-1.1-1-1.4-1.7
	c-0.3-0.8-0.5-1.6-0.5-2.5v-1.4c0-0.9,0.2-1.7,0.5-2.5c0.3-0.7,0.8-1.3,1.4-1.7c1.7-1.2,4-0.9,5.3,0.8c0.4,0.6,0.7,1.3,0.7,2.1h-0.9
	c0-1.5-1.2-2.7-2.7-2.7c-0.1,0-0.2,0-0.3,0c-0.9,0-1.7,0.4-2.3,1.1c-0.6,0.9-0.9,1.9-0.9,3v1.3c-0.1,1,0.2,2.1,0.8,2.9
	c0.5,0.7,1.4,1.1,2.3,1.1c0.8,0.1,1.5-0.2,2.1-0.7c0.5-0.5,0.8-1.3,0.9-2L471.2,82.7z"/>
<path class="st53" d="M472.7,82c0-0.7,0.1-1.4,0.4-2.1c0.3-0.6,0.7-1.1,1.3-1.4c0.6-0.3,1.2-0.5,1.8-0.5c1,0,1.9,0.4,2.6,1.1
	c0.7,0.8,1,1.9,1,2.9v0.2c0,0.7-0.1,1.4-0.4,2.1c-0.3,0.6-0.7,1.1-1.3,1.4c-0.6,0.3-1.2,0.5-1.8,0.5c-1,0-1.9-0.4-2.6-1.1
	c-0.7-0.8-1-1.9-1-2.9V82z M473.5,82.2c0,0.8,0.2,1.7,0.7,2.3c0.9,1.1,2.4,1.2,3.5,0.4c0.1-0.1,0.3-0.2,0.4-0.4
	c0.5-0.7,0.8-1.5,0.7-2.4V82c0-0.6-0.1-1.1-0.3-1.7c-0.2-0.5-0.5-0.9-0.9-1.2c-1.1-0.7-2.5-0.5-3.3,0.5c-0.5,0.7-0.8,1.5-0.7,2.4
	V82.2z"/>
<path class="st53" d="M482.4,78.1v1.4c0.3-0.5,0.7-0.8,1.1-1.1c0.5-0.3,1-0.4,1.5-0.4c0.7-0.1,1.4,0.2,1.9,0.7
	c0.5,0.6,0.7,1.4,0.6,2.2v5.2h-0.9v-5.2c0-0.6-0.1-1.1-0.5-1.6c-0.4-0.4-0.9-0.6-1.4-0.5c-0.5,0-1,0.2-1.4,0.5
	c-0.4,0.4-0.8,0.8-0.9,1.4v5.4h-0.9v-7.9H482.4z"/>
<path class="st53" d="M494.5,84.1c0-0.4-0.2-0.8-0.5-1c-0.5-0.3-1-0.5-1.6-0.6c-0.6-0.1-1.1-0.3-1.6-0.5c-0.3-0.2-0.6-0.4-0.9-0.7
	c-0.2-0.3-0.3-0.6-0.3-1c0-0.6,0.3-1.2,0.8-1.6c0.6-0.4,1.3-0.6,2-0.6c0.8,0,1.5,0.2,2.1,0.7c0.5,0.4,0.8,1,0.8,1.7h-0.9
	c0-0.5-0.2-0.9-0.6-1.2c-0.9-0.6-2-0.6-2.9-0.1c-0.3,0.2-0.5,0.6-0.5,1c0,0.3,0.2,0.6,0.5,0.8c0.5,0.3,1,0.5,1.6,0.6
	c0.6,0.1,1.2,0.3,1.7,0.6c0.3,0.2,0.6,0.4,0.9,0.7c0.2,0.3,0.3,0.6,0.3,1c0,0.6-0.3,1.2-0.8,1.6c-0.6,0.4-1.4,0.6-2.1,0.6
	c-0.8,0-1.6-0.2-2.2-0.7c-0.5-0.4-0.9-1-0.9-1.7h0.9c0,0.5,0.3,0.9,0.6,1.2c0.5,0.3,1,0.5,1.6,0.4c0.5,0,1-0.1,1.5-0.4
	C494.3,84.8,494.5,84.4,494.5,84.1z"/>
<path class="st53" d="M498.8,76.1v2h1.6v0.7h-1.6v5.3c0,0.4,0.1,0.7,0.2,1c0.2,0.2,0.5,0.4,0.8,0.3c0.2,0,0.5,0,0.7-0.1v0.7
	c-0.3,0.1-0.6,0.1-0.9,0.1c-0.5,0-1-0.2-1.3-0.5c-0.3-0.5-0.5-1-0.4-1.5v-5.3h-1.5v-0.7h1.5v-2L498.8,76.1z"/>
<path class="st53" d="M505.9,78.9c-0.2,0-0.4,0-0.6,0c-0.5,0-1,0.1-1.4,0.5c-0.4,0.3-0.7,0.8-0.8,1.3v5.4h-0.9v-8h0.9v1.3
	c0.4-0.9,1.3-1.4,2.2-1.4c0.2,0,0.4,0,0.6,0.1L505.9,78.9z"/>
<path class="st53" d="M512.3,85.1c-0.6,0.8-1.5,1.2-2.5,1.2c-0.7,0-1.4-0.2-1.9-0.7c-0.5-0.6-0.7-1.4-0.7-2.2v-5.2h0.9v5.1
	c0,1.5,0.6,2.3,1.8,2.3c1.1,0.1,2.1-0.5,2.4-1.6v-5.7h0.9v7.9h-0.8L512.3,85.1z"/>
<path class="st53" d="M518.4,85.5c0.6,0,1.1-0.1,1.6-0.5c0.4-0.3,0.7-0.8,0.7-1.3h0.8c0,0.5-0.2,0.9-0.5,1.3
	c-0.3,0.4-0.7,0.7-1.1,0.9c-0.5,0.2-1,0.3-1.5,0.3c-1,0-1.9-0.4-2.5-1.1c-0.6-0.8-1-1.9-0.9-2.9v-0.3c0-0.7,0.1-1.4,0.4-2.1
	c0.2-0.6,0.7-1.1,1.2-1.4c0.5-0.3,1.2-0.5,1.8-0.5c0.8,0,1.6,0.2,2.2,0.8c0.6,0.5,0.9,1.2,0.9,2h-0.8c0-1.2-1-2.1-2.2-2.1
	c0,0,0,0,0,0c-0.7,0-1.4,0.3-1.8,0.8c-0.5,0.7-0.7,1.6-0.7,2.4v0.3c-0.1,0.8,0.2,1.7,0.7,2.4C517,85.1,517.7,85.5,518.4,85.5z"/>
<path class="st53" d="M524.6,76.1v2h1.6v0.7h-1.6v5.3c0,0.4,0.1,0.7,0.2,1c0.2,0.2,0.5,0.4,0.8,0.3c0.2,0,0.5,0,0.7-0.1v0.7
	c-0.3,0.1-0.6,0.1-0.9,0.1c-0.5,0-1-0.2-1.3-0.5c-0.3-0.5-0.4-1-0.4-1.5v-5.3h-1.5v-0.7h1.5v-2L524.6,76.1z"/>
<path class="st53" d="M528,75.8c0-0.2,0.1-0.3,0.2-0.4c0.1-0.1,0.3-0.2,0.4-0.2c0.3,0,0.6,0.2,0.6,0.5c0,0,0,0,0,0.1
	c0,0.2-0.1,0.3-0.2,0.4c-0.1,0.1-0.3,0.2-0.4,0.2c-0.2,0-0.3-0.1-0.4-0.2C528.1,76.2,528,76,528,75.8z M529,86.1h-0.9v-7.9h0.9V86.1
	z"/>
<path class="st53" d="M530.9,82c0-0.7,0.1-1.4,0.4-2.1c0.3-0.6,0.7-1.1,1.3-1.4c0.6-0.3,1.2-0.5,1.8-0.5c1,0,1.9,0.4,2.5,1.1
	c0.7,0.8,1,1.8,1,2.9v0.2c0,0.7-0.1,1.4-0.4,2.1c-0.3,0.6-0.7,1.1-1.3,1.4c-0.6,0.3-1.2,0.5-1.8,0.5c-1,0-1.9-0.4-2.6-1.1
	c-0.7-0.8-1-1.9-1-2.9L530.9,82z M531.8,82.2c0,0.8,0.2,1.7,0.7,2.3c0.9,1.1,2.4,1.2,3.5,0.4c0.1-0.1,0.3-0.2,0.4-0.4
	c0.5-0.7,0.8-1.5,0.7-2.4V82c0-0.6-0.1-1.1-0.3-1.7c-0.2-0.5-0.5-0.9-0.9-1.2c-0.4-0.3-0.9-0.4-1.4-0.4c-0.7,0-1.5,0.3-1.9,0.9
	c-0.5,0.7-0.8,1.5-0.7,2.4L531.8,82.2z"/>
<path class="st53" d="M540.6,78.1v1.4c0.3-0.5,0.7-0.8,1.1-1.1c0.4-0.3,1-0.4,1.5-0.4c0.7-0.1,1.4,0.2,1.9,0.7
	c0.5,0.6,0.7,1.4,0.6,2.2v5.2h-0.9v-5.2c0-0.6-0.1-1.1-0.5-1.6c-0.4-0.4-0.9-0.6-1.4-0.5c-0.5,0-1,0.2-1.4,0.5
	c-0.4,0.4-0.8,0.8-0.9,1.4v5.4h-0.9v-7.9H540.6z"/>
<path class="st53" d="M464.7,136.9h-0.9v-10.7h0.9V136.9z"/>
<path class="st53" d="M468.2,129v1.4c0.3-0.5,0.7-0.8,1.1-1.1c0.4-0.3,1-0.4,1.5-0.4c0.7-0.1,1.4,0.2,1.9,0.7
	c0.5,0.6,0.7,1.4,0.6,2.1v5.2h-0.9v-5.2c0-0.6-0.1-1.1-0.5-1.6c-0.4-0.4-0.9-0.6-1.4-0.5c-0.5,0-1,0.2-1.4,0.5
	c-0.4,0.4-0.8,0.8-0.9,1.4v5.4h-0.9V129H468.2z"/>
<path class="st53" d="M476.3,136.9v-7.2H475V129h1.3v-1c0-0.7,0.2-1.4,0.6-1.9c0.5-0.5,1.1-0.7,1.7-0.7c0.3,0,0.6,0,0.9,0.1
	l-0.1,0.7c-0.3-0.1-0.5-0.1-0.8-0.1c-0.4,0-0.8,0.1-1.1,0.4c-0.3,0.4-0.4,0.8-0.4,1.3v1h1.8v0.7h-1.9v7.2L476.3,136.9z"/>
<path class="st53" d="M480.1,132.8c0-0.7,0.1-1.4,0.5-2.1c0.3-0.6,0.7-1.1,1.3-1.4c0.5-0.3,1.2-0.5,1.8-0.5c1,0,1.9,0.4,2.6,1.1
	c0.7,0.8,1,1.9,1,2.9v0.2c0,0.7-0.1,1.4-0.5,2.1c-0.3,0.6-0.7,1.1-1.3,1.4c-0.5,0.3-1.2,0.5-1.8,0.5c-1,0-1.9-0.4-2.6-1.1
	c-0.7-0.8-1-1.9-1-2.9L480.1,132.8z M481,133.1c0,0.8,0.2,1.7,0.7,2.3c0.9,1.1,2.4,1.2,3.5,0.3c0.1-0.1,0.2-0.2,0.3-0.3
	c0.5-0.7,0.8-1.5,0.7-2.4v-0.2c0-0.6-0.1-1.1-0.3-1.7c-0.2-0.5-0.6-0.9-1-1.2c-0.4-0.3-0.9-0.4-1.4-0.4c-0.7,0-1.5,0.3-1.9,0.9
	c-0.5,0.7-0.8,1.5-0.7,2.4L481,133.1z"/>
<path class="st53" d="M492.7,129.7c-0.2,0-0.4,0-0.6,0c-0.5,0-1,0.1-1.4,0.5c-0.4,0.3-0.7,0.8-0.8,1.3v5.4H489v-8h0.9v1.3
	c0.4-0.9,1.3-1.4,2.2-1.4c0.2,0,0.4,0,0.6,0.1L492.7,129.7z"/>
<path class="st53" d="M494.9,129v1.3c0.3-0.4,0.6-0.8,1.1-1.1c0.4-0.2,1-0.4,1.5-0.4c1.1-0.1,2.1,0.5,2.4,1.5
	c0.3-0.5,0.7-0.9,1.1-1.1c0.5-0.3,1-0.4,1.6-0.4c1.7,0,2.6,0.9,2.6,2.8v5.3h-0.9v-5.2c0-0.6-0.1-1.1-0.5-1.6
	c-0.4-0.4-0.9-0.6-1.5-0.5c-0.6,0-1.2,0.2-1.6,0.6c-0.4,0.4-0.7,0.9-0.7,1.5v5.2h-0.9v-5.3c0-0.5-0.1-1.1-0.5-1.5
	c-0.4-0.4-0.9-0.5-1.5-0.5c-0.5,0-1,0.2-1.4,0.5c-0.4,0.4-0.7,0.9-0.9,1.4v5.4H494V129H494.9z"/>
<path class="st53" d="M512.3,136.9c-0.1-0.4-0.2-0.7-0.2-1.1c-0.3,0.4-0.7,0.7-1.2,0.9c-0.5,0.2-1,0.3-1.5,0.3
	c-0.7,0-1.3-0.2-1.9-0.6c-0.5-0.4-0.7-1-0.7-1.6c0-0.7,0.4-1.4,1-1.8c0.8-0.5,1.7-0.7,2.7-0.7h1.6v-0.9c0-0.5-0.2-1-0.5-1.3
	c-0.4-0.4-1-0.5-1.5-0.5c-0.5,0-1.1,0.1-1.5,0.5c-0.4,0.3-0.6,0.7-0.6,1.1h-0.9c0-0.7,0.3-1.3,0.9-1.6c0.6-0.5,1.4-0.7,2.2-0.7
	c0.8,0,1.5,0.2,2.1,0.7c0.5,0.5,0.8,1.1,0.8,1.9v3.8c0,0.6,0.1,1.2,0.3,1.7v0.1L512.3,136.9z M509.6,136.3c0.6,0,1.1-0.1,1.6-0.4
	c0.4-0.3,0.8-0.7,1-1.1V133h-1.6c-0.7,0-1.4,0.1-2.1,0.5c-0.5,0.3-0.7,0.7-0.7,1.3c0,0.4,0.2,0.8,0.5,1.1
	C508.7,136.2,509.1,136.3,509.6,136.3L509.6,136.3z"/>
<path class="st53" d="M516.7,127v2h1.6v0.7h-1.6v5.3c0,0.4,0.1,0.7,0.2,1c0.2,0.2,0.5,0.4,0.8,0.3c0.2,0,0.5,0,0.7-0.1v0.7
	c-0.3,0.1-0.6,0.1-0.9,0.1c-0.5,0-1-0.2-1.3-0.5c-0.3-0.5-0.4-1-0.4-1.5v-5.3h-1.5V129h1.5v-2H516.7z"/>
<path class="st53" d="M520.2,126.7c0-0.2,0.1-0.3,0.2-0.4c0.1-0.1,0.3-0.2,0.4-0.2c0.2,0,0.3,0.1,0.4,0.2c0.1,0.1,0.2,0.3,0.2,0.4
	c0,0.2-0.1,0.3-0.2,0.4c-0.1,0.1-0.3,0.2-0.4,0.2c-0.2,0-0.3-0.1-0.4-0.2C520.2,127,520.1,126.9,520.2,126.7z M521.2,136.9h-0.9V129
	h0.9V136.9z"/>
<path class="st53" d="M523.1,132.8c0-0.7,0.1-1.4,0.4-2.1c0.6-1.2,1.8-2,3.1-1.9c1,0,1.9,0.4,2.6,1.1c0.7,0.8,1,1.9,1,2.9v0.2
	c0,0.7-0.1,1.4-0.4,2.1c-0.3,0.6-0.7,1.1-1.3,1.4c-0.6,0.3-1.2,0.5-1.8,0.5c-1,0-1.9-0.4-2.6-1.1c-0.7-0.8-1-1.9-1-2.9V132.8z
	 M524,133.1c0,0.8,0.2,1.7,0.7,2.3c0.9,1.1,2.5,1.2,3.5,0.3c0.1-0.1,0.2-0.2,0.3-0.3c0.5-0.7,0.8-1.5,0.7-2.4v-0.2
	c0-0.6-0.1-1.1-0.3-1.7c-0.2-0.5-0.6-0.9-1-1.2c-0.4-0.3-0.9-0.4-1.4-0.4c-0.7,0-1.5,0.3-1.9,0.9c-0.5,0.7-0.8,1.5-0.7,2.4
	L524,133.1z"/>
<path class="st53" d="M532.8,129v1.4c0.3-0.5,0.7-0.8,1.1-1.1c0.4-0.3,1-0.4,1.5-0.4c0.7-0.1,1.4,0.2,1.9,0.7
	c0.5,0.6,0.7,1.4,0.6,2.1v5.2H537v-5.2c0-0.6-0.1-1.1-0.5-1.6c-0.4-0.4-0.9-0.6-1.4-0.5c-0.5,0-1,0.2-1.4,0.5
	c-0.4,0.4-0.8,0.8-0.9,1.4v5.4H532V129H532.8z"/>
<path class="st53" d="M470.9,145h-3.7v9.9h-0.9V145h-3.6v-0.8h8.2V145z"/>
<path class="st53" d="M474.7,155.1c-0.6,0-1.3-0.2-1.8-0.5c-0.5-0.3-1-0.8-1.3-1.4c-0.3-0.6-0.5-1.3-0.5-2v-0.3
	c0-0.7,0.1-1.4,0.4-2.1c0.3-0.6,0.7-1.1,1.2-1.4c0.5-0.3,1.1-0.5,1.7-0.5c0.9,0,1.7,0.3,2.3,1c0.6,0.8,0.9,1.7,0.8,2.7v0.5H472v0.2
	c0,0.8,0.2,1.6,0.8,2.3c0.5,0.6,1.2,0.9,2,0.9c0.4,0,0.9-0.1,1.2-0.3c0.4-0.2,0.7-0.5,1-0.8l0.5,0.4
	C476.9,154.6,475.8,155.1,474.7,155.1z M474.5,147.6c-0.6,0-1.2,0.3-1.7,0.7c-0.5,0.5-0.8,1.2-0.8,1.9h4.8v-0.1
	c0-0.7-0.2-1.3-0.6-1.9C475.8,147.8,475.2,147.6,474.5,147.6z"/>
<path class="st53" d="M482.3,154.3c0.6,0,1.1-0.2,1.5-0.5c0.4-0.3,0.7-0.8,0.7-1.3h0.9c0,0.5-0.2,0.9-0.5,1.3
	c-0.3,0.4-0.7,0.7-1.1,0.9c-0.5,0.2-1,0.3-1.5,0.3c-0.9,0-1.9-0.4-2.5-1.1c-0.6-0.8-1-1.9-0.9-2.9v-0.3c0-0.7,0.1-1.4,0.4-2.1
	c0.2-0.6,0.7-1.1,1.2-1.4c0.5-0.3,1.2-0.5,1.8-0.5c0.8,0,1.6,0.2,2.1,0.8c0.6,0.5,0.9,1.2,0.9,2h-0.9c0-1.2-1-2.1-2.2-2.1
	c0,0,0,0,0,0c-0.7,0-1.4,0.3-1.8,0.9c-0.5,0.7-0.7,1.6-0.7,2.4v0.3c0,0.8,0.2,1.7,0.7,2.4C480.9,154,481.6,154.3,482.3,154.3z"/>
<path class="st53" d="M488,148.3c0.3-0.5,0.6-0.8,1.1-1.1c0.4-0.3,1-0.4,1.5-0.4c0.7-0.1,1.4,0.2,1.9,0.7c0.5,0.6,0.7,1.4,0.6,2.1
	v5.2h-0.9v-5.2c0-0.6-0.1-1.1-0.5-1.6c-0.4-0.4-0.9-0.6-1.4-0.5c-0.5,0-1,0.2-1.4,0.5c-0.4,0.4-0.7,0.8-0.9,1.4v5.4h-0.9v-11.2h0.9
	V148.3z"/>
<path class="st53" d="M496.2,147v1.4c0.3-0.5,0.7-0.8,1.1-1.1c0.4-0.3,1-0.4,1.5-0.4c0.7-0.1,1.4,0.2,1.9,0.7
	c0.5,0.6,0.7,1.4,0.6,2.1v5.2h-0.9v-5.2c0-0.6-0.1-1.1-0.5-1.6c-0.4-0.4-0.9-0.6-1.4-0.5c-0.5,0-1,0.2-1.4,0.5
	c-0.4,0.4-0.8,0.8-0.9,1.4v5.4h-0.9V147H496.2z"/>
<path class="st53" d="M503.1,150.8c0-0.7,0.1-1.4,0.4-2.1c0.3-0.6,0.7-1.1,1.3-1.4c0.6-0.3,1.2-0.5,1.8-0.5c1,0,1.9,0.4,2.6,1.2
	c0.7,0.8,1,1.9,1,2.9v0.2c0,0.7-0.1,1.4-0.4,2.1c-0.3,0.6-0.7,1.1-1.3,1.4c-0.6,0.3-1.2,0.5-1.8,0.5c-1,0-1.9-0.4-2.6-1.1
	c-0.7-0.8-1-1.9-1-2.9L503.1,150.8z M504,151.1c0,0.8,0.2,1.7,0.7,2.3c0.9,1.1,2.4,1.2,3.5,0.3c0.1-0.1,0.2-0.2,0.3-0.3
	c0.5-0.7,0.8-1.5,0.7-2.4v-0.2c0-0.6-0.1-1.1-0.3-1.7c-0.2-0.5-0.5-0.9-1-1.2c-0.4-0.3-0.9-0.4-1.4-0.4c-0.7,0-1.5,0.3-1.9,0.9
	c-0.5,0.7-0.8,1.5-0.7,2.4L504,151.1z"/>
<path class="st53" d="M513,154.9h-0.9v-11.3h0.9V154.9z"/>
<path class="st53" d="M514.9,150.8c0-0.7,0.1-1.4,0.4-2.1c0.6-1.2,1.8-2,3.1-1.9c1,0,2,0.4,2.6,1.2c0.7,0.8,1,1.9,1,2.9v0.2
	c0,0.7-0.1,1.4-0.4,2.1c-0.3,0.6-0.7,1.1-1.3,1.4c-0.6,0.3-1.2,0.5-1.8,0.5c-1,0-1.9-0.4-2.6-1.1c-0.7-0.8-1-1.9-1-2.9L514.9,150.8z
	 M515.8,151.1c0,0.8,0.2,1.7,0.7,2.3c0.9,1.1,2.5,1.2,3.5,0.3c0.1-0.1,0.2-0.2,0.3-0.3c0.5-0.7,0.8-1.5,0.7-2.4v-0.2
	c0-0.6-0.1-1.1-0.3-1.7c-0.2-0.5-0.5-0.9-0.9-1.2c-0.4-0.3-0.9-0.4-1.4-0.4c-0.7,0-1.5,0.3-1.9,0.9c-0.5,0.7-0.8,1.5-0.7,2.4
	L515.8,151.1z"/>
<path class="st53" d="M523.4,150.9c-0.1-1,0.2-2.1,0.8-2.9c0.5-0.7,1.4-1.1,2.2-1.1c1,0,1.9,0.4,2.5,1.3l0.1-1.1h0.8v7.8
	c0,0.9-0.3,1.8-0.9,2.4c-0.6,0.6-1.5,0.9-2.3,0.9c-0.5,0-1.1-0.1-1.6-0.4c-0.5-0.2-0.9-0.6-1.2-1l0.5-0.5c0.5,0.7,1.3,1.1,2.2,1.1
	c0.6,0,1.3-0.2,1.7-0.6c0.4-0.5,0.7-1.1,0.6-1.8v-1c-0.6,0.8-1.5,1.2-2.5,1.2c-0.9,0-1.7-0.4-2.2-1.1
	C523.7,153.1,523.4,152,523.4,150.9L523.4,150.9z M524.3,151c0,0.8,0.2,1.7,0.6,2.4c0.4,0.6,1,0.9,1.7,0.9c1,0.1,1.9-0.5,2.3-1.4
	v-3.7c-0.2-0.5-0.5-0.9-0.9-1.2c-0.4-0.3-0.9-0.4-1.4-0.4c-0.7,0-1.3,0.3-1.7,0.9C524.4,149.2,524.2,150.1,524.3,151L524.3,151z"/>
<path class="st53" d="M534.6,153.6l2.3-6.6h0.9l-3.4,9.3l-0.2,0.4c-0.3,0.9-1.1,1.4-2,1.4c-0.2,0-0.5,0-0.7-0.1v-0.7l0.5,0.1
	c0.4,0,0.7-0.1,1-0.3c0.3-0.3,0.6-0.7,0.7-1.1l0.4-1.1l-3-7.9h1L534.6,153.6z"/>
<path class="st53" d="M463.6,187.8v-10.7h3.1c0.9-0.1,1.8,0.2,2.6,0.7c0.6,0.5,0.9,1.3,0.9,2.1c0,1.1-0.7,2-1.7,2.3
	c0.6,0.1,1.1,0.4,1.5,0.9c0.4,0.5,0.6,1,0.6,1.6c0,0.8-0.3,1.6-0.9,2.2c-0.7,0.6-1.6,0.8-2.5,0.8H463.6z M464.5,181.9h2.5
	c0.6,0,1.2-0.2,1.8-0.5c0.4-0.4,0.7-0.9,0.6-1.5c0-0.6-0.2-1.1-0.6-1.5c-0.6-0.4-1.3-0.5-1.9-0.5h-2.3L464.5,181.9z M464.5,182.6
	v4.4h2.7c0.7,0,1.3-0.2,1.8-0.6c0.5-0.4,0.7-1,0.7-1.6c0-0.6-0.2-1.2-0.6-1.6c-0.5-0.4-1.1-0.6-1.8-0.6H464.5z"/>
<path class="st53" d="M475.7,187.9c-0.6,0-1.3-0.2-1.8-0.5c-0.5-0.3-1-0.8-1.3-1.4c-0.3-0.6-0.5-1.3-0.5-2v-0.3
	c0-0.7,0.1-1.4,0.4-2.1c0.3-0.6,0.7-1.1,1.2-1.4c0.5-0.3,1.1-0.5,1.7-0.5c0.9,0,1.7,0.3,2.3,1c0.6,0.8,0.9,1.7,0.8,2.7v0.5H473v0.1
	c0,0.8,0.2,1.6,0.8,2.3c0.5,0.6,1.2,0.9,2,0.9c0.4,0,0.9-0.1,1.2-0.3c0.4-0.2,0.7-0.5,1-0.8l0.5,0.4
	C477.9,187.4,476.8,188,475.7,187.9z M475.5,180.4c-0.6,0-1.2,0.3-1.7,0.7c-0.5,0.6-0.8,1.3-0.8,2h4.8V183c0-0.7-0.2-1.3-0.6-1.9
	C476.7,180.7,476.1,180.4,475.5,180.4z"/>
<path class="st53" d="M481.2,179.8v1.4c0.3-0.5,0.7-0.8,1.1-1.1c0.4-0.3,1-0.4,1.5-0.4c0.7-0.1,1.4,0.2,1.9,0.7
	c0.5,0.6,0.7,1.4,0.6,2.1v5.2h-0.9v-5.2c0-0.5-0.1-1.1-0.4-1.5c-0.4-0.4-0.9-0.6-1.4-0.5c-0.5,0-1,0.2-1.4,0.5
	c-0.4,0.4-0.8,0.8-0.9,1.4v5.4h-0.9v-7.9L481.2,179.8z"/>
<path class="st53" d="M491.7,187.9c-1.3,0-2.5-0.7-3.1-1.9c-0.3-0.6-0.5-1.3-0.5-2v-0.3c0-0.7,0.1-1.4,0.4-2.1
	c0.3-0.6,0.7-1.1,1.2-1.4c0.5-0.3,1.1-0.5,1.7-0.5c0.9,0,1.7,0.3,2.3,1c0.6,0.8,0.9,1.7,0.8,2.7v0.5H489v0.1c0,0.8,0.2,1.6,0.8,2.3
	c0.5,0.6,1.2,0.9,1.9,0.9c0.4,0,0.9-0.1,1.3-0.3c0.4-0.2,0.7-0.5,1-0.8l0.5,0.4C493.9,187.4,492.8,188,491.7,187.9z M491.5,180.4
	c-0.6,0-1.2,0.3-1.7,0.7c-0.5,0.6-0.8,1.3-0.8,2h4.8V183c0-0.7-0.2-1.3-0.6-1.9C492.7,180.7,492.1,180.4,491.5,180.4z"/>
<path class="st53" d="M497,187.8v-7.2h-1.3v-0.7h1.3v-1c0-0.7,0.2-1.4,0.6-1.9c0.5-0.5,1.1-0.7,1.7-0.6c0.3,0,0.6,0,0.9,0.1
	l-0.1,0.7c-0.3-0.1-0.5-0.1-0.8-0.1c-0.4,0-0.8,0.1-1.1,0.4c-0.3,0.4-0.4,0.8-0.4,1.3v1h1.9v0.7h-1.9v7.2L497,187.8z"/>
<path class="st53" d="M501.3,177.6c0-0.2,0.1-0.3,0.2-0.4c0.1-0.1,0.3-0.2,0.4-0.2c0.2,0,0.3,0,0.5,0.2c0.1,0.1,0.2,0.3,0.2,0.4
	c0,0.2-0.1,0.3-0.2,0.4c-0.1,0.1-0.3,0.2-0.5,0.2C501.5,178.1,501.3,177.9,501.3,177.6C501.2,177.6,501.2,177.6,501.3,177.6z
	 M502.3,187.8h-0.9v-7.9h0.9V187.8z"/>
<path class="st53" d="M506,177.8v2h1.6v0.7H506v5.3c0,0.4,0.1,0.7,0.2,1c0.2,0.2,0.5,0.4,0.8,0.3c0.2,0,0.5,0,0.7-0.1v0.7
	c-0.3,0.1-0.6,0.1-0.9,0.1c-0.5,0-1-0.2-1.3-0.5c-0.3-0.5-0.4-1-0.4-1.5v-5.3h-1.5v-0.7h1.5v-2L506,177.8z"/>
<path class="st53" d="M514.2,185.8c0-0.4-0.2-0.8-0.5-1.1c-0.5-0.3-1-0.5-1.6-0.6c-0.6-0.1-1.1-0.3-1.6-0.5
	c-0.3-0.2-0.6-0.4-0.9-0.7c-0.2-0.3-0.3-0.6-0.3-1c0-0.6,0.3-1.2,0.8-1.6c0.6-0.4,1.3-0.6,2-0.6c0.8,0,1.5,0.2,2.1,0.6
	c0.5,0.4,0.8,1,0.8,1.7h-0.9c0-0.5-0.2-0.9-0.6-1.1c-0.4-0.3-0.9-0.5-1.5-0.5c-0.5,0-1,0.1-1.4,0.4c-0.3,0.2-0.5,0.6-0.5,1
	c0,0.4,0.2,0.7,0.4,0.9c0.5,0.3,1,0.5,1.6,0.6c0.6,0.1,1.2,0.3,1.7,0.6c0.3,0.2,0.6,0.4,0.8,0.7c0.2,0.3,0.3,0.6,0.3,1
	c0,0.6-0.3,1.2-0.8,1.6c-0.6,0.4-1.4,0.6-2.1,0.6c-0.8,0-1.6-0.2-2.3-0.7c-0.5-0.4-0.9-1-0.9-1.7h0.9c0,0.5,0.3,0.9,0.6,1.2
	c0.5,0.3,1,0.5,1.6,0.4c0.5,0,1-0.1,1.5-0.4C514,186.5,514.2,186.1,514.2,185.8z"/>
<path class="st53" d="M464.5,201.4v4.3h-0.9v-10.7h3.6c0.9-0.1,1.9,0.2,2.6,0.9c1.3,1.3,1.3,3.4,0,4.6c-0.8,0.6-1.7,0.9-2.7,0.8
	L464.5,201.4z M464.5,200.6h2.7c0.7,0.1,1.4-0.2,2-0.6c0.5-0.5,0.7-1.1,0.7-1.7c0-0.7-0.2-1.3-0.7-1.8c-0.5-0.5-1.2-0.7-2-0.7h-2.8
	L464.5,200.6z"/>
<path class="st53" d="M476.3,198.6c-0.2,0-0.4,0-0.6-0.1c-0.5,0-1,0.1-1.4,0.5c-0.4,0.3-0.7,0.8-0.8,1.3v5.4h-0.9v-7.9h0.9v1.3
	c0.4-0.9,1.3-1.4,2.2-1.4c0.2,0,0.4,0,0.6,0.1L476.3,198.6z"/>
<path class="st53" d="M477.1,201.7c0-0.7,0.1-1.4,0.4-2.1c0.3-0.6,0.7-1.1,1.3-1.4c0.5-0.3,1.2-0.5,1.8-0.5c1,0,1.9,0.4,2.6,1.1
	c0.7,0.8,1,1.9,1,2.9v0.2c0,0.7-0.1,1.4-0.5,2.1c-0.3,0.6-0.7,1.1-1.3,1.4c-0.6,0.3-1.2,0.5-1.8,0.5c-1,0-1.9-0.4-2.6-1.1
	c-0.7-0.8-1-1.9-1-2.9V201.7z M477.9,201.9c0,0.8,0.2,1.7,0.7,2.3c0.9,1.1,2.4,1.2,3.5,0.4c0.1-0.1,0.3-0.2,0.4-0.4
	c0.5-0.7,0.8-1.5,0.7-2.4v-0.2c0-0.6-0.1-1.1-0.3-1.7c-0.2-0.5-0.5-0.9-1-1.2c-0.4-0.3-0.9-0.4-1.4-0.4c-0.7,0-1.5,0.3-1.9,0.9
	c-0.5,0.7-0.8,1.5-0.7,2.4V201.9z"/>
<path class="st53" d="M485.6,201.7c-0.1-1,0.2-2.1,0.8-2.9c0.5-0.7,1.4-1.1,2.2-1.1c1,0,1.9,0.4,2.5,1.3v-1.1h0.9v7.8
	c0,0.9-0.3,1.8-0.9,2.4c-0.6,0.6-1.5,0.9-2.3,0.9c-0.5,0-1.1-0.1-1.6-0.4c-0.5-0.2-0.9-0.6-1.2-1l0.5-0.5c0.5,0.7,1.3,1.1,2.2,1.1
	c0.6,0,1.3-0.2,1.7-0.6c0.4-0.5,0.7-1.1,0.6-1.8v-1c-0.6,0.8-1.5,1.2-2.5,1.2c-0.9,0-1.7-0.4-2.2-1.1
	C485.8,203.9,485.5,202.9,485.6,201.7L485.6,201.7z M486.5,201.9c0,0.8,0.2,1.7,0.6,2.4c0.4,0.6,1,0.9,1.7,0.9
	c1,0.1,1.9-0.5,2.3-1.4V200c-0.2-0.5-0.5-0.9-0.9-1.2c-0.4-0.3-0.9-0.4-1.4-0.4c-0.7,0-1.3,0.3-1.7,0.9
	C486.6,200.1,486.4,201,486.5,201.9z"/>
<path class="st53" d="M497.9,198.6c-0.2,0-0.4,0-0.6-0.1c-0.5,0-1,0.2-1.3,0.5c-0.4,0.3-0.7,0.8-0.8,1.3v5.4h-0.9v-7.9h0.9v1.3
	c0.4-0.9,1.3-1.4,2.2-1.4c0.2,0,0.4,0,0.6,0.1L497.9,198.6z"/>
<path class="st53" d="M504,205.8c-0.1-0.4-0.2-0.7-0.2-1.1c-0.3,0.4-0.7,0.7-1.2,0.9c-0.5,0.2-1,0.3-1.5,0.3c-0.7,0-1.3-0.2-1.8-0.6
	c-0.5-0.4-0.7-1-0.7-1.6c0-0.7,0.4-1.4,1-1.8c0.8-0.5,1.7-0.7,2.7-0.7h1.6v-0.9c0-0.5-0.2-1-0.5-1.3c-0.4-0.4-1-0.5-1.5-0.5
	c-0.5,0-1.1,0.1-1.5,0.5c-0.4,0.3-0.6,0.7-0.6,1.1h-0.9c0-0.7,0.3-1.3,0.9-1.6c0.6-0.5,1.4-0.7,2.2-0.7c0.8,0,1.5,0.2,2.1,0.7
	c0.5,0.5,0.8,1.1,0.8,1.9v3.8c0,0.6,0.1,1.2,0.2,1.7v0.1L504,205.8z M501.3,205.1c0.6,0,1.1-0.1,1.6-0.4c0.4-0.3,0.8-0.7,1-1.1v-1.7
	h-1.6c-0.7,0-1.4,0.1-2,0.5c-0.7,0.4-0.9,1.3-0.5,2c0.1,0.1,0.2,0.3,0.3,0.4C500.4,205,500.8,205.1,501.3,205.1L501.3,205.1z"/>
<path class="st53" d="M507.9,197.8v1.3c0.3-0.4,0.6-0.8,1.1-1.1c0.4-0.2,1-0.4,1.5-0.4c1.1-0.1,2.1,0.5,2.4,1.5
	c0.3-0.5,0.7-0.9,1.1-1.1c0.5-0.3,1-0.4,1.6-0.4c1.7,0,2.6,0.9,2.6,2.8v5.3h-0.9v-5.2c0-0.6-0.1-1.1-0.5-1.6
	c-0.4-0.4-0.9-0.6-1.5-0.5c-0.6,0-1.2,0.2-1.6,0.6c-0.4,0.4-0.7,0.9-0.7,1.5v5.2h-0.9v-5.3c0-0.5-0.1-1.1-0.5-1.5
	c-0.4-0.4-0.9-0.5-1.5-0.5c-0.5,0-1,0.2-1.4,0.5c-0.4,0.4-0.7,0.9-0.9,1.4v5.4H507v-7.9H507.9z"/>
<path class="st53" d="M525.1,203.8c0-0.4-0.2-0.8-0.5-1.1c-0.5-0.3-1-0.5-1.6-0.6c-0.6-0.1-1.1-0.3-1.6-0.5
	c-0.3-0.2-0.6-0.4-0.9-0.7c-0.2-0.3-0.3-0.6-0.3-1c0-0.6,0.3-1.2,0.8-1.6c0.6-0.4,1.3-0.6,2-0.6c0.8,0,1.5,0.2,2.1,0.6
	c0.5,0.4,0.8,1,0.8,1.7H525c0-0.5-0.2-0.9-0.6-1.1c-0.9-0.6-2-0.6-2.9-0.1c-0.3,0.2-0.5,0.6-0.5,1c0,0.4,0.1,0.7,0.4,0.9
	c0.5,0.3,1,0.5,1.6,0.6c0.6,0.1,1.2,0.3,1.7,0.6c0.3,0.2,0.6,0.4,0.8,0.7c0.2,0.3,0.3,0.6,0.3,1c0,0.6-0.3,1.2-0.8,1.6
	c-0.6,0.4-1.4,0.6-2.1,0.6c-0.8,0-1.6-0.2-2.3-0.7c-0.5-0.4-0.9-1-0.9-1.7h0.9c0,0.5,0.3,0.9,0.7,1.2c0.5,0.3,1,0.5,1.6,0.4
	c0.5,0,1-0.1,1.5-0.4C524.9,204.5,525.1,204.1,525.1,203.8z"/>
<path class="st53" d="M464.8,228l3.9,9.4l4-9.4h1.2v10.7H473V234l0.1-4.8l-4,9.4h-0.7l-4-9.4l0.1,4.7v4.7h-0.9V228H464.8z"/>
<path class="st53" d="M479.5,238.8c-0.6,0-1.3-0.2-1.8-0.5c-0.5-0.3-1-0.8-1.3-1.4c-0.3-0.6-0.5-1.3-0.5-2v-0.3
	c0-0.7,0.1-1.4,0.5-2.1c0.3-0.6,0.7-1.1,1.2-1.4c0.5-0.3,1.1-0.5,1.7-0.5c0.9,0,1.7,0.3,2.3,1c0.6,0.8,0.9,1.7,0.9,2.7v0.5h-5.7v0.2
	c0,0.8,0.2,1.6,0.8,2.3c0.5,0.6,1.2,0.9,1.9,0.9c0.4,0,0.9-0.1,1.2-0.3c0.4-0.2,0.7-0.5,1-0.8l0.5,0.4
	C481.6,238.3,480.6,238.8,479.5,238.8z M479.3,231.3c-0.6,0-1.2,0.3-1.7,0.7c-0.5,0.6-0.8,1.3-0.8,2h4.8v-0.1c0-0.7-0.2-1.3-0.6-1.9
	C480.5,231.6,479.9,231.3,479.3,231.3L479.3,231.3z"/>
<path class="st53" d="M483.8,234.6c-0.1-1,0.2-2.1,0.8-2.9c0.5-0.7,1.4-1.1,2.2-1.1c1,0,1.9,0.4,2.4,1.3v-4.4h0.9v11.3h-0.8v-1.1
	c-0.6,0.8-1.5,1.3-2.5,1.2c-0.9,0-1.7-0.4-2.2-1.1C484,236.8,483.7,235.7,483.8,234.6L483.8,234.6z M484.7,234.7
	c0,0.8,0.2,1.7,0.6,2.4c0.4,0.6,1,0.9,1.7,0.9c1,0.1,1.9-0.5,2.3-1.4v-3.7c-0.3-1-1.3-1.6-2.3-1.6c-0.7,0-1.3,0.3-1.7,0.9
	C484.8,232.9,484.6,233.8,484.7,234.7L484.7,234.7z"/>
<path class="st53" d="M492.4,228.4c0-0.2,0.1-0.3,0.2-0.4c0.2-0.2,0.6-0.2,0.9,0c0.1,0.1,0.2,0.3,0.2,0.4c0,0.2-0.1,0.3-0.2,0.4
	c-0.2,0.2-0.6,0.2-0.9,0C492.5,228.7,492.4,228.6,492.4,228.4z M493.4,238.6h-0.9v-7.9h0.9V238.6z"/>
<path class="st53" d="M498.8,238c0.6,0,1.1-0.2,1.5-0.5c0.4-0.3,0.6-0.8,0.7-1.3h0.8c0,0.5-0.2,0.9-0.5,1.3
	c-0.3,0.4-0.7,0.7-1.1,0.9c-0.5,0.2-1,0.3-1.5,0.3c-0.9,0-1.9-0.4-2.5-1.1c-0.6-0.8-1-1.9-0.9-2.9v-0.3c0-0.7,0.1-1.4,0.4-2.1
	c0.3-0.6,0.7-1.1,1.2-1.4c0.5-0.3,1.2-0.5,1.8-0.5c0.8,0,1.6,0.2,2.1,0.8c0.6,0.5,0.9,1.3,0.9,2.1H501c-0.1-1.3-1.2-2.2-2.5-2.1
	c-0.6,0.1-1.2,0.4-1.6,0.8c-0.5,0.7-0.7,1.6-0.6,2.4v0.3c0,0.8,0.2,1.7,0.6,2.4C497.4,237.7,498.1,238,498.8,238z"/>
<path class="st53" d="M508.6,238.6c-0.1-0.4-0.2-0.7-0.2-1.1c-0.3,0.4-0.7,0.7-1.2,0.9c-0.5,0.2-1,0.3-1.5,0.3
	c-0.7,0-1.3-0.2-1.9-0.6c-0.5-0.4-0.7-1-0.7-1.6c0-0.7,0.4-1.4,1-1.8c0.8-0.5,1.7-0.7,2.7-0.7h1.6v-0.9c0-0.5-0.2-1-0.5-1.3
	c-0.4-0.3-1-0.5-1.5-0.5c-0.5,0-1.1,0.1-1.5,0.5c-0.4,0.3-0.6,0.7-0.6,1.1h-0.9c0-0.7,0.3-1.3,0.9-1.6c0.6-0.5,1.4-0.7,2.2-0.7
	c0.8,0,1.5,0.2,2.1,0.7c0.5,0.5,0.8,1.1,0.8,1.9v3.8c0,0.6,0.1,1.2,0.2,1.7v0.1L508.6,238.6z M505.8,238c0.6,0,1.1-0.1,1.6-0.4
	c0.4-0.3,0.8-0.7,1-1.1v-1.7h-1.6c-0.7,0-1.4,0.1-2,0.5c-0.7,0.4-0.9,1.3-0.5,2c0.1,0.1,0.2,0.3,0.3,0.4
	C504.9,237.9,505.3,238,505.8,238L505.8,238z"/>
<path class="st53" d="M512.6,238.6h-0.9v-11.3h0.9V238.6z"/>
<path class="st53" d="M464.5,252.3v4.3h-0.9V246h3.6c0.9-0.1,1.9,0.2,2.6,0.8c0.7,0.6,1,1.5,1,2.3c0.1,0.9-0.3,1.7-0.9,2.3
	c-0.8,0.6-1.7,0.9-2.7,0.8L464.5,252.3z M464.5,251.5h2.7c0.7,0.1,1.4-0.2,2-0.6c0.5-0.5,0.7-1.1,0.7-1.7c0-0.7-0.2-1.3-0.7-1.8
	c-0.5-0.5-1.2-0.7-2-0.7h-2.8L464.5,251.5z"/>
<path class="st53" d="M476.3,249.4c-0.2,0-0.4,0-0.6-0.1c-0.5,0-1,0.1-1.4,0.5c-0.4,0.3-0.7,0.8-0.8,1.3v5.4h-0.9v-7.9h0.9v1.3
	c0.4-0.9,1.3-1.4,2.2-1.4c0.2,0,0.4,0,0.6,0.1L476.3,249.4z"/>
<path class="st53" d="M477.1,252.5c0-0.7,0.1-1.4,0.4-2.1c0.3-0.6,0.7-1.1,1.3-1.4c0.5-0.3,1.2-0.5,1.8-0.5c1,0,1.9,0.4,2.6,1.1
	c0.7,0.8,1,1.9,1,2.9v0.2c0,0.7-0.1,1.4-0.5,2.1c-0.3,0.6-0.7,1.1-1.3,1.4c-0.6,0.3-1.2,0.5-1.8,0.5c-1,0-1.9-0.4-2.6-1.1
	c-0.7-0.8-1-1.9-1-2.9V252.5z M477.9,252.8c0,0.8,0.2,1.7,0.7,2.3c0.9,1.1,2.4,1.2,3.5,0.4c0.1-0.1,0.3-0.2,0.4-0.4
	c0.5-0.7,0.8-1.5,0.7-2.4v-0.2c0-0.6-0.1-1.1-0.3-1.7c-0.2-0.5-0.5-0.9-1-1.2c-0.4-0.3-0.9-0.4-1.4-0.4c-0.7,0-1.5,0.3-1.9,0.9
	c-0.5,0.7-0.8,1.5-0.7,2.4V252.8z"/>
<path class="st53" d="M485.6,252.6c-0.1-1,0.2-2.1,0.8-2.9c0.5-0.7,1.4-1.1,2.2-1.1c1,0,1.9,0.4,2.5,1.3v-1.1h0.9v7.8
	c0,0.9-0.3,1.8-0.9,2.4c-0.6,0.6-1.5,1-2.3,0.9c-0.5,0-1.1-0.1-1.6-0.4c-0.5-0.2-0.9-0.6-1.2-1l0.5-0.5c0.5,0.7,1.3,1.1,2.2,1.1
	c0.6,0,1.3-0.2,1.7-0.6c0.4-0.5,0.7-1.1,0.6-1.8v-1c-0.6,0.8-1.5,1.2-2.5,1.2c-0.9,0-1.7-0.4-2.2-1.1
	C485.8,254.8,485.5,253.7,485.6,252.6L485.6,252.6z M486.5,252.7c0,0.8,0.2,1.7,0.6,2.4c0.4,0.6,1,0.9,1.7,0.9
	c1,0.1,1.9-0.5,2.3-1.4v-3.7c-0.2-0.5-0.5-0.9-0.9-1.2c-0.4-0.3-0.9-0.4-1.4-0.4c-0.7,0-1.3,0.3-1.7,0.9
	C486.6,250.9,486.4,251.8,486.5,252.7L486.5,252.7z"/>
<path class="st53" d="M497.9,249.4c-0.2,0-0.4,0-0.6-0.1c-0.5,0-1,0.1-1.4,0.5c-0.4,0.3-0.7,0.8-0.8,1.3v5.4h-0.9v-7.9h0.9v1.3
	c0.4-0.9,1.3-1.4,2.2-1.4c0.2,0,0.4,0,0.6,0.1L497.9,249.4z"/>
<path class="st53" d="M504,256.6c-0.1-0.4-0.2-0.7-0.2-1.1c-0.3,0.4-0.7,0.7-1.2,0.9c-0.5,0.2-1,0.3-1.5,0.3c-0.7,0-1.3-0.2-1.8-0.6
	c-0.5-0.4-0.7-1-0.7-1.6c0-0.7,0.4-1.4,1-1.8c0.8-0.5,1.7-0.7,2.7-0.7h1.6v-0.9c0-0.5-0.2-1-0.5-1.3c-0.4-0.3-1-0.5-1.5-0.5
	c-0.5,0-1.1,0.1-1.5,0.5c-0.4,0.3-0.6,0.7-0.6,1.1h-0.9c0-0.7,0.3-1.3,0.9-1.6c0.6-0.5,1.4-0.7,2.2-0.7c0.8,0,1.5,0.2,2.1,0.7
	c0.5,0.5,0.8,1.1,0.8,1.9v3.8c0,0.6,0.1,1.2,0.2,1.7v0.1L504,256.6z M501.3,256c0.6,0,1.1-0.1,1.6-0.4c0.4-0.3,0.8-0.7,1-1.1v-1.7
	h-1.6c-0.7,0-1.4,0.1-2,0.5c-0.7,0.4-0.9,1.3-0.5,2c0.1,0.1,0.2,0.3,0.3,0.4C500.4,255.8,500.8,256,501.3,256L501.3,256z"/>
<path class="st53" d="M507.9,248.7v1.3c0.3-0.4,0.6-0.8,1.1-1.1c0.4-0.2,1-0.4,1.5-0.4c1.1-0.1,2.1,0.5,2.4,1.5
	c0.3-0.5,0.7-0.9,1.1-1.1c0.5-0.3,1-0.4,1.6-0.4c1.7,0,2.6,0.9,2.6,2.8v5.3h-0.9v-5.2c0-0.6-0.1-1.1-0.5-1.6
	c-0.4-0.4-0.9-0.6-1.5-0.5c-0.6,0-1.2,0.2-1.6,0.6c-0.4,0.4-0.7,0.9-0.7,1.5v5.2h-0.9v-5.3c0-0.5-0.1-1.1-0.5-1.5
	c-0.4-0.4-0.9-0.5-1.5-0.5c-0.5,0-1,0.2-1.4,0.5c-0.4,0.4-0.7,0.9-0.9,1.4v5.4H507v-7.9H507.9z"/>
<path class="st53" d="M525.1,254.6c0-0.4-0.2-0.8-0.5-1c-0.5-0.3-1-0.5-1.6-0.6c-0.6-0.1-1.1-0.3-1.6-0.5c-0.3-0.2-0.6-0.4-0.9-0.7
	c-0.2-0.3-0.3-0.6-0.3-1c0-0.6,0.3-1.2,0.8-1.6c0.6-0.4,1.3-0.6,2-0.6c0.8,0,1.5,0.2,2.1,0.6c0.5,0.4,0.8,1,0.8,1.7H525
	c0-0.5-0.2-0.9-0.6-1.1c-0.9-0.6-2-0.6-2.9-0.1c-0.3,0.2-0.5,0.6-0.5,1c0,0.4,0.1,0.7,0.4,0.9c0.5,0.3,1,0.5,1.6,0.6
	c0.6,0.1,1.2,0.3,1.7,0.6c0.3,0.2,0.6,0.4,0.8,0.7c0.2,0.3,0.3,0.7,0.3,1.1c0,0.6-0.3,1.2-0.8,1.6c-0.6,0.4-1.4,0.6-2.1,0.6
	c-0.8,0-1.6-0.2-2.3-0.7c-0.5-0.4-0.9-1-0.9-1.7h0.9c0,0.5,0.3,0.9,0.7,1.2c0.5,0.3,1,0.5,1.6,0.4c0.5,0,1-0.1,1.5-0.4
	C524.9,255.4,525.1,255,525.1,254.6z"/>
<path class="st54" d="M423,34.9h-1.8v-8.6l-2.6,0.9v-1.5l4.2-1.5h0.2V34.9z"/>
<path class="st54" d="M427.9,33c0.3,0,0.6,0.1,0.8,0.3c0.2,0.2,0.3,0.4,0.3,0.7c0,0.3-0.1,0.5-0.3,0.7c-0.2,0.2-0.5,0.3-0.8,0.3
	c-0.3,0-0.5-0.1-0.8-0.3c-0.2-0.2-0.3-0.4-0.3-0.7c0-0.3,0.1-0.5,0.3-0.7C427.3,33.1,427.6,33,427.9,33z"/>
<path class="st54" d="M438,34.9h-7.2v-1.2l3.5-3.9c0.4-0.4,0.8-0.9,1.1-1.4c0.2-0.3,0.3-0.7,0.3-1.1c0-0.4-0.1-0.9-0.4-1.2
	c-0.3-0.3-0.7-0.5-1.2-0.5c-0.5,0-1,0.2-1.3,0.5c-0.3,0.4-0.5,0.9-0.5,1.5h-1.8c0-0.6,0.1-1.2,0.4-1.8c0.3-0.5,0.7-0.9,1.3-1.2
	c0.6-0.3,1.2-0.4,1.9-0.4c0.9,0,1.8,0.2,2.5,0.8c0.6,0.6,0.9,1.3,0.9,2.2c0,0.6-0.2,1.2-0.5,1.7c-0.4,0.7-0.9,1.4-1.5,2l-2.6,2.8h5
	L438,34.9z"/>
<path class="st54" d="M439.3,26.3c0-0.6,0.2-1.2,0.6-1.6c0.4-0.4,1-0.6,1.6-0.6c0.6,0,1.2,0.2,1.6,0.6c0.4,0.4,0.6,1,0.6,1.6v0.5
	c0,0.6-0.2,1.2-0.6,1.6c-0.4,0.4-1,0.6-1.6,0.6c-0.6,0-1.2-0.2-1.6-0.6c-0.4-0.4-0.7-1-0.6-1.6V26.3z M440.6,26.9
	c0,0.3,0.1,0.6,0.3,0.8c0.2,0.2,0.5,0.3,0.7,0.3c0.3,0,0.5-0.1,0.7-0.3c0.2-0.2,0.3-0.5,0.3-0.9v-0.5c0-0.3-0.1-0.6-0.3-0.8
	c-0.4-0.4-1-0.4-1.4-0.1c0,0,0,0-0.1,0.1c-0.2,0.2-0.3,0.5-0.3,0.8L440.6,26.9z M442,34.1l-0.9-0.5l5.2-8.3l0.9,0.5L442,34.1z
	 M444.5,32.3c0-0.6,0.2-1.2,0.6-1.6c0.9-0.8,2.3-0.8,3.3,0c0.4,0.4,0.7,1,0.6,1.6v0.5c0,0.6-0.2,1.2-0.6,1.6c-0.4,0.4-1,0.6-1.6,0.6
	c-0.6,0-1.2-0.2-1.6-0.6c-0.4-0.4-0.7-1-0.6-1.6L444.5,32.3z M445.7,32.9c0,0.3,0.1,0.6,0.3,0.8c0.2,0.2,0.5,0.3,0.8,0.3
	c0.3,0,0.5-0.1,0.7-0.3c0.2-0.2,0.3-0.5,0.3-0.8v-0.5c0-0.3-0.1-0.6-0.3-0.8c-0.2-0.2-0.5-0.3-0.7-0.3c-0.3,0-0.5,0.1-0.7,0.3
	c-0.2,0.2-0.3,0.5-0.3,0.8V32.9z"/>
<path class="st55" d="M423,85.9h-1.8v-8.6l-2.6,0.9v-1.5l4.2-1.5h0.2V85.9z"/>
<path class="st55" d="M427.9,84c0.3,0,0.6,0.1,0.8,0.3c0.2,0.2,0.3,0.4,0.3,0.7c0,0.3-0.1,0.5-0.3,0.7c-0.2,0.2-0.5,0.3-0.8,0.3
	c-0.3,0-0.5-0.1-0.8-0.3c-0.2-0.2-0.3-0.4-0.3-0.7c0-0.3,0.1-0.5,0.3-0.7C427.3,84.1,427.6,84,427.9,84z"/>
<path class="st55" d="M438,85.9h-7.2v-1.2l3.5-3.9c0.4-0.4,0.8-0.9,1.1-1.4c0.2-0.3,0.3-0.7,0.3-1.2c0-0.4-0.1-0.9-0.4-1.2
	c-0.3-0.3-0.7-0.5-1.2-0.5c-0.5,0-1,0.2-1.3,0.5c-0.3,0.4-0.5,0.9-0.5,1.4h-1.8c0-0.6,0.1-1.2,0.4-1.8c0.3-0.5,0.7-0.9,1.3-1.2
	c0.6-0.3,1.2-0.4,1.9-0.4c0.9,0,1.8,0.2,2.5,0.8c0.6,0.6,0.9,1.3,0.9,2.2c0,0.6-0.2,1.2-0.5,1.7c-0.4,0.7-0.9,1.4-1.5,2l-2.6,2.8h5
	L438,85.9z"/>
<path class="st55" d="M439.3,77.3c0-0.6,0.2-1.2,0.6-1.6c0.4-0.4,1-0.6,1.6-0.6c0.6,0,1.2,0.2,1.6,0.6c0.4,0.4,0.6,1,0.6,1.6v0.5
	c0,0.6-0.2,1.2-0.6,1.6c-0.4,0.4-1,0.6-1.6,0.6c-0.6,0-1.2-0.2-1.6-0.6c-0.4-0.4-0.7-1-0.6-1.6V77.3z M440.6,77.9
	c0,0.3,0.1,0.6,0.3,0.8c0.2,0.2,0.5,0.3,0.7,0.3c0.3,0,0.5-0.1,0.7-0.3c0.2-0.2,0.3-0.5,0.3-0.8v-0.5c0-0.3-0.1-0.6-0.3-0.8
	c-0.4-0.4-1-0.4-1.4-0.1c0,0,0,0-0.1,0.1c-0.2,0.2-0.3,0.5-0.3,0.8L440.6,77.9z M442,85.1l-0.9-0.5l5.2-8.3l0.9,0.5L442,85.1z
	 M444.5,83.3c0-0.6,0.2-1.2,0.6-1.6c0.9-0.8,2.3-0.8,3.3,0c0.4,0.4,0.7,1,0.6,1.6v0.5c0,0.6-0.2,1.2-0.6,1.6c-0.4,0.4-1,0.6-1.6,0.6
	c-0.6,0-1.2-0.2-1.6-0.6c-0.4-0.4-0.7-1-0.6-1.6L444.5,83.3z M445.7,83.9c0,0.3,0.1,0.6,0.3,0.8c0.2,0.2,0.5,0.3,0.8,0.3
	c0.3,0,0.5-0.1,0.7-0.3c0.2-0.2,0.3-0.5,0.3-0.8v-0.6c0-0.3-0.1-0.6-0.3-0.8c-0.2-0.2-0.5-0.3-0.7-0.3c-0.3,0-0.5,0.1-0.7,0.3
	c-0.2,0.2-0.3,0.5-0.3,0.8V83.9z"/>
<path class="st54" d="M424.2,133.1h1.3v1.4h-1.3v2.4h-1.8v-2.4h-4.6l0-1.1l4.6-7.2h1.8L424.2,133.1z M419.6,133.1h2.8v-4.5l-0.1,0.2
	L419.6,133.1z"/>
<path class="st54" d="M427.9,135c0.3,0,0.6,0.1,0.8,0.3c0.2,0.2,0.3,0.4,0.3,0.7c0,0.3-0.1,0.5-0.3,0.7c-0.2,0.2-0.5,0.3-0.8,0.3
	c-0.3,0-0.5-0.1-0.8-0.3c-0.2-0.2-0.3-0.4-0.3-0.7c0-0.3,0.1-0.5,0.3-0.7C427.3,135.1,427.6,135,427.9,135z"/>
<path class="st54" d="M435.9,132.4c-0.5,0.6-1.3,0.9-2.1,0.9c-0.9,0-1.7-0.3-2.2-1c-0.6-0.7-0.9-1.7-0.8-2.6c0-0.7,0.1-1.3,0.4-1.9
	c0.3-0.6,0.7-1,1.2-1.3c0.5-0.3,1.2-0.5,1.8-0.5c1,0,2,0.4,2.6,1.2c0.7,0.9,1,2.1,0.9,3.2v0.5c0.1,1.6-0.4,3.1-1.3,4.4
	c-1,1.1-2.4,1.6-3.9,1.5h-0.2v-1.5h0.3c0.9,0,1.7-0.2,2.4-0.8C435.6,134.1,435.9,133.3,435.9,132.4z M434.2,132c0.4,0,0.7-0.1,1-0.3
	c0.3-0.2,0.6-0.5,0.7-0.9v-0.7c0-0.7-0.1-1.3-0.5-1.9c-0.4-0.7-1.3-0.9-2-0.5c-0.2,0.1-0.3,0.3-0.5,0.4c-0.3,0.5-0.5,1-0.5,1.6
	c0,0.6,0.1,1.1,0.5,1.6C433.2,131.8,433.7,132,434.2,132z"/>
<path class="st54" d="M439.3,128.3c0-0.6,0.2-1.2,0.6-1.6c0.4-0.4,1-0.6,1.6-0.6c0.6,0,1.2,0.2,1.6,0.6c0.4,0.4,0.6,1,0.6,1.6v0.5
	c0,0.6-0.2,1.2-0.6,1.6c-0.4,0.4-1,0.6-1.6,0.6c-0.6,0-1.2-0.2-1.6-0.6c-0.4-0.4-0.7-1-0.6-1.6V128.3z M440.6,128.9
	c0,0.3,0.1,0.6,0.3,0.8c0.2,0.2,0.5,0.3,0.7,0.3c0.3,0,0.5-0.1,0.7-0.3c0.2-0.2,0.3-0.5,0.3-0.9v-0.5c0-0.3-0.1-0.6-0.3-0.8
	c-0.4-0.4-1-0.4-1.4-0.1c0,0,0,0-0.1,0.1c-0.2,0.2-0.3,0.5-0.3,0.8L440.6,128.9z M442,136.1l-0.9-0.5l5.2-8.3l0.9,0.5L442,136.1z
	 M444.5,134.3c0-0.6,0.2-1.2,0.6-1.6c0.9-0.8,2.3-0.8,3.3,0c0.4,0.4,0.7,1,0.6,1.6v0.5c0,0.6-0.2,1.2-0.6,1.6
	c-0.4,0.4-1,0.6-1.6,0.6c-0.6,0-1.2-0.2-1.6-0.6c-0.4-0.4-0.7-1-0.6-1.6L444.5,134.3z M445.7,134.9c0,0.3,0.1,0.6,0.3,0.8
	c0.2,0.2,0.5,0.3,0.8,0.3c0.3,0,0.5-0.1,0.7-0.3c0.2-0.2,0.3-0.5,0.3-0.9v-0.6c0-0.3-0.1-0.6-0.3-0.8c-0.2-0.2-0.5-0.3-0.7-0.3
	c-0.3,0-0.5,0.1-0.7,0.3c-0.2,0.2-0.3,0.5-0.3,0.9V134.9z"/>
<path d="M420.2,181.8h1.1c0.5,0,0.9-0.1,1.3-0.4c0.3-0.3,0.5-0.8,0.5-1.2c0-0.4-0.1-0.9-0.4-1.2c-0.3-0.3-0.8-0.5-1.2-0.4
	c-0.4,0-0.9,0.1-1.2,0.4c-0.3,0.3-0.5,0.7-0.5,1.1H418c0-0.5,0.1-1,0.4-1.5c0.3-0.5,0.7-0.8,1.2-1.1c0.5-0.3,1.1-0.4,1.8-0.4
	c0.9,0,1.8,0.2,2.5,0.8c0.6,0.6,1,1.4,0.9,2.2c0,0.5-0.2,1-0.5,1.4c-0.3,0.4-0.7,0.8-1.2,1c1.1,0.3,1.8,1.3,1.8,2.5
	c0,0.9-0.3,1.7-1,2.3c-0.7,0.6-1.7,0.9-2.6,0.9c-0.9,0-1.8-0.3-2.5-0.8c-0.7-0.5-1-1.3-1-2.2h1.8c0,0.4,0.2,0.9,0.5,1.1
	c0.4,0.3,0.8,0.5,1.3,0.4c0.5,0,0.9-0.1,1.3-0.4c0.7-0.7,0.7-1.8,0-2.6c-0.4-0.3-0.9-0.5-1.5-0.5h-1L420.2,181.8z"/>
<path d="M427.9,186c0.3,0,0.6,0.1,0.8,0.3c0.2,0.2,0.3,0.4,0.3,0.7c0,0.3-0.1,0.5-0.3,0.7c-0.2,0.2-0.5,0.3-0.8,0.3
	c-0.3,0-0.5-0.1-0.8-0.3c-0.2-0.2-0.3-0.4-0.3-0.7c0-0.3,0.1-0.5,0.3-0.7C427.3,186.1,427.6,186,427.9,186z"/>
<path d="M438,178.2l-4.3,9.7h-1.9l4.3-9.2h-5.5v-1.4h7.4V178.2z"/>
<path d="M439.3,179.3c0-0.6,0.2-1.2,0.6-1.6c0.4-0.4,1-0.6,1.6-0.6c0.6,0,1.2,0.2,1.6,0.6c0.4,0.4,0.6,1,0.6,1.6v0.5
	c0,0.6-0.2,1.2-0.6,1.6c-0.4,0.4-1,0.6-1.6,0.6c-0.6,0-1.2-0.2-1.6-0.6c-0.4-0.4-0.7-1-0.6-1.6V179.3z M440.6,179.9
	c0,0.3,0.1,0.6,0.3,0.8c0.2,0.2,0.5,0.3,0.7,0.3c0.3,0,0.5-0.1,0.7-0.3c0.2-0.2,0.3-0.5,0.3-0.9v-0.5c0-0.3-0.1-0.6-0.3-0.8
	c-0.4-0.4-1-0.4-1.4-0.1c0,0,0,0-0.1,0.1c-0.2,0.2-0.3,0.5-0.3,0.8L440.6,179.9z M442,187.1l-0.9-0.5l5.2-8.3l0.9,0.5L442,187.1z
	 M444.5,185.3c0-0.6,0.2-1.2,0.6-1.6c0.9-0.8,2.3-0.8,3.3,0c0.4,0.4,0.7,1,0.6,1.6v0.5c0,0.6-0.2,1.2-0.6,1.6
	c-0.4,0.4-1,0.6-1.6,0.6c-0.6,0-1.2-0.2-1.6-0.6c-0.4-0.4-0.7-1-0.6-1.6L444.5,185.3z M445.7,185.9c0,0.3,0.1,0.6,0.3,0.8
	c0.2,0.2,0.5,0.3,0.8,0.3c0.3,0,0.5-0.1,0.7-0.3c0.2-0.2,0.3-0.5,0.3-0.9v-0.6c0-0.3-0.1-0.6-0.3-0.8c-0.2-0.2-0.5-0.3-0.7-0.3
	c-0.3,0-0.5,0.1-0.7,0.3c-0.2,0.2-0.3,0.5-0.3,0.9V185.9z"/>
<path class="st54" d="M427,231.1c0,0.5-0.1,1-0.4,1.4c-0.3,0.4-0.6,0.8-1.1,1c0.5,0.2,1,0.6,1.3,1.1c0.3,0.4,0.5,1,0.5,1.5
	c0,0.8-0.3,1.7-1,2.2c-1.5,1.1-3.6,1.1-5.1,0c-1-1-1.3-2.6-0.5-3.8c0.3-0.4,0.8-0.8,1.3-1c-0.4-0.2-0.8-0.6-1.1-1
	c-0.3-0.4-0.4-0.9-0.4-1.4c0-0.8,0.3-1.6,0.9-2.2c1.4-1.1,3.4-1.1,4.8,0C426.7,229.5,427,230.3,427,231.1z M425.5,235.9
	c0-0.5-0.2-0.9-0.5-1.3c-0.7-0.6-1.8-0.6-2.5,0c-0.3,0.3-0.5,0.8-0.5,1.3c0,0.5,0.1,0.9,0.5,1.3c0.6,0.7,1.7,0.8,2.4,0.2
	C425.3,237,425.5,236.5,425.5,235.9L425.5,235.9z M425.2,231.1c0-0.4-0.1-0.8-0.4-1.1c-0.6-0.6-1.6-0.6-2.2,0
	c-0.3,0.3-0.4,0.7-0.4,1.2c0,0.4,0.1,0.8,0.4,1.2c0.3,0.3,0.7,0.4,1.1,0.4c0.4,0,0.8-0.1,1.1-0.4C425.1,232,425.2,231.6,425.2,231.1
	L425.2,231.1z"/>
<path class="st54" d="M433.8,234.4c-1.1,1.2-2.9,1.3-4.1,0.2c-0.1-0.1-0.1-0.1-0.2-0.2c-0.6-0.7-0.9-1.7-0.8-2.6
	c0-0.7,0.1-1.3,0.4-1.9c0.3-0.6,0.7-1,1.2-1.3c0.5-0.3,1.2-0.5,1.8-0.5c1,0,1.9,0.4,2.6,1.2c0.7,0.9,1,2.1,0.9,3.2v0.4
	c0.1,1.6-0.4,3.1-1.3,4.4c-1,1.1-2.4,1.6-3.9,1.5h-0.2v-1.5h0.3c0.9,0,1.7-0.2,2.4-0.8C433.5,236.1,433.8,235.3,433.8,234.4z
	 M432.1,234c0.4,0,0.7-0.1,1-0.3c0.3-0.2,0.6-0.5,0.7-0.9v-0.7c0-0.7-0.1-1.3-0.5-1.9c-0.4-0.7-1.3-0.9-2-0.5
	c-0.2,0.1-0.3,0.2-0.4,0.4c-0.3,0.5-0.5,1-0.5,1.6c0,0.6,0.1,1.1,0.5,1.6C431.2,233.8,431.6,234,432.1,234L432.1,234z"/>
<path class="st54" d="M437.2,230.3c0-0.6,0.2-1.2,0.6-1.6c0.9-0.8,2.3-0.8,3.3,0c0.4,0.4,0.6,1,0.6,1.6v0.5c0,0.6-0.2,1.2-0.6,1.6
	c-0.4,0.4-1,0.6-1.6,0.6c-0.6,0-1.2-0.2-1.6-0.6c-0.4-0.4-0.7-1-0.6-1.6L437.2,230.3z M438.5,230.9c0,0.3,0.1,0.6,0.3,0.8
	c0.2,0.2,0.5,0.3,0.8,0.3c0.3,0,0.5-0.1,0.7-0.3c0.2-0.2,0.3-0.5,0.3-0.9v-0.5c0-0.3-0.1-0.6-0.3-0.8c-0.2-0.2-0.5-0.3-0.8-0.3
	c-0.3,0-0.5,0.1-0.7,0.3c-0.2,0.2-0.3,0.5-0.3,0.8V230.9z M439.9,238.1l-0.9-0.5l5.2-8.3l0.9,0.5L439.9,238.1z M442.4,236.3
	c0-0.6,0.2-1.2,0.6-1.6c0.9-0.8,2.3-0.8,3.3,0c0.4,0.4,0.7,1,0.6,1.6v0.5c0,0.6-0.2,1.2-0.6,1.6c-0.4,0.4-1,0.6-1.6,0.6
	c-0.6,0-1.2-0.2-1.6-0.6c-0.4-0.4-0.7-1-0.6-1.6L442.4,236.3z M443.6,236.9c0,0.3,0.1,0.6,0.3,0.8c0.2,0.2,0.5,0.3,0.7,0.3
	c0.3,0,0.6-0.1,0.7-0.3c0.2-0.2,0.3-0.5,0.3-0.9v-0.6c0-0.3-0.1-0.6-0.3-0.8c-0.2-0.2-0.5-0.3-0.7-0.3c-0.3,0-0.5,0.1-0.7,0.3
	c-0.2,0.2-0.3,0.5-0.3,0.9L443.6,236.9z"/>
</svg>
