<svg id="Layer_2" data-name="Layer 2" xmlns="http://www.w3.org/2000/svg" xmlns:xlink="http://www.w3.org/1999/xlink" viewBox="0 0 572 275"><defs><clipPath id="clip-path"><path d="M344.41,168.73,335,189.39c-12.44,27.36-41,46.81-78.58,49.44a120.59,120.59,0,0,1-40.58-3.73l9.39-20.66a120.36,120.36,0,0,0,40.59,3.72C303.45,215.53,332,196.09,344.41,168.73Z" style="fill:none"/></clipPath><clipPath id="clip-path-2"><path d="M125.86,93.76l9.39-20.66a78.7,78.7,0,0,0-6.07,20.47c-8,51.48,35,105.6,96.07,120.87l-9.39,20.66c-61.06-15.27-104.07-69.39-96.07-120.87A78.32,78.32,0,0,1,125.86,93.76Z" style="fill:none"/></clipPath></defs><title>chart-budget3</title><ellipse cx="240.83" cy="222.42" rx="108.62" ry="26.58" style="fill:#0c0c0c;opacity:0"/><ellipse cx="240.83" cy="222.42" rx="106.79" ry="26.19" style="fill:#0c0c0c;opacity:0.018181818723679"/><ellipse cx="240.83" cy="222.42" rx="104.97" ry="25.81" style="fill:#0c0c0c;opacity:0.036363636851311"/><ellipse cx="240.83" cy="222.42" rx="103.15" ry="25.42" style="fill:#0c0c0c;opacity:0.054545454978943"/><ellipse cx="240.83" cy="222.42" rx="101.33" ry="25.04" style="fill:#0c0c0c;opacity:0.072727273106575"/><ellipse cx="240.83" cy="222.42" rx="99.5" ry="24.65" style="fill:#0c0c0c;opacity:0.090909091234207"/><ellipse cx="240.83" cy="222.42" rx="97.68" ry="24.27" style="fill:#0c0c0c;opacity:0.109090909361839"/><ellipse cx="240.83" cy="222.42" rx="95.86" ry="23.88" style="fill:#0c0c0c;opacity:0.127272727489472"/><ellipse cx="240.83" cy="222.42" rx="94.04" ry="23.5" style="fill:#0c0c0c;opacity:0.145454545617104"/><ellipse cx="240.83" cy="222.42" rx="92.21" ry="23.11" style="fill:#0c0c0c;opacity:0.163636363744736"/><ellipse cx="240.83" cy="222.42" rx="90.39" ry="22.73" style="fill:#0c0c0c;opacity:0.181818181872368"/><ellipse cx="240.83" cy="222.42" rx="88.57" ry="22.34" style="fill:#0c0c0c;opacity:0.2"/><ellipse cx="240.83" cy="222.42" rx="86.75" ry="21.96" style="fill:#0c0c0c;opacity:0.218181818127632"/><ellipse cx="240.83" cy="222.42" rx="84.92" ry="21.57" style="fill:#0c0c0c;opacity:0.236363636255264"/><ellipse cx="240.83" cy="222.42" rx="83.1" ry="21.19" style="fill:#0c0c0c;opacity:0.254545454382897"/><ellipse cx="240.83" cy="222.42" rx="81.28" ry="20.8" style="fill:#0c0c0c;opacity:0.272727272510529"/><ellipse cx="240.83" cy="222.42" rx="79.46" ry="20.42" style="fill:#0c0c0c;opacity:0.290909090638161"/><ellipse cx="240.83" cy="222.42" rx="77.63" ry="20.03" style="fill:#0c0c0c;opacity:0.309090908765793"/><ellipse cx="240.83" cy="222.42" rx="75.81" ry="19.65" style="fill:#0c0c0c;opacity:0.327272726893425"/><ellipse cx="240.83" cy="222.42" rx="73.99" ry="19.26" style="fill:#0c0c0c;opacity:0.345454545021057"/><ellipse cx="240.83" cy="222.42" rx="72.17" ry="18.88" style="fill:#0c0c0c;opacity:0.363636363148689"/><ellipse cx="240.83" cy="222.42" rx="70.34" ry="18.49" style="fill:#0c0c0c;opacity:0.381818181276321"/><ellipse cx="240.83" cy="222.42" rx="68.52" ry="18.11" style="fill:#0c0c0c;opacity:0.4"/><ellipse cx="240.83" cy="222.65" rx="66.74" ry="17.64" style="fill:#0c0c0c;opacity:0.430769231915474"/><ellipse cx="240.83" cy="222.89" rx="64.96" ry="17.17" style="fill:#0c0c0c;opacity:0.461538462476297"/><ellipse cx="240.83" cy="223.12" rx="63.19" ry="16.7" style="fill:#0c0c0c;opacity:0.49230769303712"/><ellipse cx="240.83" cy="223.35" rx="61.41" ry="16.23" style="fill:#0c0c0c;opacity:0.523076923597943"/><ellipse cx="240.83" cy="223.58" rx="59.63" ry="15.76" style="fill:#0c0c0c;opacity:0.553846154158766"/><ellipse cx="240.83" cy="223.81" rx="57.85" ry="15.29" style="fill:#0c0c0c;opacity:0.584615384719589"/><ellipse cx="240.83" cy="224.05" rx="56.07" ry="14.82" style="fill:#0c0c0c;opacity:0.615384615280412"/><ellipse cx="240.83" cy="224.28" rx="54.29" ry="14.35" style="fill:#0c0c0c;opacity:0.646153845841234"/><ellipse cx="240.83" cy="224.51" rx="52.51" ry="13.88" style="fill:#0c0c0c;opacity:0.676923076402057"/><ellipse cx="240.83" cy="224.74" rx="50.73" ry="13.41" style="fill:#0c0c0c;opacity:0.70769230696288"/><ellipse cx="240.83" cy="224.97" rx="48.95" ry="12.94" style="fill:#0c0c0c;opacity:0.738461537523703"/><ellipse cx="240.83" cy="225.2" rx="47.17" ry="12.47" style="fill:#0c0c0c;opacity:0.769230768084526"/><ellipse cx="240.83" cy="225.44" rx="45.4" ry="12" style="fill:#0c0c0c;opacity:0.8"/><g style="isolation:isolate"><polygon points="239.74 121.23 230.35 141.89 204.25 44.96 213.65 24.3 239.74 121.23" style="fill:#103b3f"/><g style="isolation:isolate"><g style="clip-path:url(#clip-path)"><g style="isolation:isolate"><path d="M344.41,168.73,335,189.39q-1,2.22-2.15,4.36l9.39-20.67c.76-1.42,1.48-2.88,2.15-4.35" style="fill:#103c40"/><path d="M342.26,173.08l-9.39,20.67a78.24,78.24,0,0,1-15.2,19.85l9.4-20.66a78.07,78.07,0,0,0,15.19-19.86" style="fill:#103c40"/><path d="M327.07,192.94l-9.4,20.66a90.06,90.06,0,0,1-33.29,19.73l9.4-20.66a90.22,90.22,0,0,0,33.29-19.73" style="fill:#113e40"/><path d="M293.78,212.67l-9.4,20.66a111.13,111.13,0,0,1-27.58,5.47l9.39-20.66a111.21,111.21,0,0,0,27.59-5.47" style="fill:#103c40"/><path d="M266.19,218.14,256.8,238.8l-.36,0a125,125,0,0,1-19.57-.06l9.4-20.66a123.86,123.86,0,0,0,19.57,0l.35,0" style="fill:#103c40"/><path d="M246.27,218.11l-9.4,20.66A125.92,125.92,0,0,1,219.78,236l9.4-20.66a127.25,127.25,0,0,0,17.09,2.73" style="fill:#113c3e"/><path d="M229.18,215.38,219.78,236c-1.28-.29-2.59-.6-3.92-.94l9.39-20.66c1.34.33,2.64.65,3.93.94" style="fill:#113c3e"/></g></g></g><path d="M213.64,24.3c59.87-4.19,120.09,35.82,134.51,89.35S325.71,214,265.84,218.16a120.36,120.36,0,0,1-40.59-3.72l14.49-93.21Z" style="fill:#164f52"/><polygon points="225.25 214.44 215.86 235.1 230.35 141.89 239.74 121.23 225.25 214.44" style="fill:#103b3f"/><g style="isolation:isolate"><g style="clip-path:url(#clip-path-2)"><g style="isolation:isolate"><path d="M225.25,214.44l-9.39,20.66a140.16,140.16,0,0,1-15.11-4.69l9.4-20.66a141.54,141.54,0,0,0,15.1,4.69" style="fill:#67943f"/><path d="M210.15,209.75l-9.4,20.66a141.4,141.4,0,0,1-19.62-9.09l9.39-20.67a141,141,0,0,0,19.63,9.1" style="fill:#68933e"/><path d="M190.52,200.65l-9.39,20.67c-41.71-23.39-67.71-66.08-61.34-107.09a78.32,78.32,0,0,1,6.07-20.47l9.39-20.66a78.7,78.7,0,0,0-6.07,20.47c-6.37,41,19.63,83.7,61.34,107.08" style="fill:#66933e"/></g></g></g><path d="M213.64,24.3l26.1,96.93-14.49,93.21c-61.05-15.27-104.07-69.39-96.07-120.87C135.26,54.45,168.14,27.48,213.64,24.3Z" style="fill:#86c046"/></g><rect x="411.28" y="24" width="42.38" height="33.9" style="fill:#89c247"/><rect x="411.28" y="74.85" width="42.38" height="33.9" style="fill:#165053"/><path d="M463.3,46.91V36.25h3a4.64,4.64,0,0,1,2.35.59,4.18,4.18,0,0,1,1.62,1.71,5.37,5.37,0,0,1,.58,2.54v1a5.33,5.33,0,0,1-.58,2.53,4.08,4.08,0,0,1-1.63,1.71,4.76,4.76,0,0,1-2.41.6Zm.91-9.9v9.14h2a3.5,3.5,0,0,0,2.7-1.12,4.31,4.31,0,0,0,1-3v-.94a4.22,4.22,0,0,0-1-3A3.39,3.39,0,0,0,466.3,37Z" style="fill:#444b50"/><path d="M472.87,36.7a.57.57,0,0,1,.16-.42.65.65,0,0,1,.88,0,.57.57,0,0,1,.17.42.57.57,0,0,1-.17.41.65.65,0,0,1-.88,0A.56.56,0,0,1,472.87,36.7Zm1,10.21H473V39h.88Z" style="fill:#444b50"/><path d="M481,44.9a1.25,1.25,0,0,0-.53-1,3.88,3.88,0,0,0-1.57-.62,7.28,7.28,0,0,1-1.64-.51,2.26,2.26,0,0,1-.87-.71,1.84,1.84,0,0,1-.28-1,1.87,1.87,0,0,1,.79-1.55,3.14,3.14,0,0,1,2-.61,3.28,3.28,0,0,1,2.13.65,2.09,2.09,0,0,1,.8,1.71H481a1.39,1.39,0,0,0-.58-1.15,2.29,2.29,0,0,0-1.47-.47,2.24,2.24,0,0,0-1.38.39,1.2,1.2,0,0,0-.53,1,1.1,1.1,0,0,0,.44.92,4.73,4.73,0,0,0,1.59.6,7.88,7.88,0,0,1,1.73.57,2.41,2.41,0,0,1,.85.74,2,2,0,0,1,.28,1.05,1.92,1.92,0,0,1-.81,1.61,3.47,3.47,0,0,1-2.11.6,3.59,3.59,0,0,1-2.25-.67,2.09,2.09,0,0,1-.86-1.7h.88a1.52,1.52,0,0,0,.65,1.2,2.67,2.67,0,0,0,1.58.43,2.44,2.44,0,0,0,1.47-.41A1.19,1.19,0,0,0,481,44.9Z" style="fill:#444b50"/><path d="M486.81,46.32a2.32,2.32,0,0,0,1.53-.52,1.81,1.81,0,0,0,.67-1.34h.84a2.44,2.44,0,0,1-.45,1.33,3,3,0,0,1-1.11.93,3.42,3.42,0,0,1-1.48.34A3.06,3.06,0,0,1,484.34,46a4.36,4.36,0,0,1-.92-2.91v-.27a5,5,0,0,1,.41-2.07,3.11,3.11,0,0,1,3-1.88,3.08,3.08,0,0,1,2.15.77,2.82,2.82,0,0,1,.9,2H489a2.14,2.14,0,0,0-.67-1.5,2.37,2.37,0,0,0-3.38.28,3.85,3.85,0,0,0-.66,2.4v.26a3.79,3.79,0,0,0,.66,2.37A2.2,2.2,0,0,0,486.81,46.32Z" style="fill:#444b50"/><path d="M495.27,39.73a3.83,3.83,0,0,0-.6,0,2.09,2.09,0,0,0-1.38.46,2.48,2.48,0,0,0-.81,1.33v5.44h-.88V39h.86l0,1.26a2.32,2.32,0,0,1,2.23-1.4,1.53,1.53,0,0,1,.58.09Z" style="fill:#444b50"/><path d="M499.58,47.06a3.4,3.4,0,0,1-3.1-1.89,4.36,4.36,0,0,1-.45-2v-.31a4.75,4.75,0,0,1,.44-2.06,3.56,3.56,0,0,1,1.24-1.44,3,3,0,0,1,1.71-.52,2.89,2.89,0,0,1,2.29,1,4,4,0,0,1,.84,2.69V43H496.9v.16a3.36,3.36,0,0,0,.77,2.25,2.47,2.47,0,0,0,1.95.9,2.86,2.86,0,0,0,1.24-.26,2.76,2.76,0,0,0,1-.82l.55.42A3.21,3.21,0,0,1,499.58,47.06Zm-.16-7.48a2.23,2.23,0,0,0-1.67.73,3.36,3.36,0,0,0-.82,1.95h4.75v-.1A2.89,2.89,0,0,0,501,40.3,2,2,0,0,0,499.42,39.58Z" style="fill:#444b50"/><path d="M505.62,37v2h1.64v.72h-1.64V45a1.63,1.63,0,0,0,.24,1,.92.92,0,0,0,.8.32,5.23,5.23,0,0,0,.71-.07l0,.71a2.88,2.88,0,0,1-.93.13,1.59,1.59,0,0,1-1.32-.53,2.48,2.48,0,0,1-.41-1.54V39.7h-1.45V39h1.45V37Z" style="fill:#444b50"/><path d="M509,36.7a.57.57,0,0,1,.16-.42.65.65,0,0,1,.88,0,.57.57,0,0,1,.17.42.57.57,0,0,1-.17.41.65.65,0,0,1-.88,0A.56.56,0,0,1,509,36.7Zm1,10.21h-.88V39h.88Z" style="fill:#444b50"/><path d="M512,42.83a4.75,4.75,0,0,1,.44-2.06,3.33,3.33,0,0,1,3.09-1.93A3.25,3.25,0,0,1,518.05,40a4.25,4.25,0,0,1,1,2.94v.18a4.63,4.63,0,0,1-.44,2.07,3.33,3.33,0,0,1-1.25,1.42,3.45,3.45,0,0,1-1.84.5A3.27,3.27,0,0,1,512.94,46,4.3,4.3,0,0,1,512,43Zm.88.24a3.57,3.57,0,0,0,.73,2.33,2.48,2.48,0,0,0,3.86,0,3.7,3.7,0,0,0,.73-2.4v-.17a4.07,4.07,0,0,0-.33-1.66,2.65,2.65,0,0,0-1-1.17,2.38,2.38,0,0,0-1.39-.42,2.34,2.34,0,0,0-1.91.92,3.71,3.71,0,0,0-.74,2.41Z" style="fill:#444b50"/><path d="M521.68,39l0,1.36a3.14,3.14,0,0,1,1.11-1.12,3,3,0,0,1,1.47-.38,2.39,2.39,0,0,1,1.9.72,3.26,3.26,0,0,1,.63,2.15v5.2H526V41.7a2.48,2.48,0,0,0-.45-1.58,1.77,1.77,0,0,0-1.42-.52,2.23,2.23,0,0,0-1.44.51,3.07,3.07,0,0,0-.93,1.37v5.43h-.87V39Z" style="fill:#444b50"/><path d="M534.08,46.91a4.39,4.39,0,0,1-.16-1.11,3.1,3.1,0,0,1-1.18.93,3.54,3.54,0,0,1-1.51.33,2.68,2.68,0,0,1-1.85-.64,2.09,2.09,0,0,1-.71-1.61,2.11,2.11,0,0,1,1-1.83,4.6,4.6,0,0,1,2.68-.68h1.59v-.9a1.78,1.78,0,0,0-.52-1.34,2.19,2.19,0,0,0-1.53-.48,2.36,2.36,0,0,0-1.52.47,1.38,1.38,0,0,0-.6,1.12h-.88a2.06,2.06,0,0,1,.88-1.64,3.41,3.41,0,0,1,2.16-.69,3.08,3.08,0,0,1,2.09.66,2.37,2.37,0,0,1,.79,1.85V45.1a4.66,4.66,0,0,0,.24,1.72v.09Zm-2.75-.63a2.87,2.87,0,0,0,1.57-.43,2.5,2.5,0,0,0,1-1.13V43h-1.57a3.93,3.93,0,0,0-2.05.48,1.44,1.44,0,0,0-.74,1.27,1.42,1.42,0,0,0,.5,1.11A1.86,1.86,0,0,0,531.33,46.28Z" style="fill:#444b50"/><path d="M540.78,39.73a3.7,3.7,0,0,0-.59,0,2.12,2.12,0,0,0-1.39.46,2.48,2.48,0,0,0-.81,1.33v5.44h-.87V39H538l0,1.26a2.33,2.33,0,0,1,2.23-1.4,1.5,1.5,0,0,1,.58.09Z" style="fill:#444b50"/><path d="M544.81,45.65,547.12,39h1l-3.39,9.28-.17.41a2.14,2.14,0,0,1-2,1.44,2.37,2.37,0,0,1-.67-.1v-.73l.46,0a1.63,1.63,0,0,0,1-.32,2.47,2.47,0,0,0,.68-1.1l.39-1.07-3-7.86h1Z" style="fill:#444b50"/><path d="M464.5,87.09l3.93,9.42,3.95-9.42h1.2V97.76h-.9V93.12l.07-4.77-4,9.41h-.69l-4-9.37.08,4.7v4.67h-.91V87.09Z" style="fill:#444b50"/><path d="M481.08,97.76a4.31,4.31,0,0,1-.17-1.11,3.14,3.14,0,0,1-1.17.93,3.58,3.58,0,0,1-1.52.33,2.68,2.68,0,0,1-1.85-.64,2.08,2.08,0,0,1-.7-1.61,2.12,2.12,0,0,1,1-1.83,4.62,4.62,0,0,1,2.68-.68h1.59v-.9a1.74,1.74,0,0,0-.52-1.34,2.19,2.19,0,0,0-1.53-.48,2.33,2.33,0,0,0-1.51.47,1.38,1.38,0,0,0-.6,1.12h-.88a2,2,0,0,1,.88-1.64,3.37,3.37,0,0,1,2.16-.69,3.1,3.1,0,0,1,2.09.66,2.4,2.4,0,0,1,.79,1.85V96a4.66,4.66,0,0,0,.24,1.72v.09Zm-2.75-.63a2.89,2.89,0,0,0,1.57-.43,2.48,2.48,0,0,0,1-1.13V93.83h-1.56a3.9,3.9,0,0,0-2,.48,1.48,1.48,0,0,0-.25,2.38A1.89,1.89,0,0,0,478.33,97.13Z" style="fill:#444b50"/><path d="M485,89.83l0,1.36a3.14,3.14,0,0,1,1.11-1.12,2.93,2.93,0,0,1,1.47-.38,2.39,2.39,0,0,1,1.9.72,3.26,3.26,0,0,1,.63,2.15v5.2h-.87V92.55a2.48,2.48,0,0,0-.45-1.58,1.77,1.77,0,0,0-1.42-.52,2.23,2.23,0,0,0-1.44.51,3,3,0,0,0-.93,1.37v5.43h-.87V89.83Z" style="fill:#444b50"/><path d="M492,93.72a4.77,4.77,0,0,1,.82-2.94,2.66,2.66,0,0,1,2.24-1.09A2.76,2.76,0,0,1,497.51,91V86.51h.87V97.76h-.82l0-1.06a2.83,2.83,0,0,1-2.47,1.21,2.63,2.63,0,0,1-2.21-1.11,4.76,4.76,0,0,1-.84-3Zm.89.16a4.19,4.19,0,0,0,.6,2.39,2,2,0,0,0,1.72.87,2.36,2.36,0,0,0,2.3-1.42V92a2.34,2.34,0,0,0-2.29-1.55,2,2,0,0,0-1.72.87A4.42,4.42,0,0,0,492.89,93.88Z" style="fill:#444b50"/><path d="M505.69,97.76a3.91,3.91,0,0,1-.17-1.11,3.1,3.1,0,0,1-1.18.93,3.51,3.51,0,0,1-1.51.33,2.68,2.68,0,0,1-1.85-.64,2.08,2.08,0,0,1-.7-1.61,2.12,2.12,0,0,1,1-1.83,4.62,4.62,0,0,1,2.68-.68h1.59v-.9a1.74,1.74,0,0,0-.52-1.34,2.19,2.19,0,0,0-1.53-.48,2.33,2.33,0,0,0-1.51.47,1.38,1.38,0,0,0-.6,1.12h-.88a2,2,0,0,1,.88-1.64,3.37,3.37,0,0,1,2.16-.69,3.1,3.1,0,0,1,2.09.66,2.36,2.36,0,0,1,.78,1.85V96a4.62,4.62,0,0,0,.25,1.72v.09Zm-2.75-.63a2.92,2.92,0,0,0,1.57-.43,2.48,2.48,0,0,0,1-1.13V93.83H504a3.9,3.9,0,0,0-2.05.48,1.48,1.48,0,0,0-.25,2.38A1.89,1.89,0,0,0,502.94,97.13Z" style="fill:#444b50"/><path d="M510.08,87.81v2h1.64v.72h-1.64v5.29a1.63,1.63,0,0,0,.24,1,.92.92,0,0,0,.8.32,5.23,5.23,0,0,0,.71-.07l0,.71a2.88,2.88,0,0,1-.93.13,1.56,1.56,0,0,1-1.31-.53,2.42,2.42,0,0,1-.41-1.54V90.55h-1.46v-.72h1.46v-2Z" style="fill:#444b50"/><path d="M512.91,93.68a4.75,4.75,0,0,1,.44-2.06,3.42,3.42,0,0,1,1.26-1.42,3.36,3.36,0,0,1,1.83-.51A3.24,3.24,0,0,1,519,90.8a4.25,4.25,0,0,1,1,2.94v.18a4.63,4.63,0,0,1-.45,2.07,3.27,3.27,0,0,1-1.25,1.42,3.42,3.42,0,0,1-1.83.5,3.25,3.25,0,0,1-2.56-1.11,4.26,4.26,0,0,1-1-3Zm.88.24a3.57,3.57,0,0,0,.74,2.33,2.47,2.47,0,0,0,3.85,0,3.7,3.7,0,0,0,.73-2.4v-.17a4.07,4.07,0,0,0-.33-1.66,2.65,2.65,0,0,0-.95-1.17,2.38,2.38,0,0,0-1.39-.42,2.34,2.34,0,0,0-1.91.92,3.77,3.77,0,0,0-.74,2.41Z" style="fill:#444b50"/><path d="M525.46,90.58a3.83,3.83,0,0,0-.6,0,2.09,2.09,0,0,0-1.38.46,2.48,2.48,0,0,0-.81,1.33v5.44h-.88V89.83h.86l0,1.26a2.33,2.33,0,0,1,2.23-1.4,1.53,1.53,0,0,1,.58.09Z" style="fill:#444b50"/><path d="M529.49,96.5l2.31-6.67h1l-3.39,9.28-.17.41a2.14,2.14,0,0,1-2,1.44,2.79,2.79,0,0,1-.67-.1v-.73l.45.05a1.66,1.66,0,0,0,1-.32,2.57,2.57,0,0,0,.68-1.1l.38-1.07-3-7.86H527Z" style="fill:#444b50"/><path d="M426.27,43.11h1.33v1.43h-1.33v2.37h-1.78V44.54h-4.61l-.05-1.09,4.6-7.2h1.84Zm-4.57,0h2.79V38.65l-.13.24Z" style="fill:#151718"/><path d="M434.8,43.11h1.32v1.43H434.8v2.37H433V44.54h-4.61l-.05-1.09,4.6-7.2h1.84Zm-4.57,0H433V38.65l-.14.24Z" style="fill:#151718"/><path d="M437.23,38.3a2.16,2.16,0,0,1,.62-1.59,2.48,2.48,0,0,1,3.28,0,2.19,2.19,0,0,1,.62,1.62v.53a2.12,2.12,0,0,1-.62,1.57,2.22,2.22,0,0,1-1.63.62,2.29,2.29,0,0,1-1.63-.6,2.14,2.14,0,0,1-.64-1.63Zm1.24.56a1.23,1.23,0,0,0,.28.82,1,1,0,0,0,.75.31,1,1,0,0,0,.73-.31,1.21,1.21,0,0,0,.28-.85v-.54a1.17,1.17,0,0,0-.28-.82,1,1,0,0,0-.75-.32.93.93,0,0,0-.73.32,1.24,1.24,0,0,0-.28.84Zm1.39,7.25-.91-.53,5.21-8.33.91.53Zm2.49-1.82a2.09,2.09,0,0,1,.64-1.58,2.48,2.48,0,0,1,3.26,0,2.16,2.16,0,0,1,.63,1.64v.52a2.15,2.15,0,0,1-.61,1.57,2.21,2.21,0,0,1-1.64.62,2.26,2.26,0,0,1-1.65-.62,2.12,2.12,0,0,1-.63-1.61Zm1.25.57a1.16,1.16,0,0,0,.29.81,1,1,0,0,0,1.48,0,1.24,1.24,0,0,0,.27-.85v-.55a1.16,1.16,0,0,0-.29-.82.93.93,0,0,0-.73-.31,1,1,0,0,0-.74.31,1.19,1.19,0,0,0-.28.85Z" style="fill:#151718"/><path d="M420.73,91.62l.58-5.37H427v1.53h-4.25l-.29,2.55a3.31,3.31,0,0,1,1.67-.42,3,3,0,0,1,2.37,1,3.87,3.87,0,0,1,.85,2.62,3.56,3.56,0,0,1-.94,2.59,3.44,3.44,0,0,1-2.57,1,3.56,3.56,0,0,1-2.43-.84,3,3,0,0,1-1-2.19h1.72a1.88,1.88,0,0,0,.55,1.19,1.69,1.69,0,0,0,1.19.41,1.53,1.53,0,0,0,1.28-.58,2.56,2.56,0,0,0,.46-1.6,2.22,2.22,0,0,0-.51-1.54,1.77,1.77,0,0,0-1.39-.57,2.43,2.43,0,0,0-.82.13,2.38,2.38,0,0,0-.73.5Z" style="fill:#fff"/><path d="M434.31,86.19v1.48h-.22a3.23,3.23,0,0,0-3.45,3.08,2.89,2.89,0,0,1,2.19-.9,2.72,2.72,0,0,1,2.23,1,3.93,3.93,0,0,1,.82,2.58,3.66,3.66,0,0,1-1,2.63,3.28,3.28,0,0,1-2.5,1,3.23,3.23,0,0,1-2.59-1.18,4.66,4.66,0,0,1-1-3.09v-.61a6.55,6.55,0,0,1,1.37-4.4,4.9,4.9,0,0,1,3.93-1.59Zm-1.91,5.09a1.85,1.85,0,0,0-1.07.33,2,2,0,0,0-.72.88V93a3.21,3.21,0,0,0,.5,1.89,1.58,1.58,0,0,0,2.54.11,2.48,2.48,0,0,0,.47-1.56,2.54,2.54,0,0,0-.47-1.58A1.53,1.53,0,0,0,432.4,91.28Z" style="fill:#fff"/><path d="M437.23,88.3a2.16,2.16,0,0,1,.62-1.59,2.48,2.48,0,0,1,3.28,0,2.19,2.19,0,0,1,.62,1.62v.53a2.12,2.12,0,0,1-.62,1.57,2.22,2.22,0,0,1-1.63.62,2.29,2.29,0,0,1-1.63-.6,2.14,2.14,0,0,1-.64-1.63Zm1.24.56a1.23,1.23,0,0,0,.28.82,1,1,0,0,0,.75.31,1,1,0,0,0,.73-.31,1.21,1.21,0,0,0,.28-.85v-.54a1.17,1.17,0,0,0-.28-.82,1,1,0,0,0-.75-.32.93.93,0,0,0-.73.32,1.24,1.24,0,0,0-.28.84Zm1.39,7.25-.91-.53,5.21-8.33.91.53Zm2.49-1.82a2.09,2.09,0,0,1,.64-1.58,2.48,2.48,0,0,1,3.26,0,2.16,2.16,0,0,1,.63,1.64v.52a2.15,2.15,0,0,1-.61,1.57,2.21,2.21,0,0,1-1.64.62,2.26,2.26,0,0,1-1.65-.62,2.12,2.12,0,0,1-.63-1.61Zm1.25.57a1.16,1.16,0,0,0,.29.81,1,1,0,0,0,1.48,0,1.24,1.24,0,0,0,.27-.85v-.55a1.16,1.16,0,0,0-.29-.82.93.93,0,0,0-.73-.31,1,1,0,0,0-.74.31,1.19,1.19,0,0,0-.28.85Z" style="fill:#fff"/></svg>