<svg xmlns="http://www.w3.org/2000/svg" xmlns:xlink="http://www.w3.org/1999/xlink" viewBox="0 0 579 436"><defs><clipPath id="clip-path"><path d="M372.05,285.78l-12.12,26.66c-16.06,35.31-52.87,60.39-101.4,63.79-18.54,1.29-33.45-.07-52.37-4.81l12.12-26.66c18.92,4.73,33.84,6.1,52.37,4.81C319.18,346.17,356,321.09,372.05,285.78Z" style="fill:none"/></clipPath><clipPath id="clip-path-2"><path d="M90,189l12.13-26.66a101.24,101.24,0,0,0-7.84,26.42c-10.32,66.43,45.19,136.26,124,156l-12.12,26.66c-78.79-19.71-134.29-89.54-124-156A101.24,101.24,0,0,1,90,189Z" style="fill:none"/></clipPath></defs><title>chart-budget-request</title><g id="Layer_1" data-name="Layer 1"><ellipse cx="241.6" cy="356.06" rx="173.54" ry="34.3" style="fill:#0a0a0a;opacity:0"/><ellipse cx="241.6" cy="356.06" rx="170.63" ry="33.8" style="fill:#0a0a0a;opacity:0.018181818723679"/><ellipse cx="241.6" cy="356.06" rx="167.72" ry="33.3" style="fill:#0a0a0a;opacity:0.036363636851311"/><ellipse cx="241.6" cy="356.06" rx="164.8" ry="32.81" style="fill:#0a0a0a;opacity:0.054545454978943"/><ellipse cx="241.6" cy="356.06" rx="161.89" ry="32.31" style="fill:#0a0a0a;opacity:0.072727273106575"/><ellipse cx="241.6" cy="356.06" rx="158.98" ry="31.81" style="fill:#0a0a0a;opacity:0.090909091234207"/><ellipse cx="241.6" cy="356.06" rx="156.07" ry="31.32" style="fill:#0a0a0a;opacity:0.109090909361839"/><ellipse cx="241.6" cy="356.06" rx="153.16" ry="30.82" style="fill:#0a0a0a;opacity:0.127272727489472"/><ellipse cx="241.6" cy="356.06" rx="150.25" ry="30.32" style="fill:#0a0a0a;opacity:0.145454545617104"/><ellipse cx="241.6" cy="356.06" rx="147.33" ry="29.83" style="fill:#0a0a0a;opacity:0.163636363744736"/><ellipse cx="241.6" cy="356.06" rx="144.42" ry="29.33" style="fill:#0a0a0a;opacity:0.181818181872368"/><ellipse cx="241.6" cy="356.06" rx="141.51" ry="28.83" style="fill:#0a0a0a;opacity:0.2"/><ellipse cx="241.6" cy="356.06" rx="138.6" ry="28.33" style="fill:#0a0a0a;opacity:0.218181818127632"/><ellipse cx="241.6" cy="356.06" rx="135.69" ry="27.84" style="fill:#0a0a0a;opacity:0.236363636255264"/><ellipse cx="241.6" cy="356.06" rx="132.77" ry="27.34" style="fill:#0a0a0a;opacity:0.254545454382897"/><ellipse cx="241.6" cy="356.06" rx="129.86" ry="26.84" style="fill:#0a0a0a;opacity:0.272727272510529"/><ellipse cx="241.6" cy="356.06" rx="126.95" ry="26.35" style="fill:#0a0a0a;opacity:0.290909090638161"/><ellipse cx="241.6" cy="356.06" rx="124.04" ry="25.85" style="fill:#0a0a0a;opacity:0.309090908765793"/><ellipse cx="241.6" cy="356.06" rx="121.13" ry="25.35" style="fill:#0a0a0a;opacity:0.327272726893425"/><ellipse cx="241.6" cy="356.06" rx="118.22" ry="24.86" style="fill:#0a0a0a;opacity:0.345454545021057"/><ellipse cx="241.6" cy="356.06" rx="115.3" ry="24.36" style="fill:#0a0a0a;opacity:0.363636363148689"/><ellipse cx="241.6" cy="356.06" rx="112.39" ry="23.86" style="fill:#0a0a0a;opacity:0.381818181276321"/><ellipse cx="241.6" cy="356.06" rx="109.48" ry="23.37" style="fill:#0a0a0a;opacity:0.4"/><ellipse cx="241.6" cy="356.36" rx="106.64" ry="22.76" style="fill:#0a0a0a;opacity:0.430769231915474"/><ellipse cx="241.6" cy="356.66" rx="103.8" ry="22.15" style="fill:#0a0a0a;opacity:0.461538462476297"/><ellipse cx="241.6" cy="356.96" rx="100.95" ry="21.55" style="fill:#0a0a0a;opacity:0.49230769303712"/><ellipse cx="241.6" cy="357.26" rx="98.11" ry="20.94" style="fill:#0a0a0a;opacity:0.523076923597943"/><ellipse cx="241.6" cy="357.56" rx="95.27" ry="20.33" style="fill:#0a0a0a;opacity:0.553846154158766"/><ellipse cx="241.6" cy="357.86" rx="92.43" ry="19.73" style="fill:#0a0a0a;opacity:0.584615384719589"/><ellipse cx="241.6" cy="358.16" rx="89.58" ry="19.12" style="fill:#0a0a0a;opacity:0.615384615280412"/><ellipse cx="241.6" cy="358.45" rx="86.74" ry="18.51" style="fill:#0a0a0a;opacity:0.646153845841234"/><ellipse cx="241.6" cy="358.75" rx="83.9" ry="17.91" style="fill:#0a0a0a;opacity:0.676923076402057"/><ellipse cx="241.6" cy="359.05" rx="81.06" ry="17.3" style="fill:#0a0a0a;opacity:0.70769230696288"/><ellipse cx="241.6" cy="359.35" rx="78.21" ry="16.69" style="fill:#0a0a0a;opacity:0.738461537523703"/><ellipse cx="241.6" cy="359.65" rx="75.37" ry="16.09" style="fill:#0a0a0a;opacity:0.769230768084526"/><ellipse cx="241.6" cy="359.95" rx="72.53" ry="15.48" style="fill:#0a0a0a;opacity:0.8"/><g style="isolation:isolate"><polygon points="236.98 224.48 224.86 251.15 191.18 126.06 203.3 99.4 236.98 224.48" style="fill:#0f3b3e"/><g style="isolation:isolate"><g style="clip-path:url(#clip-path)"><g style="isolation:isolate"><path d="M372.05,285.78l-12.12,26.66c-.87,1.9-1.79,3.77-2.78,5.62l12.12-26.67c1-1.84,1.91-3.71,2.78-5.61" style="fill:#0f3c3f"/><path d="M369.27,291.39l-12.12,26.67a100.89,100.89,0,0,1-19.61,25.61L349.67,317a101,101,0,0,0,19.6-25.62" style="fill:#0f3c3f"/><path d="M349.67,317l-12.13,26.66a116.13,116.13,0,0,1-43,25.47l12.12-26.67a116.29,116.29,0,0,0,43-25.46" style="fill:#0f3d3f"/><path d="M306.71,342.47l-12.12,26.67A143.36,143.36,0,0,1,259,376.2l12.12-26.67a142.73,142.73,0,0,0,35.6-7.06" style="fill:#0f3c3f"/><path d="M271.11,349.53,259,376.2l-.46,0a159.66,159.66,0,0,1-25.25-.07l12.12-26.67a159.64,159.64,0,0,0,25.25.08l.46,0" style="fill:#0f3c3f"/><path d="M245.4,349.49l-12.12,26.67a163.14,163.14,0,0,1-22.05-3.53L223.35,346a161.5,161.5,0,0,0,22.05,3.52" style="fill:#0f3c3e"/><path d="M223.35,346l-12.12,26.66c-1.66-.37-3.35-.78-5.07-1.21l12.12-26.66q2.58.64,5.07,1.21" style="fill:#0f3c3e"/></g></g></g><path d="M203.3,99.4c77.26-5.4,155,46.22,173.57,115.3s-29,129.46-106.22,134.87c-18.53,1.29-33.45-.08-52.37-4.81L237,224.48Z" style="fill:#144e51"/><polygon points="218.28 344.76 206.16 371.42 224.86 251.15 236.98 224.48 218.28 344.76" style="fill:#0f3b3e"/><g style="isolation:isolate"><g style="clip-path:url(#clip-path-2)"><g style="isolation:isolate"><path d="M218.28,344.76l-12.12,26.66a183.72,183.72,0,0,1-19.49-6.05l12.12-26.66a183.72,183.72,0,0,0,19.49,6.05" style="fill:#679337"/><path d="M198.79,338.71l-12.12,26.66a180.84,180.84,0,0,1-25.32-11.74L173.47,327a180.84,180.84,0,0,0,25.32,11.74" style="fill:#679236"/><path d="M173.47,327l-12.12,26.66C107.52,323.46,74,268.37,82.18,215.45A101.24,101.24,0,0,1,90,189l12.13-26.66a101.24,101.24,0,0,0-7.84,26.42c-8.22,52.92,25.33,108,79.16,138.18" style="fill:#669236"/></g></g></g><path d="M203.3,99.4,237,224.48l-18.7,120.28c-78.78-19.71-134.29-89.54-124-156C102.16,138.3,144.58,103.51,203.3,99.4Z" style="fill:#86c047"/></g></g><g id="Layer_2" data-name="Layer 2"><rect x="407.16" y="61.49" width="42.38" height="33.9" style="fill:#88c248"/><rect x="407.16" y="112.34" width="42.38" height="33.9" style="fill:#144f52"/><path d="M459.18,84.4V73.73h3a4.62,4.62,0,0,1,2.35.6A4.12,4.12,0,0,1,466.13,76a5.36,5.36,0,0,1,.58,2.53v1a5.46,5.46,0,0,1-.57,2.54,4.11,4.11,0,0,1-1.63,1.7,4.8,4.8,0,0,1-2.42.61Zm.9-9.91v9.14h2a3.48,3.48,0,0,0,2.7-1.11,4.34,4.34,0,0,0,1-3v-.94a4.19,4.19,0,0,0-1-2.94,3.44,3.44,0,0,0-2.65-1.12Z" style="fill:#434a4f"/><path d="M468.74,74.18a.61.61,0,0,1,.17-.42.56.56,0,0,1,.43-.17.61.61,0,0,1,.45.17.6.6,0,0,1,.16.42.58.58,0,0,1-.16.42.61.61,0,0,1-.45.16.56.56,0,0,1-.43-.16A.59.59,0,0,1,468.74,74.18Zm1,10.22h-.88V76.47h.88Z" style="fill:#434a4f"/><path d="M476.9,82.38a1.26,1.26,0,0,0-.52-1,4.15,4.15,0,0,0-1.58-.62,6.52,6.52,0,0,1-1.64-.51,2.28,2.28,0,0,1-.86-.7,1.77,1.77,0,0,1-.28-1,1.87,1.87,0,0,1,.78-1.54,3.15,3.15,0,0,1,2-.62,3.27,3.27,0,0,1,2.13.66,2.12,2.12,0,0,1,.8,1.71h-.88a1.43,1.43,0,0,0-.58-1.16,2.62,2.62,0,0,0-2.86-.07,1.16,1.16,0,0,0-.52,1,1.06,1.06,0,0,0,.43.91,4.52,4.52,0,0,0,1.59.6,7.15,7.15,0,0,1,1.73.58,2.15,2.15,0,0,1,.85.74,2,2,0,0,1-.53,2.65,3.45,3.45,0,0,1-2.11.6,3.51,3.51,0,0,1-2.24-.67,2.05,2.05,0,0,1-.87-1.69h.88a1.52,1.52,0,0,0,.65,1.19,2.64,2.64,0,0,0,1.58.43,2.49,2.49,0,0,0,1.48-.4A1.22,1.22,0,0,0,476.9,82.38Z" style="fill:#434a4f"/><path d="M482.68,83.8a2.36,2.36,0,0,0,1.54-.51,1.86,1.86,0,0,0,.67-1.34h.84a2.53,2.53,0,0,1-.46,1.32,2.71,2.71,0,0,1-1.1.93,3.32,3.32,0,0,1-1.49.34,3.07,3.07,0,0,1-2.47-1.08,4.4,4.4,0,0,1-.91-2.92v-.26a4.84,4.84,0,0,1,.41-2.07,3.17,3.17,0,0,1,1.17-1.4,3.31,3.31,0,0,1,1.79-.49,3,3,0,0,1,2.15.78,2.82,2.82,0,0,1,.91,2h-.84a2.28,2.28,0,0,0-4.06-1.21,3.91,3.91,0,0,0-.65,2.4v.26a3.81,3.81,0,0,0,.65,2.36A2.2,2.2,0,0,0,482.68,83.8Z" style="fill:#434a4f"/><path d="M491.14,77.22a2.76,2.76,0,0,0-.59,0,2.17,2.17,0,0,0-1.39.45,2.52,2.52,0,0,0-.81,1.33V84.4h-.87V76.47h.86v1.26a2.33,2.33,0,0,1,2.23-1.41,1.48,1.48,0,0,1,.58.1Z" style="fill:#434a4f"/><path d="M495.46,84.54a3.41,3.41,0,0,1-3.1-1.88,4.27,4.27,0,0,1-.46-2v-.32a4.57,4.57,0,0,1,.45-2,3.47,3.47,0,0,1,1.23-1.44,3.05,3.05,0,0,1,1.71-.53,2.84,2.84,0,0,1,2.29,1,4,4,0,0,1,.85,2.69v.49h-5.66v.17a3.27,3.27,0,0,0,.78,2.24,2.44,2.44,0,0,0,1.94.9,2.83,2.83,0,0,0,1.24-.25,2.89,2.89,0,0,0,1-.82l.55.41A3.17,3.17,0,0,1,495.46,84.54Zm-.17-7.47a2.16,2.16,0,0,0-1.66.73,3.36,3.36,0,0,0-.83,1.94h4.76v-.09a3,3,0,0,0-.65-1.86A2,2,0,0,0,495.29,77.07Z" style="fill:#434a4f"/><path d="M501.5,74.44v2h1.64v.72H501.5v5.28a1.68,1.68,0,0,0,.24,1,.92.92,0,0,0,.79.32,5.09,5.09,0,0,0,.71-.07l0,.71a2.94,2.94,0,0,1-.94.12A1.55,1.55,0,0,1,501,84a2.5,2.5,0,0,1-.41-1.54V77.19h-1.46v-.72h1.46v-2Z" style="fill:#434a4f"/><path d="M504.9,74.18a.65.65,0,0,1,.16-.42.6.6,0,0,1,.44-.17.61.61,0,0,1,.45.17.6.6,0,0,1,.16.42.58.58,0,0,1-.16.42.61.61,0,0,1-.45.16.6.6,0,0,1-.44-.16A.63.63,0,0,1,504.9,74.18Zm1,10.22h-.88V76.47h.88Z" style="fill:#434a4f"/><path d="M507.83,80.32a4.59,4.59,0,0,1,.45-2.06,3.32,3.32,0,0,1,3.08-1.94,3.27,3.27,0,0,1,2.57,1.11,4.3,4.3,0,0,1,1,2.94v.19a4.69,4.69,0,0,1-.45,2.07A3.29,3.29,0,0,1,513.22,84a3.37,3.37,0,0,1-1.84.5,3.25,3.25,0,0,1-2.56-1.11,4.25,4.25,0,0,1-1-2.94Zm.88.24a3.61,3.61,0,0,0,.74,2.33,2.49,2.49,0,0,0,3.85,0,3.73,3.73,0,0,0,.74-2.41v-.16a4.15,4.15,0,0,0-.34-1.67,2.7,2.7,0,0,0-1-1.17,2.42,2.42,0,0,0-1.39-.41,2.36,2.36,0,0,0-1.91.92,3.73,3.73,0,0,0-.74,2.41Z" style="fill:#434a4f"/><path d="M517.55,76.47l0,1.36a3.08,3.08,0,0,1,1.12-1.12,2.84,2.84,0,0,1,1.47-.39,2.35,2.35,0,0,1,1.89.72,3.19,3.19,0,0,1,.63,2.15V84.4h-.87V79.19a2.35,2.35,0,0,0-.45-1.58,1.74,1.74,0,0,0-1.41-.52,2.23,2.23,0,0,0-1.44.5,3,3,0,0,0-.93,1.38V84.4h-.87V76.47Z" style="fill:#434a4f"/><path d="M530,84.4a4.31,4.31,0,0,1-.17-1.11,3.14,3.14,0,0,1-1.17.93,3.73,3.73,0,0,1-1.52.32,2.64,2.64,0,0,1-1.85-.64,2.06,2.06,0,0,1-.7-1.61,2.12,2.12,0,0,1,1-1.83,4.62,4.62,0,0,1,2.68-.67h1.59v-.9a1.74,1.74,0,0,0-.52-1.34,2.2,2.2,0,0,0-1.53-.49,2.39,2.39,0,0,0-1.51.47,1.39,1.39,0,0,0-.6,1.13h-.88a2,2,0,0,1,.88-1.63,3.32,3.32,0,0,1,2.16-.7,3.05,3.05,0,0,1,2.09.67,2.38,2.38,0,0,1,.79,1.85v3.75a4.69,4.69,0,0,0,.24,1.72v.09Zm-2.75-.63a3,3,0,0,0,1.57-.43,2.48,2.48,0,0,0,1-1.13V80.46h-1.56a3.9,3.9,0,0,0-2.05.48,1.49,1.49,0,0,0-.25,2.39A1.89,1.89,0,0,0,527.21,83.77Z" style="fill:#434a4f"/><path d="M536.65,77.22a2.76,2.76,0,0,0-.59,0,2.17,2.17,0,0,0-1.39.45,2.52,2.52,0,0,0-.81,1.33V84.4H533V76.47h.86v1.26a2.34,2.34,0,0,1,2.24-1.41,1.55,1.55,0,0,1,.58.1Z" style="fill:#434a4f"/><path d="M540.68,83.14,543,76.47h.94l-3.38,9.27-.18.41a2.13,2.13,0,0,1-2,1.45,2.47,2.47,0,0,1-.68-.11v-.72l.45,0a1.56,1.56,0,0,0,1-.32,2.3,2.3,0,0,0,.68-1.09l.39-1.07-3-7.86h1Z" style="fill:#434a4f"/><path d="M460.37,124.58l3.94,9.41,3.94-9.41h1.2v10.66h-.9V130.6l.08-4.76-4,9.4H464L460,125.88l.07,4.69v4.67h-.9V124.58Z" style="fill:#434a4f"/><path d="M477,135.24a4.23,4.23,0,0,1-.16-1.1,3,3,0,0,1-1.18.92,3.57,3.57,0,0,1-1.51.33,2.64,2.64,0,0,1-1.85-.64,2.07,2.07,0,0,1-.71-1.61,2.12,2.12,0,0,1,1-1.83,4.65,4.65,0,0,1,2.69-.67h1.59v-.9a1.75,1.75,0,0,0-.53-1.34,2.15,2.15,0,0,0-1.52-.49,2.42,2.42,0,0,0-1.52.47,1.39,1.39,0,0,0-.6,1.13h-.88a2,2,0,0,1,.88-1.63,3.35,3.35,0,0,1,2.16-.7,3,3,0,0,1,2.09.67,2.37,2.37,0,0,1,.79,1.85v3.75a4.69,4.69,0,0,0,.24,1.72v.08Zm-2.75-.63a3,3,0,0,0,1.57-.42,2.5,2.5,0,0,0,1-1.13v-1.75h-1.57a3.93,3.93,0,0,0-2,.48,1.48,1.48,0,0,0-.24,2.39A1.85,1.85,0,0,0,474.2,134.61Z" style="fill:#434a4f"/><path d="M480.82,127.32l0,1.35a3.19,3.19,0,0,1,1.11-1.11,2.9,2.9,0,0,1,1.48-.39,2.35,2.35,0,0,1,1.89.72A3.19,3.19,0,0,1,486,130v5.2h-.87V130a2.35,2.35,0,0,0-.45-1.58,1.75,1.75,0,0,0-1.42-.52,2.22,2.22,0,0,0-1.44.5,3,3,0,0,0-.92,1.38v5.42H480v-7.92Z" style="fill:#434a4f"/><path d="M487.88,131.21a4.77,4.77,0,0,1,.82-2.94,2.65,2.65,0,0,1,2.24-1.1,2.76,2.76,0,0,1,2.44,1.27V124h.87v11.25h-.82l0-1.05a2.84,2.84,0,0,1-2.48,1.2,2.66,2.66,0,0,1-2.21-1.1,4.81,4.81,0,0,1-.83-3Zm.88.15a4.09,4.09,0,0,0,.61,2.39,2,2,0,0,0,1.71.88,2.36,2.36,0,0,0,2.3-1.43v-3.72a2.33,2.33,0,0,0-2.28-1.54,2,2,0,0,0-1.72.86A4.41,4.41,0,0,0,488.76,131.36Z" style="fill:#434a4f"/><path d="M501.56,135.24a4.23,4.23,0,0,1-.16-1.1,3,3,0,0,1-1.18.92,3.57,3.57,0,0,1-1.51.33,2.64,2.64,0,0,1-1.85-.64,2.07,2.07,0,0,1-.71-1.61,2.12,2.12,0,0,1,1-1.83,4.65,4.65,0,0,1,2.69-.67h1.59v-.9a1.75,1.75,0,0,0-.53-1.34,2.17,2.17,0,0,0-1.52-.49,2.42,2.42,0,0,0-1.52.47,1.39,1.39,0,0,0-.6,1.13h-.88a2,2,0,0,1,.88-1.63,3.35,3.35,0,0,1,2.16-.7,3.05,3.05,0,0,1,2.09.67,2.37,2.37,0,0,1,.79,1.85v3.75a4.69,4.69,0,0,0,.24,1.72v.08Zm-2.75-.63a3,3,0,0,0,1.57-.42,2.5,2.5,0,0,0,1-1.13v-1.75h-1.57a3.93,3.93,0,0,0-2.05.48,1.45,1.45,0,0,0-.74,1.28,1.47,1.47,0,0,0,.49,1.11A1.88,1.88,0,0,0,498.81,134.61Z" style="fill:#434a4f"/><path d="M506,125.29v2h1.64V128H506v5.28a1.68,1.68,0,0,0,.24,1,.92.92,0,0,0,.79.32c.15,0,.38,0,.71-.07l0,.71a2.94,2.94,0,0,1-.94.12,1.55,1.55,0,0,1-1.31-.52,2.5,2.5,0,0,1-.41-1.54V128h-1.46v-.72h1.46v-2Z" style="fill:#434a4f"/><path d="M508.79,131.16a4.57,4.57,0,0,1,.44-2,3.32,3.32,0,0,1,3.09-1.94,3.27,3.27,0,0,1,2.56,1.11,4.3,4.3,0,0,1,1,2.94v.19a4.83,4.83,0,0,1-.44,2.07,3.31,3.31,0,0,1-1.25,1.41,3.37,3.37,0,0,1-1.84.5,3.27,3.27,0,0,1-2.56-1.11,4.25,4.25,0,0,1-1-2.94Zm.87.25a3.61,3.61,0,0,0,.74,2.33,2.49,2.49,0,0,0,3.85,0,3.73,3.73,0,0,0,.74-2.41v-.17a4,4,0,0,0-.34-1.66,2.75,2.75,0,0,0-.94-1.17,2.47,2.47,0,0,0-1.39-.41,2.36,2.36,0,0,0-1.92.92,3.73,3.73,0,0,0-.74,2.41Z" style="fill:#434a4f"/><path d="M521.33,128.07a2.76,2.76,0,0,0-.59,0,2.17,2.17,0,0,0-1.39.45,2.52,2.52,0,0,0-.81,1.33v5.44h-.87v-7.92h.86v1.26a2.33,2.33,0,0,1,2.24-1.41,1.46,1.46,0,0,1,.57.1Z" style="fill:#434a4f"/><path d="M525.36,134l2.31-6.66h1l-3.38,9.27-.18.41a2.14,2.14,0,0,1-2,1.45,2.47,2.47,0,0,1-.68-.11v-.72l.46,0a1.56,1.56,0,0,0,1-.32,2.38,2.38,0,0,0,.68-1.09l.39-1.07-3-7.86h1Z" style="fill:#434a4f"/><path d="M422.56,79.59h1.33V81h-1.33V83.4h-1.77V81h-4.61l-.05-1.08,4.6-7.21h1.83Zm-4.57,0h2.8V75.14l-.14.24Z" style="fill:#141718"/><path d="M431.09,79.59h1.33V81h-1.33V83.4h-1.78V81H424.7l-.05-1.08,4.6-7.21h1.84Zm-4.57,0h2.79V75.14l-.13.24Z" style="fill:#141718"/><path d="M433.52,74.78a2.15,2.15,0,0,1,.62-1.58,2.26,2.26,0,0,1,3.9,1.62v.53a2.12,2.12,0,0,1-.62,1.57,2.2,2.2,0,0,1-1.63.62,2.3,2.3,0,0,1-1.63-.61,2.15,2.15,0,0,1-.64-1.63Zm1.25.56a1.17,1.17,0,0,0,.28.82.94.94,0,0,0,.74.31.92.92,0,0,0,.73-.31,1.21,1.21,0,0,0,.28-.85v-.53a1.17,1.17,0,0,0-.28-.82A1,1,0,0,0,435,74a1.25,1.25,0,0,0-.27.84Zm1.39,7.26-.92-.53,5.21-8.34.92.53Zm2.49-1.82a2.09,2.09,0,0,1,.64-1.59,2.47,2.47,0,0,1,3.25,0,2.18,2.18,0,0,1,.63,1.64v.52a2.12,2.12,0,0,1-.61,1.57,2.15,2.15,0,0,1-1.63.62,2.23,2.23,0,0,1-1.65-.61,2.16,2.16,0,0,1-.63-1.62Zm1.24.56a1.17,1.17,0,0,0,.29.82,1,1,0,0,0,.75.32.93.93,0,0,0,.73-.3,1.27,1.27,0,0,0,.27-.86v-.55a1.17,1.17,0,0,0-.29-.82,1,1,0,0,0-.73-.3.94.94,0,0,0-.73.3,1.22,1.22,0,0,0-.29.85Z" style="fill:#141718"/><path d="M417,129.11l.58-5.38h5.73v1.54h-4.25l-.29,2.55a3.2,3.2,0,0,1,1.67-.43,3,3,0,0,1,2.37,1,3.87,3.87,0,0,1,.84,2.62,3.54,3.54,0,0,1-.94,2.59,3.42,3.42,0,0,1-2.57,1,3.64,3.64,0,0,1-2.43-.83,3,3,0,0,1-1-2.19h1.72a1.93,1.93,0,0,0,.56,1.19,1.72,1.72,0,0,0,1.19.41,1.5,1.5,0,0,0,1.27-.59,2.49,2.49,0,0,0,.46-1.59,2.25,2.25,0,0,0-.5-1.54,1.79,1.79,0,0,0-1.4-.57,2.24,2.24,0,0,0-.82.13,2.32,2.32,0,0,0-.73.5Z" style="fill:#fff"/><path d="M430.61,123.68v1.47h-.22A3.56,3.56,0,0,0,428,126a3.4,3.4,0,0,0-1.06,2.26,2.92,2.92,0,0,1,2.19-.9,2.75,2.75,0,0,1,2.23,1,3.93,3.93,0,0,1,.81,2.57,3.65,3.65,0,0,1-.95,2.63,3.27,3.27,0,0,1-2.51,1,3.22,3.22,0,0,1-2.59-1.18,4.62,4.62,0,0,1-1-3.09v-.61a6.52,6.52,0,0,1,1.36-4.39,4.9,4.9,0,0,1,3.93-1.59Zm-1.91,5.09a1.88,1.88,0,0,0-1.08.33,1.92,1.92,0,0,0-.71.88v.54a3.16,3.16,0,0,0,.5,1.89,1.53,1.53,0,0,0,1.29.7,1.5,1.5,0,0,0,1.25-.6,2.87,2.87,0,0,0,0-3.13A1.48,1.48,0,0,0,428.7,128.77Z" style="fill:#fff"/><path d="M433.52,125.78a2.15,2.15,0,0,1,.62-1.58,2.26,2.26,0,0,1,3.9,1.62v.53a2.12,2.12,0,0,1-.62,1.57,2.2,2.2,0,0,1-1.63.62,2.3,2.3,0,0,1-1.63-.61,2.15,2.15,0,0,1-.64-1.63Zm1.25.56a1.17,1.17,0,0,0,.28.82.94.94,0,0,0,.74.31.92.92,0,0,0,.73-.31,1.21,1.21,0,0,0,.28-.85v-.53a1.21,1.21,0,0,0-.28-.83,1,1,0,0,0-.74-.31.93.93,0,0,0-.74.32,1.25,1.25,0,0,0-.27.84Zm1.39,7.26-.92-.53,5.21-8.34.92.53Zm2.49-1.82a2.09,2.09,0,0,1,.64-1.59,2.47,2.47,0,0,1,3.25,0,2.18,2.18,0,0,1,.63,1.64v.52a2.12,2.12,0,0,1-.61,1.57,2.15,2.15,0,0,1-1.63.62,2.23,2.23,0,0,1-1.65-.61,2.16,2.16,0,0,1-.63-1.62Zm1.24.56a1.17,1.17,0,0,0,.29.82,1,1,0,0,0,.75.32.93.93,0,0,0,.73-.3,1.27,1.27,0,0,0,.27-.86v-.55a1.17,1.17,0,0,0-.29-.82,1,1,0,0,0-.73-.3.94.94,0,0,0-.73.3,1.22,1.22,0,0,0-.29.85Z" style="fill:#fff"/></g></svg>