<svg xmlns="http://www.w3.org/2000/svg" xmlns:xlink="http://www.w3.org/1999/xlink" viewBox="0 0 572 275"><defs><clipPath id="clip-path"><path d="M344.41,168.73,335,189.39c-12.44,27.36-41,46.8-78.57,49.43a120.55,120.55,0,0,1-40.59-3.72l9.39-20.66a120.55,120.55,0,0,0,40.59,3.72C303.45,215.53,332,196.09,344.41,168.73Z" style="fill:none"/></clipPath><clipPath id="clip-path-2"><path d="M125.86,93.76l9.39-20.66a78.44,78.44,0,0,0-6.08,20.47c-8,51.48,35,105.6,96.07,120.87l-9.39,20.66c-61.05-15.27-104.07-69.39-96.07-120.87A78.44,78.44,0,0,1,125.86,93.76Z" style="fill:none"/></clipPath></defs><title>chart-budget1</title><g id="Layer_1" data-name="Layer 1"><ellipse cx="243.24" cy="222.87" rx="134.32" ry="26.54" style="fill:#0c0c0c;opacity:0"/><ellipse cx="243.24" cy="222.87" rx="132.06" ry="26.16" style="fill:#0c0c0c;opacity:0.018181818723679"/><ellipse cx="243.24" cy="222.87" rx="129.81" ry="25.78" style="fill:#0c0c0c;opacity:0.036363636851311"/><ellipse cx="243.24" cy="222.87" rx="127.56" ry="25.39" style="fill:#0c0c0c;opacity:0.054545454978943"/><ellipse cx="243.24" cy="222.87" rx="125.3" ry="25.01" style="fill:#0c0c0c;opacity:0.072727273106575"/><ellipse cx="243.24" cy="222.87" rx="123.05" ry="24.62" style="fill:#0c0c0c;opacity:0.090909091234207"/><ellipse cx="243.24" cy="222.87" rx="120.8" ry="24.24" style="fill:#0c0c0c;opacity:0.109090909361839"/><ellipse cx="243.24" cy="222.87" rx="118.54" ry="23.85" style="fill:#0c0c0c;opacity:0.127272727489472"/><ellipse cx="243.24" cy="222.87" rx="116.29" ry="23.47" style="fill:#0c0c0c;opacity:0.145454545617104"/><ellipse cx="243.24" cy="222.87" rx="114.03" ry="23.08" style="fill:#0c0c0c;opacity:0.163636363744736"/><ellipse cx="243.24" cy="222.87" rx="111.78" ry="22.7" style="fill:#0c0c0c;opacity:0.181818181872368"/><ellipse cx="243.24" cy="222.87" rx="109.53" ry="22.32" style="fill:#0c0c0c;opacity:0.2"/><ellipse cx="243.24" cy="222.87" rx="107.27" ry="21.93" style="fill:#0c0c0c;opacity:0.218181818127632"/><ellipse cx="243.24" cy="222.87" rx="105.02" ry="21.55" style="fill:#0c0c0c;opacity:0.236363636255264"/><ellipse cx="243.24" cy="222.87" rx="102.77" ry="21.16" style="fill:#0c0c0c;opacity:0.254545454382897"/><ellipse cx="243.24" cy="222.87" rx="100.51" ry="20.78" style="fill:#0c0c0c;opacity:0.272727272510529"/><ellipse cx="243.24" cy="222.87" rx="98.26" ry="20.39" style="fill:#0c0c0c;opacity:0.290909090638161"/><ellipse cx="243.24" cy="222.87" rx="96" ry="20.01" style="fill:#0c0c0c;opacity:0.309090908765793"/><ellipse cx="243.24" cy="222.87" rx="93.75" ry="19.62" style="fill:#0c0c0c;opacity:0.327272726893425"/><ellipse cx="243.24" cy="222.87" rx="91.5" ry="19.24" style="fill:#0c0c0c;opacity:0.345454545021057"/><ellipse cx="243.24" cy="222.87" rx="89.24" ry="18.85" style="fill:#0c0c0c;opacity:0.363636363148689"/><ellipse cx="243.24" cy="222.87" rx="86.99" ry="18.47" style="fill:#0c0c0c;opacity:0.381818181276321"/><ellipse cx="243.24" cy="222.87" rx="84.74" ry="18.09" style="fill:#0c0c0c;opacity:0.4"/><ellipse cx="243.24" cy="223.1" rx="82.54" ry="17.62" style="fill:#0c0c0c;opacity:0.430769231915474"/><ellipse cx="243.24" cy="223.33" rx="80.34" ry="17.15" style="fill:#0c0c0c;opacity:0.461538462476297"/><ellipse cx="243.24" cy="223.56" rx="78.14" ry="16.68" style="fill:#0c0c0c;opacity:0.49230769303712"/><ellipse cx="243.24" cy="223.79" rx="75.94" ry="16.21" style="fill:#0c0c0c;opacity:0.523076923597943"/><ellipse cx="243.24" cy="224.02" rx="73.74" ry="15.74" style="fill:#0c0c0c;opacity:0.553846154158766"/><ellipse cx="243.24" cy="224.25" rx="71.54" ry="15.27" style="fill:#0c0c0c;opacity:0.584615384719589"/><ellipse cx="243.24" cy="224.49" rx="69.34" ry="14.8" style="fill:#0c0c0c;opacity:0.615384615280412"/><ellipse cx="243.24" cy="224.72" rx="67.14" ry="14.33" style="fill:#0c0c0c;opacity:0.646153845841234"/><ellipse cx="243.24" cy="224.95" rx="64.94" ry="13.86" style="fill:#0c0c0c;opacity:0.676923076402057"/><ellipse cx="243.24" cy="225.18" rx="62.74" ry="13.39" style="fill:#0c0c0c;opacity:0.70769230696288"/><ellipse cx="243.24" cy="225.41" rx="60.54" ry="12.92" style="fill:#0c0c0c;opacity:0.738461537523703"/><ellipse cx="243.24" cy="225.64" rx="58.34" ry="12.45" style="fill:#0c0c0c;opacity:0.769230768084526"/><ellipse cx="243.24" cy="225.88" rx="56.14" ry="11.98" style="fill:#0c0c0c;opacity:0.8"/></g><g id="Layer_2" data-name="Layer 2"><g style="isolation:isolate"><g style="isolation:isolate"><g style="clip-path:url(#clip-path)"><g style="isolation:isolate"><path d="M344.41,168.73,335,189.39q-1,2.21-2.15,4.35l9.39-20.66q1.14-2.14,2.15-4.35" style="fill:#103c40"/><path d="M342.26,173.08l-9.39,20.66a78.11,78.11,0,0,1-15.19,19.85l9.39-20.66a78.11,78.11,0,0,0,15.19-19.85" style="fill:#103c40"/><path d="M327.07,192.94l-9.39,20.66a90.08,90.08,0,0,1-33.29,19.73l9.39-20.66a90.08,90.08,0,0,0,33.29-19.73" style="fill:#113e40"/><path d="M293.78,212.67l-9.39,20.66a111,111,0,0,1-27.59,5.47l9.39-20.66a111,111,0,0,0,27.59-5.47" style="fill:#103c40"/><path d="M266.19,218.14,256.8,238.8l-.36,0a123.77,123.77,0,0,1-19.57-.06l9.39-20.66a123.77,123.77,0,0,0,19.57.06l.36,0" style="fill:#103c40"/><path d="M246.27,218.11l-9.39,20.66A125.55,125.55,0,0,1,219.78,236l9.39-20.66a125.55,125.55,0,0,0,17.09,2.73" style="fill:#113c3e"/><path d="M229.18,215.38,219.78,236q-1.93-.44-3.93-.94l9.39-20.66q2,.5,3.93.94" style="fill:#113c3e"/></g></g></g><g style="isolation:isolate"><g style="clip-path:url(#clip-path-2)"><g style="isolation:isolate"><path d="M225.25,214.44l-9.39,20.66a141.25,141.25,0,0,1-15.1-4.69l9.39-20.66a141.25,141.25,0,0,0,15.1,4.69" style="fill:#67943f"/><path d="M210.15,209.75l-9.39,20.66a140.78,140.78,0,0,1-19.62-9.09l9.39-20.66a140.78,140.78,0,0,0,19.62,9.09" style="fill:#68933e"/><path d="M190.52,200.65l-9.39,20.66c-41.71-23.39-67.72-66.07-61.35-107.08a78.44,78.44,0,0,1,6.08-20.47l9.39-20.66a78.44,78.44,0,0,0-6.08,20.47c-6.37,41,19.64,83.7,61.35,107.08" style="fill:#66933e"/></g></g></g></g><rect x="411.28" y="24" width="42.38" height="33.9" style="fill:#89c247"/><rect x="411.28" y="74.85" width="42.38" height="33.9" style="fill:#165053"/><text transform="translate(461.96 46.91)" style="font-size:15px;fill:#444b50;font-family:Roboto-Light, Roboto">Discretionary</text><text transform="translate(461.96 97.76)" style="font-size:15px;fill:#444b50;font-family:Roboto-Light, Roboto">Manda<tspan x="45.62" y="0" style="letter-spacing:-0.009765625em">t</tspan><tspan x="50.3" y="0">ory</tspan></text><path d="M213.64,24.3c59.87-4.19,120.09,35.82,134.5,89.35S325.71,214,265.84,218.16a120.55,120.55,0,0,1-40.59-3.72l14.49-93.21Z" style="fill:#164f52"/><path d="M213.64,24.3l26.1,96.93-14.49,93.21c-61.05-15.27-104.07-69.39-96.07-120.87C135.26,54.45,168.14,27.48,213.64,24.3Z" style="fill:#86c046"/></g></svg>