<svg id="Layer_1" data-name="Layer 1" xmlns="http://www.w3.org/2000/svg" viewBox="0 0 579 498">
  <defs>
    <style>
      .cls-1, .cls-2, .cls-4, .cls-6 {
        fill: none;
        stroke-miterlimit: 10;
        stroke-width: 37px;
      }

      .cls-1 {
        stroke: #4f894d;
      }

      .cls-2 {
        stroke: #6ca64a;
      }

      .cls-3 {
        fill: #6ca64a;
      }

      .cls-4 {
        stroke: #89c348;
      }

      .cls-5 {
        fill: #89c348;
      }

      .cls-6 {
        stroke: #326c4f;
      }

      .cls-7 {
        fill: #326c4f;
      }

      .cls-8 {
        fill: #4f894d;
      }

      .cls-9 {
        opacity: 0.2;
      }

      .cls-10 {
        fill: #154f51;
      }

      .cls-11 {
        fill: #fff;
      }
    </style>
  </defs>
  <title>continuity-capability</title>
  <path class="cls-1" d="M91.87,253.11a221.43,221.43,0,0,1,51.65-118.26"/>
  <g>
    <path class="cls-2" d="M292.86,447.38C188.93,435.1,110.25,353,98.16,253.54"/>
    <polygon class="cls-3" points="136.29 263.56 98.1 200.42 62.51 265.06 136.29 263.56"/>
  </g>
  <g>
    <path class="cls-4" d="M487.13,246.4C474.85,350.33,392.76,429,293.28,441.1"/>
    <polygon class="cls-5" points="303.3 402.96 240.17 441.16 304.81 476.75 303.3 402.96"/>
  </g>
  <g>
    <path class="cls-6" d="M286.14,52.13C390.07,64.41,468.75,146.5,480.84,246"/>
    <polygon class="cls-7" points="442.71 235.95 480.9 299.09 516.49 234.45 442.71 235.95"/>
  </g>
  <g>
    <path class="cls-1" d="M143.52,134.85a222.76,222.76,0,0,1,142.2-76.44"/>
    <polygon class="cls-8" points="275.71 96.58 338.83 58.35 274.17 22.8 275.71 96.58"/>
  </g>
  <rect class="cls-9" x="369.55" y="391" width="148" height="66.51"/>
  <g class="cls-9">
    <path d="M276.45,107l-108.1,46.69v11.78h242.3V153.68L302.55,107A32.47,32.47,0,0,0,276.45,107Z"/>
    <rect x="175.44" y="168.22" width="228.11" height="10.25"/>
    <rect x="175.4" y="181.51" width="39.77" height="6.31"/>
    <rect x="180.03" y="189.03" width="30.5" height="5.61"/>
    <rect x="175.4" y="322.04" width="39.77" height="6.31"/>
    <rect x="180.03" y="315.22" width="30.5" height="5.61"/>
    <rect x="183.11" y="196.62" width="24.33" height="116.87"/>
    <rect x="237.95" y="181.48" width="39.77" height="6.31"/>
    <rect x="242.58" y="189" width="30.5" height="5.61"/>
    <rect x="237.95" y="322.01" width="39.77" height="6.31"/>
    <rect x="242.58" y="315.19" width="30.5" height="5.61"/>
    <rect x="245.66" y="196.57" width="24.33" height="116.87"/>
    <rect x="300.5" y="181.45" width="39.77" height="6.31"/>
    <rect x="305.13" y="188.97" width="30.5" height="5.61"/>
    <rect x="300.5" y="321.98" width="39.77" height="6.31"/>
    <rect x="305.13" y="315.16" width="30.5" height="5.61"/>
    <rect x="308.21" y="196.53" width="24.33" height="116.87"/>
    <rect x="363.84" y="181.48" width="39.77" height="6.31"/>
    <rect x="368.47" y="189" width="30.5" height="5.61"/>
    <rect x="363.84" y="322.01" width="39.77" height="6.31"/>
    <rect x="368.47" y="315.19" width="30.5" height="5.61"/>
    <rect x="371.55" y="196.57" width="24.33" height="116.87"/>
    <rect x="172.45" y="330.9" width="234.09" height="46.37"/>
  </g>
  <rect class="cls-9" x="81.05" y="391" width="148" height="66.51"/>
  <rect class="cls-9" x="369.55" y="50.73" width="148" height="66.51"/>
  <rect class="cls-9" x="81.05" y="50.73" width="148" height="66.51"/>
  <rect class="cls-10" x="359.54" y="380.99" width="148" height="66.51"/>
  <g>
    <path class="cls-11" d="M398.62,401.55h-2.88v7.95h-1.59v-7.95h-2.86v-1.29h7.33Z"/>
    <path class="cls-11" d="M402.71,409.63a3.19,3.19,0,0,1-2.38-.93,3.36,3.36,0,0,1-.91-2.46v-.19a4,4,0,0,1,.4-1.83,3,3,0,0,1,1.11-1.26,3,3,0,0,1,1.6-.46,2.69,2.69,0,0,1,2.17.9,3.79,3.79,0,0,1,.77,2.53v.62H401a2,2,0,0,0,.57,1.35,1.7,1.7,0,0,0,1.25.5,2.1,2.1,0,0,0,1.73-.86l.83.79a2.85,2.85,0,0,1-1.1,1A3.56,3.56,0,0,1,402.71,409.63Zm-.18-5.89a1.29,1.29,0,0,0-1,.45,2.35,2.35,0,0,0-.5,1.23h2.94v-.11a1.84,1.84,0,0,0-.41-1.17A1.31,1.31,0,0,0,402.53,403.74Z"/>
    <path class="cls-11" d="M410.51,407.63a.68.68,0,0,0-.34-.62,3.18,3.18,0,0,0-1.12-.38,6.23,6.23,0,0,1-1.32-.42,1.76,1.76,0,0,1-1.15-1.62,1.83,1.83,0,0,1,.75-1.49,2.94,2.94,0,0,1,1.9-.6,3.13,3.13,0,0,1,2,.61,1.94,1.94,0,0,1,.76,1.59h-1.54a.94.94,0,0,0-.33-.74,1.27,1.27,0,0,0-.88-.3,1.43,1.43,0,0,0-.83.23.76.76,0,0,0-.32.63.64.64,0,0,0,.3.56,4.1,4.1,0,0,0,1.2.39A5.63,5.63,0,0,1,411,406a2,2,0,0,1,.77.66,1.67,1.67,0,0,1,.25.94,1.79,1.79,0,0,1-.77,1.5,3.22,3.22,0,0,1-2,.58,3.41,3.41,0,0,1-1.5-.31,2.34,2.34,0,0,1-1-.84,1.92,1.92,0,0,1-.37-1.14h1.5a1.07,1.07,0,0,0,.41.84,1.64,1.64,0,0,0,1,.29,1.58,1.58,0,0,0,.92-.23A.7.7,0,0,0,410.51,407.63Z"/>
    <path class="cls-11" d="M415.3,401v1.67h1.22v1.14H415.3v3.84a.88.88,0,0,0,.16.57.74.74,0,0,0,.55.17,2.48,2.48,0,0,0,.54-.06v1.19a3.64,3.64,0,0,1-1,.15c-1.19,0-1.78-.66-1.78-2v-3.9h-1.13v-1.14h1.13V401Z"/>
    <path class="cls-11" d="M417.91,411.58l-.83-.49a4.33,4.33,0,0,0,.51-1,2.93,2.93,0,0,0,.14-.87V408h1.39v1.11a2.94,2.94,0,0,1-.34,1.35A3.31,3.31,0,0,1,417.91,411.58Z"/>
    <path class="cls-11" d="M430.23,401.55h-2.88v7.95h-1.59v-7.95H422.9v-1.29h7.33Z"/>
    <path class="cls-11" d="M434.48,404a4.23,4.23,0,0,0-.63-.05,1.43,1.43,0,0,0-1.43.81v4.7h-1.54v-6.87h1.47l0,.77a1.74,1.74,0,0,1,1.55-.9,1.47,1.47,0,0,1,.55.09Z"/>
    <path class="cls-11" d="M439.37,409.5a2.2,2.2,0,0,1-.18-.64,2.4,2.4,0,0,1-1.8.77,2.45,2.45,0,0,1-1.69-.59,1.88,1.88,0,0,1-.65-1.46,2,2,0,0,1,.81-1.69,4,4,0,0,1,2.33-.59h.95v-.45a1.08,1.08,0,0,0-1.21-1.17,1.38,1.38,0,0,0-.86.26.84.84,0,0,0-.34.67h-1.54a1.69,1.69,0,0,1,.38-1.05,2.57,2.57,0,0,1,1-.78,3.7,3.7,0,0,1,1.44-.28,2.92,2.92,0,0,1,1.93.61,2.18,2.18,0,0,1,.73,1.71v3.09a3.57,3.57,0,0,0,.26,1.48v.11Zm-1.7-1.11a1.69,1.69,0,0,0,.86-.22,1.53,1.53,0,0,0,.61-.6v-1.29h-.83a2.37,2.37,0,0,0-1.29.29,1,1,0,0,0-.43.85.94.94,0,0,0,.29.71A1.17,1.17,0,0,0,437.67,408.39Z"/>
    <path class="cls-11" d="M442.3,400.85a.81.81,0,0,1,.23-.59.83.83,0,0,1,.64-.24.85.85,0,0,1,.65.24.81.81,0,0,1,.23.59.82.82,0,0,1-.23.58.89.89,0,0,1-.65.23.86.86,0,0,1-.64-.23A.82.82,0,0,1,442.3,400.85Zm1.64,8.65H442.4v-6.87h1.54Z"/>
    <path class="cls-11" d="M447.05,402.63l0,.8a2.47,2.47,0,0,1,2-.93q2.15,0,2.19,2.46v4.54h-1.55v-4.45a1.41,1.41,0,0,0-.28-1,1.18,1.18,0,0,0-.92-.31,1.48,1.48,0,0,0-1.39.84v4.89h-1.55v-6.87Z"/>
    <path class="cls-11" d="M452.85,400.85a.81.81,0,0,1,.23-.59.83.83,0,0,1,.64-.24.85.85,0,0,1,.65.24.81.81,0,0,1,.23.59.82.82,0,0,1-.23.58.89.89,0,0,1-.65.23.86.86,0,0,1-.64-.23A.82.82,0,0,1,452.85,400.85Zm1.64,8.65H453v-6.87h1.54Z"/>
    <path class="cls-11" d="M457.6,402.63l0,.8a2.47,2.47,0,0,1,2-.93q2.14,0,2.19,2.46v4.54h-1.55v-4.45a1.41,1.41,0,0,0-.28-1,1.18,1.18,0,0,0-.92-.31,1.48,1.48,0,0,0-1.39.84v4.89h-1.54v-6.87Z"/>
    <path class="cls-11" d="M463.13,406a4,4,0,0,1,.75-2.56,2.41,2.41,0,0,1,2-1,2.26,2.26,0,0,1,1.84.82l.07-.69h1.39v6.66a2.76,2.76,0,0,1-.84,2.13,3.19,3.19,0,0,1-2.27.78,3.63,3.63,0,0,1-1.47-.31,2.63,2.63,0,0,1-1.1-.82l.73-.93A2.23,2.23,0,0,0,466,411a1.71,1.71,0,0,0,1.22-.42,1.63,1.63,0,0,0,.44-1.22v-.47a2.26,2.26,0,0,1-1.78.75,2.41,2.41,0,0,1-2-1A4.16,4.16,0,0,1,463.13,406Zm1.53.13a2.72,2.72,0,0,0,.43,1.63,1.36,1.36,0,0,0,1.17.59,1.49,1.49,0,0,0,1.38-.8v-3a1.46,1.46,0,0,0-1.37-.78,1.35,1.35,0,0,0-1.18.6A3,3,0,0,0,464.66,406.15Z"/>
    <path class="cls-11" d="M471,411.58l-.83-.49a4.67,4.67,0,0,0,.5-1,2.93,2.93,0,0,0,.14-.87V408h1.39v1.11a3.21,3.21,0,0,1-.34,1.35A3.31,3.31,0,0,1,471,411.58Z"/>
    <path class="cls-11" d="M401.45,426.5a2.2,2.2,0,0,1-.18-.64,2.4,2.4,0,0,1-1.8.77,2.45,2.45,0,0,1-1.69-.59,1.91,1.91,0,0,1-.65-1.46,2,2,0,0,1,.81-1.69,4,4,0,0,1,2.34-.59h.94v-.45a1.08,1.08,0,0,0-1.2-1.17,1.43,1.43,0,0,0-.87.26.83.83,0,0,0-.33.67h-1.55a1.69,1.69,0,0,1,.38-1.05,2.53,2.53,0,0,1,1-.78,3.68,3.68,0,0,1,1.43-.28,2.92,2.92,0,0,1,1.93.61,2.15,2.15,0,0,1,.73,1.71v3.09a3.4,3.4,0,0,0,.27,1.48v.11Zm-1.69-1.11a1.75,1.75,0,0,0,.86-.22,1.51,1.51,0,0,0,.6-.6v-1.29h-.83a2.37,2.37,0,0,0-1.29.29,1,1,0,0,0-.43.85.91.91,0,0,0,.3.71A1.16,1.16,0,0,0,399.76,425.39Z"/>
    <path class="cls-11" d="M405.81,419.63l.05.8a2.44,2.44,0,0,1,2-.93c1.43,0,2.15.82,2.18,2.46v4.54H408.5v-4.45a1.41,1.41,0,0,0-.29-1,1.16,1.16,0,0,0-.92-.31,1.49,1.49,0,0,0-1.39.84v4.89h-1.54v-6.87Z"/>
    <path class="cls-11" d="M411.32,423a4.09,4.09,0,0,1,.74-2.55,2.37,2.37,0,0,1,2-1,2.25,2.25,0,0,1,1.77.77v-3.52h1.54v9.75h-1.4l-.07-.71a2.29,2.29,0,0,1-1.85.84,2.34,2.34,0,0,1-1.95-1A4.22,4.22,0,0,1,411.32,423Zm1.54.13a2.82,2.82,0,0,0,.41,1.63,1.31,1.31,0,0,0,1.14.59,1.47,1.47,0,0,0,1.39-.84v-2.94a1.44,1.44,0,0,0-1.38-.82,1.33,1.33,0,0,0-1.15.59A3.2,3.2,0,0,0,412.86,423.15Z"/>
    <path class="cls-11" d="M427.74,422.37h-3.8v2.85h4.44v1.28h-6.05v-9.24h6v1.29h-4.39v2.55h3.8Z"/>
    <path class="cls-11" d="M432,421.89l1.31-2.26H435l-2.1,3.39,2.17,3.48h-1.7L432,424.15l-1.36,2.35h-1.72l2.17-3.48L429,419.63h1.7Z"/>
    <path class="cls-11" d="M439.1,426.63a3.19,3.19,0,0,1-2.38-.93,3.32,3.32,0,0,1-.91-2.46v-.19a4,4,0,0,1,.4-1.83,3,3,0,0,1,2.71-1.72,2.69,2.69,0,0,1,2.17.9,3.78,3.78,0,0,1,.76,2.53v.62h-4.48a2,2,0,0,0,.56,1.35,1.73,1.73,0,0,0,1.26.5,2.12,2.12,0,0,0,1.73-.86l.83.79a2.87,2.87,0,0,1-1.11,1A3.49,3.49,0,0,1,439.1,426.63Zm-.18-5.89a1.29,1.29,0,0,0-1,.45,2.27,2.27,0,0,0-.5,1.23h2.94v-.11a1.84,1.84,0,0,0-.41-1.17A1.31,1.31,0,0,0,438.92,420.74Z"/>
    <path class="cls-11" d="M446.65,421A4.46,4.46,0,0,0,446,421a1.41,1.41,0,0,0-1.43.81v4.7h-1.54v-6.87h1.47l0,.77a1.74,1.74,0,0,1,1.55-.9,1.38,1.38,0,0,1,.54.09Z"/>
    <path class="cls-11" d="M450.32,425.4a1.41,1.41,0,0,0,1-.34,1.19,1.19,0,0,0,.41-.83h1.45a2.26,2.26,0,0,1-.4,1.19,2.58,2.58,0,0,1-1,.88,2.93,2.93,0,0,1-1.38.33,2.89,2.89,0,0,1-2.28-.94,3.66,3.66,0,0,1-.85-2.57V423a3.63,3.63,0,0,1,.84-2.51,2.9,2.9,0,0,1,2.28-.95,2.8,2.8,0,0,1,2,.72,2.59,2.59,0,0,1,.81,1.87h-1.45a1.41,1.41,0,0,0-.41-1,1.3,1.3,0,0,0-1-.38,1.33,1.33,0,0,0-1.15.55,2.8,2.8,0,0,0-.42,1.64v.25a2.83,2.83,0,0,0,.41,1.67A1.36,1.36,0,0,0,450.32,425.4Z"/>
    <path class="cls-11" d="M454.31,417.85a.8.8,0,0,1,.22-.59.85.85,0,0,1,.65-.24.87.87,0,0,1,.65.24.8.8,0,0,1,.22.59.81.81,0,0,1-.22.58.9.9,0,0,1-.65.23.89.89,0,0,1-.65-.23A.81.81,0,0,1,454.31,417.85ZM456,426.5H454.4v-6.87H456Z"/>
    <path class="cls-11" d="M461.47,424.63a.68.68,0,0,0-.34-.62,3.18,3.18,0,0,0-1.12-.38,6.23,6.23,0,0,1-1.32-.42,1.76,1.76,0,0,1-1.15-1.62,1.83,1.83,0,0,1,.75-1.49,2.94,2.94,0,0,1,1.9-.6,3.11,3.11,0,0,1,2,.61,1.94,1.94,0,0,1,.76,1.59H461.4a.94.94,0,0,0-.33-.74,1.25,1.25,0,0,0-.88-.3,1.43,1.43,0,0,0-.83.23.76.76,0,0,0-.32.63.64.64,0,0,0,.3.56,4.08,4.08,0,0,0,1.21.39A5.68,5.68,0,0,1,462,423a2,2,0,0,1,.77.66,1.67,1.67,0,0,1,.25.94,1.76,1.76,0,0,1-.77,1.5,3.22,3.22,0,0,1-2,.58,3.44,3.44,0,0,1-1.5-.31,2.4,2.4,0,0,1-1-.84,1.92,1.92,0,0,1-.37-1.14h1.5a1.1,1.1,0,0,0,.41.84,1.64,1.64,0,0,0,1,.29,1.59,1.59,0,0,0,.93-.23A.71.71,0,0,0,461.47,424.63Z"/>
    <path class="cls-11" d="M467.36,426.63a3.19,3.19,0,0,1-2.38-.93,3.32,3.32,0,0,1-.91-2.46v-.19a4,4,0,0,1,.4-1.83,3,3,0,0,1,2.71-1.72,2.69,2.69,0,0,1,2.17.9,3.78,3.78,0,0,1,.76,2.53v.62h-4.48a2,2,0,0,0,.56,1.35,1.73,1.73,0,0,0,1.26.5,2.09,2.09,0,0,0,1.72-.86l.84.79a2.87,2.87,0,0,1-1.11,1A3.49,3.49,0,0,1,467.36,426.63Zm-.19-5.89a1.29,1.29,0,0,0-1,.45,2.27,2.27,0,0,0-.5,1.23h2.94v-.11a1.84,1.84,0,0,0-.41-1.17A1.32,1.32,0,0,0,467.17,420.74Z"/>
  </g>
  <rect class="cls-10" x="71.04" y="380.99" width="148" height="66.51"/>
  <g>
    <path class="cls-11" d="M114.83,396.92H111v2.84h4.44V401h-6V391.8h6v1.3H111v2.55h3.8Z"/>
    <path class="cls-11" d="M118.88,399.09l1.46-4.91h1.59L119.55,401h-1.34l-2.4-6.86h1.6Z"/>
    <path class="cls-11" d="M126.9,401a2.2,2.2,0,0,1-.18-.64,2.37,2.37,0,0,1-1.8.77,2.45,2.45,0,0,1-1.69-.59,1.87,1.87,0,0,1-.65-1.46,2,2,0,0,1,.81-1.68,3.91,3.91,0,0,1,2.34-.59h.94v-.45a1.22,1.22,0,0,0-.3-.86,1.2,1.2,0,0,0-.91-.32,1.34,1.34,0,0,0-.86.27.82.82,0,0,0-.33.67h-1.55a1.72,1.72,0,0,1,.38-1.06,2.51,2.51,0,0,1,1-.77,3.51,3.51,0,0,1,1.43-.28,2.86,2.86,0,0,1,1.93.61,2.13,2.13,0,0,1,.73,1.7v3.1a3.57,3.57,0,0,0,.26,1.48v.1Zm-1.69-1.11a1.75,1.75,0,0,0,.86-.22,1.48,1.48,0,0,0,.6-.59v-1.3h-.83a2.28,2.28,0,0,0-1.29.3,1,1,0,0,0-.43.84.89.89,0,0,0,.3.71A1.11,1.11,0,0,0,125.21,399.93Z"/>
    <path class="cls-11" d="M131.47,401h-1.54v-9.75h1.54Z"/>
    <path class="cls-11" d="M137.31,400.37a2.37,2.37,0,0,1-1.93.8,2.13,2.13,0,0,1-1.69-.65,2.81,2.81,0,0,1-.58-1.89v-4.45h1.55v4.43c0,.87.36,1.31,1.08,1.31a1.52,1.52,0,0,0,1.52-.81v-4.93h1.54V401h-1.45Z"/>
    <path class="cls-11" d="M144.48,401a2.2,2.2,0,0,1-.18-.64,2.37,2.37,0,0,1-1.8.77,2.43,2.43,0,0,1-1.69-.59,1.88,1.88,0,0,1-.66-1.46,2,2,0,0,1,.82-1.68,3.88,3.88,0,0,1,2.33-.59h.95v-.45a1.22,1.22,0,0,0-.3-.86,1.2,1.2,0,0,0-.91-.32,1.32,1.32,0,0,0-.86.27.82.82,0,0,0-.34.67H140.3a1.71,1.71,0,0,1,.37-1.06,2.51,2.51,0,0,1,1-.77,3.52,3.52,0,0,1,1.44-.28,2.82,2.82,0,0,1,1.92.61,2.14,2.14,0,0,1,.74,1.7v3.1a3.57,3.57,0,0,0,.26,1.48v.1Zm-1.7-1.11a1.72,1.72,0,0,0,.86-.22,1.51,1.51,0,0,0,.61-.59v-1.3h-.83a2.28,2.28,0,0,0-1.29.3,1,1,0,0,0-.43.84.88.88,0,0,0,.29.71A1.13,1.13,0,0,0,142.78,399.93Z"/>
    <path class="cls-11" d="M149.34,392.51v1.67h1.21v1.14h-1.21v3.83a.79.79,0,0,0,.16.57.68.68,0,0,0,.55.18,2,2,0,0,0,.54-.07V401a4.1,4.1,0,0,1-1,.14c-1.18,0-1.77-.65-1.77-2v-3.89h-1.13v-1.14h1.13v-1.67Z"/>
    <path class="cls-11" d="M151.73,392.39a.84.84,0,0,1,.23-.59.86.86,0,0,1,.64-.23.89.89,0,0,1,.65.23.84.84,0,0,1,.23.59.78.78,0,0,1-.23.58.85.85,0,0,1-.65.24A.83.83,0,0,1,152,393,.78.78,0,0,1,151.73,392.39Zm1.64,8.65h-1.54v-6.86h1.54Z"/>
    <path class="cls-11" d="M154.76,397.55a4,4,0,0,1,.4-1.82,3,3,0,0,1,1.12-1.25,3.2,3.2,0,0,1,1.67-.43,3,3,0,0,1,2.25.9,3.5,3.5,0,0,1,.94,2.37v.36a4.12,4.12,0,0,1-.39,1.82,2.91,2.91,0,0,1-1.12,1.23,3.15,3.15,0,0,1-1.68.44,3,3,0,0,1-2.33-1,3.7,3.7,0,0,1-.87-2.58Zm1.54.13a2.77,2.77,0,0,0,.44,1.66,1.42,1.42,0,0,0,1.22.6,1.39,1.39,0,0,0,1.21-.61,3.06,3.06,0,0,0,.44-1.78,2.69,2.69,0,0,0-.45-1.65,1.42,1.42,0,0,0-1.21-.61,1.4,1.4,0,0,0-1.2.6A3,3,0,0,0,156.3,397.68Z"/>
    <path class="cls-11" d="M163.88,394.18l0,.79a2.49,2.49,0,0,1,2-.92c1.44,0,2.16.82,2.19,2.46V401h-1.54V396.6a1.41,1.41,0,0,0-.29-1,1.18,1.18,0,0,0-.92-.32,1.48,1.48,0,0,0-1.39.85V401h-1.54v-6.86Z"/>
    <path class="cls-11" d="M173.53,399.18a.69.69,0,0,0-.34-.63,3.73,3.73,0,0,0-1.13-.38,5.77,5.77,0,0,1-1.31-.42,1.75,1.75,0,0,1-1.16-1.62,1.81,1.81,0,0,1,.75-1.48,3,3,0,0,1,1.91-.6,3.07,3.07,0,0,1,2,.61,2,2,0,0,1,.76,1.58h-1.55a1,1,0,0,0-.33-.74,1.24,1.24,0,0,0-.87-.29,1.34,1.34,0,0,0-.83.23.76.76,0,0,0-.32.63.62.62,0,0,0,.3.55,4.35,4.35,0,0,0,1.2.4,5.82,5.82,0,0,1,1.43.47,2.14,2.14,0,0,1,.77.67,1.75,1.75,0,0,1,.25.94,1.81,1.81,0,0,1-.77,1.5,3.28,3.28,0,0,1-2,.57,3.6,3.6,0,0,1-1.51-.3,2.62,2.62,0,0,1-1-.84,2,2,0,0,1-.36-1.15h1.49a1.08,1.08,0,0,0,.42.84,1.9,1.9,0,0,0,1.93.07A.74.74,0,0,0,173.53,399.18Z"/>
    <path class="cls-11" d="M176.61,403.13l-.83-.5a4.62,4.62,0,0,0,.5-1,2.94,2.94,0,0,0,.14-.88v-1.2h1.39v1.11a3.21,3.21,0,0,1-.34,1.35A3.45,3.45,0,0,1,176.61,403.13Z"/>
    <path class="cls-11" d="M88.62,415.89H85L84.29,418H82.63l3.49-9.24h1.44L91.05,418H89.38Zm-3.13-1.29h2.68l-1.34-3.84Z"/>
    <path class="cls-11" d="M92.5,418v-5.72h-1v-1.14h1v-.63a2.39,2.39,0,0,1,.63-1.77,2.45,2.45,0,0,1,1.78-.62,3.36,3.36,0,0,1,.86.12l0,1.2a3.33,3.33,0,0,0-.59-.05,1,1,0,0,0-1.1,1.14v.61h1.39v1.14H94V418Z"/>
    <path class="cls-11" d="M98.49,409.51v1.67h1.22v1.14H98.49v3.83a.84.84,0,0,0,.16.57.71.71,0,0,0,.56.18,2,2,0,0,0,.53-.07V418a4.09,4.09,0,0,1-1,.14c-1.19,0-1.78-.65-1.78-2v-3.89H95.82v-1.14H97v-1.67Z"/>
    <path class="cls-11" d="M103.91,418.17a3.22,3.22,0,0,1-2.38-.92,3.35,3.35,0,0,1-.91-2.46v-.19a4,4,0,0,1,.4-1.84,2.95,2.95,0,0,1,2.71-1.71,2.69,2.69,0,0,1,2.17.9,3.77,3.77,0,0,1,.76,2.53v.62h-4.48a2,2,0,0,0,.56,1.35,1.72,1.72,0,0,0,1.26.49,2.09,2.09,0,0,0,1.72-.86l.84.8a2.77,2.77,0,0,1-1.11.95A3.35,3.35,0,0,1,103.91,418.17Zm-.19-5.88a1.31,1.31,0,0,0-1,.44,2.31,2.31,0,0,0-.5,1.24h2.94v-.11a1.89,1.89,0,0,0-.41-1.18A1.31,1.31,0,0,0,103.72,412.29Z"/>
    <path class="cls-11" d="M111.46,412.59a3.35,3.35,0,0,0-.63,0,1.42,1.42,0,0,0-1.43.81V418h-1.54v-6.86h1.47l0,.77a1.74,1.74,0,0,1,1.55-.9,1.38,1.38,0,0,1,.54.09Z"/>
    <path class="cls-11" d="M121,415.89h-3.58l-.75,2.15H115l3.49-9.24h1.44l3.5,9.24h-1.67Zm-3.13-1.29h2.68l-1.34-3.84Z"/>
    <path class="cls-11" d="M127.14,416.94a1.36,1.36,0,0,0,1-.34,1.17,1.17,0,0,0,.41-.83H130a2.29,2.29,0,0,1-.4,1.2,2.66,2.66,0,0,1-1,.88,3,3,0,0,1-1.38.32,2.92,2.92,0,0,1-2.28-.93,3.67,3.67,0,0,1-.85-2.58v-.16a3.64,3.64,0,0,1,.84-2.51,2.89,2.89,0,0,1,2.28-.94,2.84,2.84,0,0,1,2,.71,2.62,2.62,0,0,1,.81,1.88h-1.45a1.44,1.44,0,0,0-.41-1,1.27,1.27,0,0,0-1-.38,1.35,1.35,0,0,0-1.15.54,2.74,2.74,0,0,0-.42,1.65v.24a2.79,2.79,0,0,0,.41,1.67A1.34,1.34,0,0,0,127.14,416.94Z"/>
    <path class="cls-11" d="M133.06,409.51v1.67h1.21v1.14h-1.21v3.83a.85.85,0,0,0,.15.57.72.72,0,0,0,.56.18,2,2,0,0,0,.54-.07V418a4.1,4.1,0,0,1-1,.14c-1.18,0-1.78-.65-1.78-2v-3.89h-1.13v-1.14h1.13v-1.67Z"/>
    <path class="cls-11" d="M135.45,409.39a.84.84,0,0,1,.23-.59.86.86,0,0,1,.64-.23.89.89,0,0,1,.65.23.84.84,0,0,1,.23.59.78.78,0,0,1-.23.58.85.85,0,0,1-.65.24.83.83,0,0,1-.64-.24A.78.78,0,0,1,135.45,409.39Zm1.64,8.65h-1.54v-6.86h1.54Z"/>
    <path class="cls-11" d="M138.48,414.55a4,4,0,0,1,.4-1.82,2.9,2.9,0,0,1,1.12-1.25,3.16,3.16,0,0,1,1.66-.43,3,3,0,0,1,2.26.9,3.5,3.5,0,0,1,.94,2.37v.36a4.12,4.12,0,0,1-.39,1.82,2.88,2.88,0,0,1-1.11,1.23,3.15,3.15,0,0,1-1.68.44,3,3,0,0,1-2.33-1,3.7,3.7,0,0,1-.87-2.58Zm1.54.13a2.77,2.77,0,0,0,.44,1.66,1.42,1.42,0,0,0,1.22.6,1.39,1.39,0,0,0,1.21-.61,3.06,3.06,0,0,0,.44-1.78,2.69,2.69,0,0,0-.45-1.65,1.51,1.51,0,0,0-2.42,0A3,3,0,0,0,140,414.68Z"/>
    <path class="cls-11" d="M147.6,411.18l0,.79a2.49,2.49,0,0,1,2-.92q2.15,0,2.19,2.46V418h-1.55V413.6a1.41,1.41,0,0,0-.28-1,1.18,1.18,0,0,0-.92-.32,1.48,1.48,0,0,0-1.39.85V418h-1.54v-6.86Z"/>
    <path class="cls-11" d="M160.18,414.49h-1.79V418h-1.61V408.8H160a3.77,3.77,0,0,1,2.47.72,2.54,2.54,0,0,1,.87,2.08,2.65,2.65,0,0,1-.44,1.55,2.83,2.83,0,0,1-1.25,1l2.07,3.85V418H162Zm-1.79-1.29H160a1.86,1.86,0,0,0,1.27-.41,1.46,1.46,0,0,0,.46-1.12,1.49,1.49,0,0,0-.43-1.15,1.8,1.8,0,0,0-1.26-.42h-1.69Z"/>
    <path class="cls-11" d="M167.77,418.17a3.19,3.19,0,0,1-2.37-.92,3.35,3.35,0,0,1-.91-2.46v-.19a4.18,4.18,0,0,1,.39-1.84A3.05,3.05,0,0,1,166,411.5a2.92,2.92,0,0,1,1.59-.45,2.69,2.69,0,0,1,2.17.9,3.77,3.77,0,0,1,.77,2.53v.62H166a2.1,2.1,0,0,0,.57,1.35,1.7,1.7,0,0,0,1.25.49,2.1,2.1,0,0,0,1.73-.86l.83.8a2.74,2.74,0,0,1-1.1.95A3.43,3.43,0,0,1,167.77,418.17Zm-.18-5.88a1.33,1.33,0,0,0-1,.44,2.3,2.3,0,0,0-.49,1.24H169v-.11a1.89,1.89,0,0,0-.41-1.18A1.29,1.29,0,0,0,167.59,412.29Z"/>
    <path class="cls-11" d="M177.74,414.68a4,4,0,0,1-.73,2.54,2.3,2.3,0,0,1-1.94.95,2.37,2.37,0,0,1-1.81-.74v3.26h-1.54v-9.51h1.42l.07.7a2.25,2.25,0,0,1,1.84-.83,2.32,2.32,0,0,1,2,.94,4.16,4.16,0,0,1,.72,2.6Zm-1.54-.13a2.79,2.79,0,0,0-.41-1.63,1.31,1.31,0,0,0-1.17-.61,1.43,1.43,0,0,0-1.36.78v3.05a1.44,1.44,0,0,0,1.37.8,1.35,1.35,0,0,0,1.16-.59A3.24,3.24,0,0,0,176.2,414.55Z"/>
    <path class="cls-11" d="M178.75,414.55a4.16,4.16,0,0,1,.4-1.82,3,3,0,0,1,1.13-1.25,3.14,3.14,0,0,1,1.66-.43,3,3,0,0,1,2.26.9,3.44,3.44,0,0,1,.93,2.37v.36a4.12,4.12,0,0,1-.39,1.82,2.84,2.84,0,0,1-1.12,1.23,3.1,3.1,0,0,1-1.68.44,3,3,0,0,1-2.32-1,3.65,3.65,0,0,1-.88-2.58Zm1.55.13a2.71,2.71,0,0,0,.44,1.66,1.52,1.52,0,0,0,2.43,0,3.06,3.06,0,0,0,.43-1.78,2.69,2.69,0,0,0-.44-1.65,1.51,1.51,0,0,0-2.42,0A3,3,0,0,0,180.3,414.68Z"/>
    <path class="cls-11" d="M190,412.59a3.22,3.22,0,0,0-.63,0,1.42,1.42,0,0,0-1.43.81V418h-1.54v-6.86h1.47l0,.77a1.74,1.74,0,0,1,1.55-.9,1.47,1.47,0,0,1,.55.09Z"/>
    <path class="cls-11" d="M193.26,409.51v1.67h1.22v1.14h-1.22v3.83a.84.84,0,0,0,.16.57.71.71,0,0,0,.56.18,2.11,2.11,0,0,0,.54-.07V418a4.16,4.16,0,0,1-1,.14c-1.18,0-1.78-.65-1.78-2v-3.89h-1.13v-1.14h1.13v-1.67Z"/>
    <path class="cls-11" d="M199.5,416.18a.7.7,0,0,0-.33-.63,3.83,3.83,0,0,0-1.13-.38,5.87,5.87,0,0,1-1.32-.42,1.74,1.74,0,0,1-1.15-1.62,1.81,1.81,0,0,1,.75-1.48,2.94,2.94,0,0,1,1.9-.6,3.05,3.05,0,0,1,2,.61,1.92,1.92,0,0,1,.76,1.58h-1.54a1,1,0,0,0-.33-.74,1.25,1.25,0,0,0-.88-.29,1.36,1.36,0,0,0-.83.23.76.76,0,0,0-.32.63.62.62,0,0,0,.3.55,4.32,4.32,0,0,0,1.21.4,5.72,5.72,0,0,1,1.42.47,2.05,2.05,0,0,1,.77.67,1.67,1.67,0,0,1,.25.94,1.79,1.79,0,0,1-.77,1.5,3.28,3.28,0,0,1-2,.57,3.59,3.59,0,0,1-1.5-.3,2.55,2.55,0,0,1-1-.84,2,2,0,0,1-.37-1.15h1.5a1.1,1.1,0,0,0,.41.84,1.92,1.92,0,0,0,1.94.07A.73.73,0,0,0,199.5,416.18Z"/>
    <path class="cls-11" d="M202.58,420.13l-.83-.5a4.29,4.29,0,0,0,.51-1,3.3,3.3,0,0,0,.14-.88v-1.2h1.39v1.11a2.94,2.94,0,0,1-.34,1.35A3.45,3.45,0,0,1,202.58,420.13Z"/>
    <path class="cls-11" d="M88,435a2.2,2.2,0,0,1-.18-.64,2.37,2.37,0,0,1-1.8.77,2.45,2.45,0,0,1-1.69-.59,1.9,1.9,0,0,1-.65-1.46,2,2,0,0,1,.81-1.68,3.93,3.93,0,0,1,2.34-.59h.94v-.45a1.26,1.26,0,0,0-.29-.86,1.21,1.21,0,0,0-.91-.32,1.37,1.37,0,0,0-.87.27.82.82,0,0,0-.33.67H83.81a1.71,1.71,0,0,1,.37-1.06,2.51,2.51,0,0,1,1-.77,3.52,3.52,0,0,1,1.44-.28,2.85,2.85,0,0,1,1.92.61,2.17,2.17,0,0,1,.74,1.7v3.1a3.42,3.42,0,0,0,.26,1.48v.1Zm-1.69-1.11a1.75,1.75,0,0,0,.86-.22,1.42,1.42,0,0,0,.6-.59v-1.3h-.83a2.28,2.28,0,0,0-1.29.3,1,1,0,0,0-.43.84.89.89,0,0,0,.3.71A1.11,1.11,0,0,0,86.29,433.93Z"/>
    <path class="cls-11" d="M92.34,428.18l0,.79a2.48,2.48,0,0,1,2-.92c1.43,0,2.15.82,2.18,2.46V435H95V430.6a1.46,1.46,0,0,0-.28-1,1.2,1.2,0,0,0-.93-.32,1.49,1.49,0,0,0-1.39.85V435H90.89v-6.86Z"/>
    <path class="cls-11" d="M97.85,431.56a4.09,4.09,0,0,1,.74-2.55,2.36,2.36,0,0,1,2-1,2.24,2.24,0,0,1,1.77.76v-3.52h1.54V435h-1.4l-.07-.71a2.28,2.28,0,0,1-1.85.84,2.34,2.34,0,0,1-2-1A4.22,4.22,0,0,1,97.85,431.56Zm1.55.13a2.86,2.86,0,0,0,.4,1.64,1.31,1.31,0,0,0,1.14.59,1.47,1.47,0,0,0,1.39-.85v-2.93a1.44,1.44,0,0,0-1.37-.83,1.32,1.32,0,0,0-1.16.6A3.17,3.17,0,0,0,99.4,431.69Z"/>
    <path class="cls-11" d="M110.47,433.76h4.2V435h-5.8V425.8h1.6Z"/>
    <path class="cls-11" d="M118.77,435.17a3.19,3.19,0,0,1-2.37-.92,3.35,3.35,0,0,1-.91-2.46v-.19a4.18,4.18,0,0,1,.39-1.84A3.05,3.05,0,0,1,117,428.5a3,3,0,0,1,1.6-.45,2.68,2.68,0,0,1,2.16.9,3.77,3.77,0,0,1,.77,2.53v.62H117a2.1,2.1,0,0,0,.57,1.35,1.7,1.7,0,0,0,1.25.49,2.09,2.09,0,0,0,1.73-.86l.83.8a2.68,2.68,0,0,1-1.1.95A3.4,3.4,0,0,1,118.77,435.17Zm-.18-5.88a1.31,1.31,0,0,0-1,.44,2.31,2.31,0,0,0-.5,1.24H120v-.11a2,2,0,0,0-.42-1.18A1.29,1.29,0,0,0,118.59,429.29Z"/>
    <path class="cls-11" d="M126.58,433.18a.71.71,0,0,0-.34-.63,3.83,3.83,0,0,0-1.13-.38,5.87,5.87,0,0,1-1.32-.42,1.76,1.76,0,0,1-1.15-1.62,1.81,1.81,0,0,1,.75-1.48,2.94,2.94,0,0,1,1.9-.6,3.05,3.05,0,0,1,2,.61,1.92,1.92,0,0,1,.76,1.58H126.5a1,1,0,0,0-.33-.74,1.25,1.25,0,0,0-.88-.29,1.38,1.38,0,0,0-.83.23.76.76,0,0,0-.32.63.62.62,0,0,0,.3.55,4.32,4.32,0,0,0,1.21.4,5.72,5.72,0,0,1,1.42.47,2.05,2.05,0,0,1,.77.67,1.67,1.67,0,0,1,.25.94,1.79,1.79,0,0,1-.77,1.5,3.28,3.28,0,0,1-2,.57,3.59,3.59,0,0,1-1.5-.3,2.62,2.62,0,0,1-1-.84,2,2,0,0,1-.37-1.15h1.5a1.1,1.1,0,0,0,.41.84,1.92,1.92,0,0,0,1.94.07A.74.74,0,0,0,126.58,433.18Z"/>
    <path class="cls-11" d="M133.29,433.18a.71.71,0,0,0-.34-.63,3.83,3.83,0,0,0-1.13-.38,5.87,5.87,0,0,1-1.32-.42,1.76,1.76,0,0,1-1.15-1.62,1.81,1.81,0,0,1,.75-1.48,2.94,2.94,0,0,1,1.9-.6,3.05,3.05,0,0,1,2,.61,1.92,1.92,0,0,1,.76,1.58h-1.54a1,1,0,0,0-.33-.74,1.25,1.25,0,0,0-.88-.29,1.38,1.38,0,0,0-.83.23.76.76,0,0,0-.32.63.62.62,0,0,0,.3.55,4.32,4.32,0,0,0,1.21.4,5.72,5.72,0,0,1,1.42.47,2.05,2.05,0,0,1,.77.67,1.67,1.67,0,0,1,.25.94,1.79,1.79,0,0,1-.77,1.5,3.28,3.28,0,0,1-2,.57,3.59,3.59,0,0,1-1.5-.3,2.62,2.62,0,0,1-1-.84,2,2,0,0,1-.37-1.15h1.5a1.1,1.1,0,0,0,.41.84,1.92,1.92,0,0,0,1.94.07A.74.74,0,0,0,133.29,433.18Z"/>
    <path class="cls-11" d="M135.86,431.55a4,4,0,0,1,.4-1.82,2.9,2.9,0,0,1,1.12-1.25,3.16,3.16,0,0,1,1.66-.43,3,3,0,0,1,2.26.9,3.5,3.5,0,0,1,.94,2.37v.36a4.12,4.12,0,0,1-.39,1.82,2.84,2.84,0,0,1-1.12,1.23,3.09,3.09,0,0,1-1.67.44,3,3,0,0,1-2.33-1,3.7,3.7,0,0,1-.87-2.58Zm1.54.13a2.71,2.71,0,0,0,.44,1.66,1.41,1.41,0,0,0,1.22.6,1.39,1.39,0,0,0,1.21-.61,3.06,3.06,0,0,0,.44-1.78,2.69,2.69,0,0,0-.45-1.65,1.51,1.51,0,0,0-2.42,0A3,3,0,0,0,137.4,431.68Z"/>
    <path class="cls-11" d="M145,428.18l0,.79a2.49,2.49,0,0,1,2-.92q2.14,0,2.19,2.46V435h-1.55V430.6a1.41,1.41,0,0,0-.28-1,1.19,1.19,0,0,0-.92-.32,1.47,1.47,0,0,0-1.39.85V435h-1.55v-6.86Z"/>
    <path class="cls-11" d="M154.63,433.18a.71.71,0,0,0-.34-.63,3.83,3.83,0,0,0-1.13-.38,5.87,5.87,0,0,1-1.32-.42,1.76,1.76,0,0,1-1.15-1.62,1.81,1.81,0,0,1,.75-1.48,2.94,2.94,0,0,1,1.9-.6,3.05,3.05,0,0,1,2,.61,1.92,1.92,0,0,1,.76,1.58h-1.54a1,1,0,0,0-.33-.74,1.25,1.25,0,0,0-.88-.29,1.36,1.36,0,0,0-.83.23.76.76,0,0,0-.32.63.62.62,0,0,0,.3.55,4.32,4.32,0,0,0,1.21.4,5.72,5.72,0,0,1,1.42.47,2.05,2.05,0,0,1,.77.67,1.67,1.67,0,0,1,.25.94,1.79,1.79,0,0,1-.77,1.5,3.28,3.28,0,0,1-2,.57,3.59,3.59,0,0,1-1.5-.3,2.62,2.62,0,0,1-1-.84,2,2,0,0,1-.37-1.15H152a1.1,1.1,0,0,0,.41.84,1.92,1.92,0,0,0,1.94.07A.74.74,0,0,0,154.63,433.18Z"/>
    <path class="cls-11" d="M162.48,433.76h4.19V435h-5.8V425.8h1.61Z"/>
    <path class="cls-11" d="M170.78,435.17a3.22,3.22,0,0,1-2.38-.92,3.39,3.39,0,0,1-.91-2.46v-.19a4.18,4.18,0,0,1,.4-1.84A3,3,0,0,1,169,428.5a3,3,0,0,1,1.6-.45,2.69,2.69,0,0,1,2.17.9,3.77,3.77,0,0,1,.77,2.53v.62h-4.49a2,2,0,0,0,.57,1.35,1.7,1.7,0,0,0,1.25.49,2.1,2.1,0,0,0,1.73-.86l.83.8a2.74,2.74,0,0,1-1.1.95A3.43,3.43,0,0,1,170.78,435.17Zm-.18-5.88a1.32,1.32,0,0,0-1,.44,2.39,2.39,0,0,0-.5,1.24H172v-.11a1.89,1.89,0,0,0-.41-1.18A1.3,1.3,0,0,0,170.6,429.29Z"/>
    <path class="cls-11" d="M178.84,435a2.2,2.2,0,0,1-.18-.64,2.37,2.37,0,0,1-1.8.77,2.43,2.43,0,0,1-1.69-.59,1.88,1.88,0,0,1-.66-1.46,2,2,0,0,1,.82-1.68,3.88,3.88,0,0,1,2.33-.59h1v-.45a1.22,1.22,0,0,0-.3-.86,1.2,1.2,0,0,0-.91-.32,1.32,1.32,0,0,0-.86.27.8.8,0,0,0-.34.67h-1.54a1.71,1.71,0,0,1,.37-1.06,2.51,2.51,0,0,1,1-.77,3.52,3.52,0,0,1,1.44-.28,2.84,2.84,0,0,1,1.92.61,2.14,2.14,0,0,1,.74,1.7v3.1a3.57,3.57,0,0,0,.26,1.48v.1Zm-1.7-1.11a1.72,1.72,0,0,0,.86-.22,1.51,1.51,0,0,0,.61-.59v-1.3h-.83a2.28,2.28,0,0,0-1.29.3,1,1,0,0,0-.43.84.88.88,0,0,0,.29.71A1.13,1.13,0,0,0,177.14,433.93Z"/>
    <path class="cls-11" d="M185.36,429.59a3.22,3.22,0,0,0-.63,0,1.41,1.41,0,0,0-1.42.81V435h-1.55v-6.86h1.48l0,.77a1.75,1.75,0,0,1,1.55-.9,1.47,1.47,0,0,1,.55.09Z"/>
    <path class="cls-11" d="M187.77,428.18l0,.79a2.49,2.49,0,0,1,2-.92q2.15,0,2.19,2.46V435h-1.55V430.6a1.41,1.41,0,0,0-.28-1,1.19,1.19,0,0,0-.92-.32,1.47,1.47,0,0,0-1.39.85V435h-1.55v-6.86Z"/>
    <path class="cls-11" d="M196.59,435.17a3.22,3.22,0,0,1-2.38-.92,3.39,3.39,0,0,1-.91-2.46v-.19a4,4,0,0,1,.4-1.84,2.95,2.95,0,0,1,2.71-1.71,2.69,2.69,0,0,1,2.17.9,3.77,3.77,0,0,1,.77,2.53v.62h-4.49a2,2,0,0,0,.57,1.35,1.7,1.7,0,0,0,1.25.49,2.1,2.1,0,0,0,1.73-.86l.83.8a2.81,2.81,0,0,1-1.1.95A3.43,3.43,0,0,1,196.59,435.17Zm-.18-5.88a1.32,1.32,0,0,0-1,.44,2.39,2.39,0,0,0-.5,1.24h2.94v-.11a1.89,1.89,0,0,0-.41-1.18A1.3,1.3,0,0,0,196.41,429.29Z"/>
    <path class="cls-11" d="M200.25,431.56A4.09,4.09,0,0,1,201,429a2.36,2.36,0,0,1,2-1,2.24,2.24,0,0,1,1.77.76v-3.52h1.54V435h-1.4l-.07-.71a2.28,2.28,0,0,1-1.85.84,2.34,2.34,0,0,1-1.95-1A4.22,4.22,0,0,1,200.25,431.56Zm1.54.13a2.86,2.86,0,0,0,.41,1.64,1.31,1.31,0,0,0,1.14.59,1.47,1.47,0,0,0,1.39-.85v-2.93a1.44,1.44,0,0,0-1.37-.83,1.32,1.32,0,0,0-1.16.6A3.16,3.16,0,0,0,201.79,431.69Z"/>
  </g>
  <rect class="cls-10" x="359.54" y="40.72" width="148" height="66.51"/>
  <g>
    <path class="cls-11" d="M405.21,65.85v3.42H403.6V60h3.54a3.58,3.58,0,0,1,2.46.81,2.74,2.74,0,0,1,.91,2.13,2.65,2.65,0,0,1-.89,2.12,3.79,3.79,0,0,1-2.5.76Zm0-1.3h1.93a1.87,1.87,0,0,0,1.3-.4,1.49,1.49,0,0,0,.45-1.17,1.58,1.58,0,0,0-.45-1.19,1.74,1.74,0,0,0-1.26-.46h-2Z"/>
    <path class="cls-11" d="M413.4,69.27h-1.54V59.52h1.54Z"/>
    <path class="cls-11" d="M419.18,69.27a2.66,2.66,0,0,1-.17-.64,2.41,2.41,0,0,1-1.81.77,2.45,2.45,0,0,1-1.69-.59,1.9,1.9,0,0,1-.65-1.46,2,2,0,0,1,.82-1.69,4,4,0,0,1,2.33-.58H419v-.45a1.22,1.22,0,0,0-.3-.86,1.2,1.2,0,0,0-.91-.32,1.32,1.32,0,0,0-.86.27.79.79,0,0,0-.34.67H415a1.71,1.71,0,0,1,.37-1.06,2.43,2.43,0,0,1,1-.77,3.52,3.52,0,0,1,1.44-.28,2.9,2.9,0,0,1,1.92.6,2.17,2.17,0,0,1,.74,1.71v3.1a3.45,3.45,0,0,0,.26,1.48v.1Zm-1.69-1.11a1.75,1.75,0,0,0,.86-.22,1.53,1.53,0,0,0,.61-.6V66.05h-.84a2.28,2.28,0,0,0-1.29.3,1,1,0,0,0-.43.84.9.9,0,0,0,.3.71A1.17,1.17,0,0,0,417.49,68.16Z"/>
    <path class="cls-11" d="M423.54,62.4l0,.8a2.45,2.45,0,0,1,2-.92c1.43,0,2.16.82,2.18,2.45v4.54h-1.54V64.82a1.42,1.42,0,0,0-.28-1,1.24,1.24,0,0,0-.93-.31,1.49,1.49,0,0,0-1.39.85v4.88h-1.54V62.4Z"/>
    <path class="cls-11" d="M433.19,67.41a.69.69,0,0,0-.34-.63,3.4,3.4,0,0,0-1.12-.38,5.71,5.71,0,0,1-1.32-.42,1.74,1.74,0,0,1-1.15-1.62,1.84,1.84,0,0,1,.75-1.49,3,3,0,0,1,1.9-.59,3.07,3.07,0,0,1,2,.61,1.91,1.91,0,0,1,.76,1.58h-1.54a1,1,0,0,0-.33-.74,1.27,1.27,0,0,0-.88-.3,1.36,1.36,0,0,0-.83.24.73.73,0,0,0-.32.63.63.63,0,0,0,.3.55,4.32,4.32,0,0,0,1.21.4,5.72,5.72,0,0,1,1.42.47,2.13,2.13,0,0,1,.77.66,1.69,1.69,0,0,1,.25.94,1.82,1.82,0,0,1-.77,1.51,3.28,3.28,0,0,1-2,.57,3.59,3.59,0,0,1-1.5-.3,2.55,2.55,0,0,1-1-.84,2,2,0,0,1-.37-1.15h1.5a1.1,1.1,0,0,0,.41.84,1.58,1.58,0,0,0,1,.29,1.54,1.54,0,0,0,.93-.23A.7.7,0,0,0,433.19,67.41Z"/>
    <path class="cls-11" d="M443.39,69.27a2.66,2.66,0,0,1-.17-.64,2.41,2.41,0,0,1-1.81.77,2.45,2.45,0,0,1-1.69-.59,1.9,1.9,0,0,1-.65-1.46,2,2,0,0,1,.82-1.69,4,4,0,0,1,2.33-.58h.95v-.45a1.22,1.22,0,0,0-.3-.86,1.2,1.2,0,0,0-.91-.32,1.32,1.32,0,0,0-.86.27.79.79,0,0,0-.34.67h-1.54a1.71,1.71,0,0,1,.37-1.06,2.43,2.43,0,0,1,1-.77,3.52,3.52,0,0,1,1.44-.28,2.9,2.9,0,0,1,1.92.6,2.17,2.17,0,0,1,.74,1.71v3.1a3.45,3.45,0,0,0,.26,1.48v.1Zm-1.69-1.11a1.75,1.75,0,0,0,.86-.22,1.53,1.53,0,0,0,.61-.6V66.05h-.84a2.28,2.28,0,0,0-1.29.3,1,1,0,0,0-.43.84.9.9,0,0,0,.3.71A1.17,1.17,0,0,0,441.7,68.16Z"/>
    <path class="cls-11" d="M447.75,62.4l.05.8a2.45,2.45,0,0,1,2-.92c1.43,0,2.16.82,2.18,2.45v4.54h-1.54V64.82a1.42,1.42,0,0,0-.28-1,1.24,1.24,0,0,0-.93-.31,1.49,1.49,0,0,0-1.39.85v4.88H446.3V62.4Z"/>
    <path class="cls-11" d="M453.27,65.79a4.09,4.09,0,0,1,.73-2.55,2.36,2.36,0,0,1,2-1,2.24,2.24,0,0,1,1.76.76V59.52h1.54v9.75h-1.39l-.08-.71a2.28,2.28,0,0,1-1.85.84,2.34,2.34,0,0,1-1.95-1A4.22,4.22,0,0,1,453.27,65.79Zm1.54.13a2.88,2.88,0,0,0,.4,1.64,1.31,1.31,0,0,0,1.15.58,1.45,1.45,0,0,0,1.38-.84V64.37a1.43,1.43,0,0,0-1.37-.83,1.33,1.33,0,0,0-1.16.59A3.23,3.23,0,0,0,454.81,65.92Z"/>
    <path class="cls-11" d="M402.22,82.85v3.42h-1.61V77h3.54a3.58,3.58,0,0,1,2.46.81,2.7,2.7,0,0,1,.91,2.13,2.65,2.65,0,0,1-.89,2.12,3.79,3.79,0,0,1-2.5.76Zm0-1.3h1.93a1.9,1.9,0,0,0,1.31-.4,1.49,1.49,0,0,0,.45-1.17,1.55,1.55,0,0,0-.46-1.19,1.71,1.71,0,0,0-1.26-.46h-2Z"/>
    <path class="cls-11" d="M412.37,80.81a4.23,4.23,0,0,0-.63,0,1.42,1.42,0,0,0-1.43.82v4.69h-1.54V79.4h1.47l0,.77a1.75,1.75,0,0,1,1.55-.89,1.47,1.47,0,0,1,.55.09Z"/>
    <path class="cls-11" d="M412.83,82.77a4,4,0,0,1,.4-1.81,2.9,2.9,0,0,1,1.12-1.25,3.16,3.16,0,0,1,1.66-.43,3,3,0,0,1,2.26.89,3.54,3.54,0,0,1,.94,2.38v.36a4,4,0,0,1-.39,1.81A2.85,2.85,0,0,1,417.71,86a3.24,3.24,0,0,1-1.68.44,3,3,0,0,1-2.33-1,3.7,3.7,0,0,1-.87-2.58Zm1.54.14a2.77,2.77,0,0,0,.44,1.66,1.42,1.42,0,0,0,1.22.6,1.39,1.39,0,0,0,1.21-.61,3.07,3.07,0,0,0,.44-1.79,2.74,2.74,0,0,0-.45-1.65,1.52,1.52,0,0,0-2.42,0A3,3,0,0,0,414.37,82.91Z"/>
    <path class="cls-11" d="M423.34,85.17a1.39,1.39,0,0,0,1-.34,1.12,1.12,0,0,0,.4-.83h1.46a2.29,2.29,0,0,1-.4,1.2,2.66,2.66,0,0,1-1,.88,3.11,3.11,0,0,1-1.38.32,2.94,2.94,0,0,1-2.29-.93,3.71,3.71,0,0,1-.84-2.58v-.16a3.64,3.64,0,0,1,.84-2.51,2.89,2.89,0,0,1,2.28-.94,2.86,2.86,0,0,1,2,.71,2.6,2.6,0,0,1,.81,1.88H424.7a1.37,1.37,0,0,0-.4-1,1.27,1.27,0,0,0-1-.38,1.37,1.37,0,0,0-1.16.54,2.74,2.74,0,0,0-.41,1.65V83a2.89,2.89,0,0,0,.4,1.67A1.36,1.36,0,0,0,423.34,85.17Z"/>
    <path class="cls-11" d="M430.35,86.4a3.22,3.22,0,0,1-2.38-.92,3.35,3.35,0,0,1-.91-2.46v-.19a4,4,0,0,1,.4-1.84,2.95,2.95,0,0,1,2.71-1.71,2.73,2.73,0,0,1,2.17.89,3.8,3.8,0,0,1,.76,2.54v.62h-4.49a2.07,2.07,0,0,0,.57,1.34,1.71,1.71,0,0,0,1.26.5,2.09,2.09,0,0,0,1.72-.86l.83.79a2.7,2.7,0,0,1-1.1,1A3.38,3.38,0,0,1,430.35,86.4Zm-.19-5.88a1.28,1.28,0,0,0-1,.44,2.31,2.31,0,0,0-.5,1.24h2.94v-.12a1.94,1.94,0,0,0-.41-1.17A1.33,1.33,0,0,0,430.16,80.52Z"/>
    <path class="cls-11" d="M434,82.79a4,4,0,0,1,.74-2.55,2.35,2.35,0,0,1,2-1,2.21,2.21,0,0,1,1.76.76V76.52H440v9.75h-1.4l-.08-.71a2.26,2.26,0,0,1-1.84.84,2.35,2.35,0,0,1-2-1A4.29,4.29,0,0,1,434,82.79Zm1.54.13a2.88,2.88,0,0,0,.41,1.64,1.29,1.29,0,0,0,1.14.58,1.45,1.45,0,0,0,1.38-.84V81.37a1.43,1.43,0,0,0-1.37-.83,1.32,1.32,0,0,0-1.15.59A3.22,3.22,0,0,0,435.55,82.92Z"/>
    <path class="cls-11" d="M445.8,85.6a2.42,2.42,0,0,1-1.93.8,2.13,2.13,0,0,1-1.69-.65,2.77,2.77,0,0,1-.58-1.9V79.4h1.54v4.44c0,.87.37,1.3,1.09,1.3a1.54,1.54,0,0,0,1.52-.8V79.4h1.54v6.87h-1.46Z"/>
    <path class="cls-11" d="M452.46,80.81a4.46,4.46,0,0,0-.63,0,1.4,1.4,0,0,0-1.43.82v4.69h-1.54V79.4h1.47l0,.77a1.75,1.75,0,0,1,1.55-.89,1.38,1.38,0,0,1,.54.09Z"/>
    <path class="cls-11" d="M456.45,86.4a3.19,3.19,0,0,1-2.37-.92,3.35,3.35,0,0,1-.91-2.46v-.19a4.18,4.18,0,0,1,.39-1.84,3.05,3.05,0,0,1,1.12-1.26,3,3,0,0,1,1.6-.45,2.7,2.7,0,0,1,2.16.89,3.8,3.8,0,0,1,.77,2.54v.62h-4.49a2.07,2.07,0,0,0,.57,1.34,1.7,1.7,0,0,0,1.25.5,2.09,2.09,0,0,0,1.73-.86l.83.79a2.7,2.7,0,0,1-1.1,1A3.4,3.4,0,0,1,456.45,86.4Zm-.18-5.88a1.28,1.28,0,0,0-1,.44,2.31,2.31,0,0,0-.5,1.24h2.94v-.12a2,2,0,0,0-.42-1.17A1.29,1.29,0,0,0,456.27,80.52Z"/>
    <path class="cls-11" d="M464.26,84.41a.71.71,0,0,0-.34-.63,3.56,3.56,0,0,0-1.13-.38,5.87,5.87,0,0,1-1.32-.42,1.76,1.76,0,0,1-1.15-1.62,1.84,1.84,0,0,1,.75-1.49,3,3,0,0,1,1.9-.59,3.05,3.05,0,0,1,2,.61,1.91,1.91,0,0,1,.76,1.58h-1.54a1,1,0,0,0-.33-.74,1.25,1.25,0,0,0-.88-.3,1.36,1.36,0,0,0-.83.24.73.73,0,0,0-.32.63.63.63,0,0,0,.3.55,4.32,4.32,0,0,0,1.21.4,5.72,5.72,0,0,1,1.42.47,2.13,2.13,0,0,1,.77.66,1.69,1.69,0,0,1,.25.94,1.79,1.79,0,0,1-.77,1.51,3.28,3.28,0,0,1-2,.57,3.59,3.59,0,0,1-1.5-.3,2.62,2.62,0,0,1-1-.84,2,2,0,0,1-.37-1.15h1.5A1.1,1.1,0,0,0,462,85a1.59,1.59,0,0,0,1,.29,1.52,1.52,0,0,0,.93-.23A.71.71,0,0,0,464.26,84.41Z"/>
  </g>
  <rect class="cls-10" x="71.04" y="40.72" width="148" height="66.51"/>
  <g>
    <path class="cls-11" d="M89.9,69.27V60h2.73a4.19,4.19,0,0,1,2.17.55,3.61,3.61,0,0,1,1.47,1.55,4.83,4.83,0,0,1,.52,2.29v.47a4.92,4.92,0,0,1-.52,2.31,3.72,3.72,0,0,1-1.49,1.53,4.5,4.5,0,0,1-2.22.54Zm1.61-7.94V68h1a2.39,2.39,0,0,0,1.94-.79,3.46,3.46,0,0,0,.69-2.27v-.51a3.56,3.56,0,0,0-.65-2.3,2.32,2.32,0,0,0-1.9-.79Z"/>
    <path class="cls-11" d="M101.27,69.4a3.22,3.22,0,0,1-2.38-.92A3.39,3.39,0,0,1,98,66v-.19a4,4,0,0,1,.4-1.84,2.95,2.95,0,0,1,2.71-1.71,2.71,2.71,0,0,1,2.17.89,3.8,3.8,0,0,1,.76,2.54v.62H99.54a2,2,0,0,0,.57,1.34,1.7,1.7,0,0,0,1.25.5,2.1,2.1,0,0,0,1.73-.86l.83.79a2.83,2.83,0,0,1-1.1,1A3.43,3.43,0,0,1,101.27,69.4Zm-.18-5.88a1.28,1.28,0,0,0-1,.44,2.31,2.31,0,0,0-.5,1.24h2.94v-.12a1.88,1.88,0,0,0-.41-1.17A1.3,1.3,0,0,0,101.09,63.52Z"/>
    <path class="cls-11" d="M107.56,67.32,109,62.4h1.6l-2.38,6.87h-1.34l-2.4-6.87h1.6Z"/>
    <path class="cls-11" d="M114.59,69.4a3.19,3.19,0,0,1-2.37-.92,3.35,3.35,0,0,1-.91-2.46v-.19A4.18,4.18,0,0,1,111.7,64a3.05,3.05,0,0,1,1.12-1.26,2.93,2.93,0,0,1,1.6-.45,2.7,2.7,0,0,1,2.16.89,3.8,3.8,0,0,1,.77,2.54v.62h-4.49a2.07,2.07,0,0,0,.57,1.34,1.7,1.7,0,0,0,1.25.5,2.1,2.1,0,0,0,1.73-.86l.83.79a2.7,2.7,0,0,1-1.1,1A3.4,3.4,0,0,1,114.59,69.4Zm-.18-5.88a1.31,1.31,0,0,0-1,.44,2.3,2.3,0,0,0-.49,1.24h2.94v-.12a2,2,0,0,0-.42-1.17A1.29,1.29,0,0,0,114.41,63.52Z"/>
    <path class="cls-11" d="M120.19,69.27h-1.55V59.52h1.55Z"/>
    <path class="cls-11" d="M121.58,65.77A4,4,0,0,1,122,64a2.9,2.9,0,0,1,1.12-1.25,3.16,3.16,0,0,1,1.66-.43,3,3,0,0,1,2.26.89,3.54,3.54,0,0,1,.94,2.38v.36a4,4,0,0,1-.39,1.81A2.81,2.81,0,0,1,126.45,69a3.18,3.18,0,0,1-1.67.44,3,3,0,0,1-2.33-1,3.7,3.7,0,0,1-.87-2.58Zm1.54.14a2.71,2.71,0,0,0,.44,1.66,1.52,1.52,0,0,0,2.43,0,3.07,3.07,0,0,0,.44-1.79,2.74,2.74,0,0,0-.45-1.65,1.45,1.45,0,0,0-1.22-.6,1.43,1.43,0,0,0-1.2.6A3,3,0,0,0,123.12,65.91Z"/>
    <path class="cls-11" d="M135.28,65.91a4.1,4.1,0,0,1-.72,2.54,2.51,2.51,0,0,1-3.75.21v3.25h-1.55V62.4h1.43l.06.7a2.26,2.26,0,0,1,1.85-.82,2.36,2.36,0,0,1,2,.93,4.25,4.25,0,0,1,.71,2.6Zm-1.53-.14a2.91,2.91,0,0,0-.41-1.63,1.35,1.35,0,0,0-1.18-.6,1.4,1.4,0,0,0-1.35.78v3.05a1.43,1.43,0,0,0,1.37.8,1.33,1.33,0,0,0,1.15-.6A3.1,3.1,0,0,0,133.75,65.77Z"/>
    <path class="cls-11" d="M147,66.26a3.3,3.3,0,0,1-1.09,2.31,3.72,3.72,0,0,1-2.53.83,3.6,3.6,0,0,1-2-.52,3.42,3.42,0,0,1-1.29-1.49,5.27,5.27,0,0,1-.48-2.24v-.87a5.37,5.37,0,0,1,.46-2.3,3.53,3.53,0,0,1,1.33-1.54,3.73,3.73,0,0,1,2-.54,3.57,3.57,0,0,1,2.46.83A3.47,3.47,0,0,1,147,63.08h-1.6a2.24,2.24,0,0,0-.58-1.44,1.92,1.92,0,0,0-1.36-.44,1.87,1.87,0,0,0-1.61.76,3.82,3.82,0,0,0-.58,2.25V65a4.06,4.06,0,0,0,.54,2.29,1.79,1.79,0,0,0,1.57.78,2.09,2.09,0,0,0,1.42-.42,2.18,2.18,0,0,0,.6-1.42Z"/>
    <path class="cls-11" d="M148,65.77a4,4,0,0,1,.4-1.81,3,3,0,0,1,1.12-1.25,3.2,3.2,0,0,1,1.67-.43,3,3,0,0,1,2.25.89,3.54,3.54,0,0,1,.94,2.38v.36a4,4,0,0,1-.39,1.81A2.87,2.87,0,0,1,152.9,69a3.19,3.19,0,0,1-1.68.44,3,3,0,0,1-2.33-1,3.7,3.7,0,0,1-.87-2.58Zm1.54.14a2.77,2.77,0,0,0,.44,1.66,1.42,1.42,0,0,0,1.22.6,1.41,1.41,0,0,0,1.22-.61,3.07,3.07,0,0,0,.43-1.79,2.74,2.74,0,0,0-.45-1.65,1.42,1.42,0,0,0-1.21-.6,1.4,1.4,0,0,0-1.2.6A3,3,0,0,0,149.56,65.91Z"/>
    <path class="cls-11" d="M159.31,63.81a4.46,4.46,0,0,0-.63-.05,1.41,1.41,0,0,0-1.43.82v4.69h-1.54V62.4h1.47l0,.77a1.75,1.75,0,0,1,1.55-.89,1.38,1.38,0,0,1,.54.09Z"/>
    <path class="cls-11" d="M163.88,63.81a4.46,4.46,0,0,0-.63-.05,1.41,1.41,0,0,0-1.43.82v4.69h-1.54V62.4h1.47l0,.77a1.75,1.75,0,0,1,1.55-.89,1.38,1.38,0,0,1,.54.09Z"/>
    <path class="cls-11" d="M167.88,69.4a3.22,3.22,0,0,1-2.38-.92,3.35,3.35,0,0,1-.91-2.46v-.19A4.18,4.18,0,0,1,165,64a3.05,3.05,0,0,1,1.12-1.26,3,3,0,0,1,1.6-.45,2.73,2.73,0,0,1,2.17.89,3.8,3.8,0,0,1,.76,2.54v.62h-4.49a2.07,2.07,0,0,0,.57,1.34,1.7,1.7,0,0,0,1.25.5,2.09,2.09,0,0,0,1.73-.86l.83.79a2.7,2.7,0,0,1-1.1,1A3.38,3.38,0,0,1,167.88,69.4Zm-.19-5.88a1.28,1.28,0,0,0-1,.44,2.31,2.31,0,0,0-.5,1.24h2.94v-.12a1.88,1.88,0,0,0-.42-1.17A1.29,1.29,0,0,0,167.69,63.52Z"/>
    <path class="cls-11" d="M174.65,68.17a1.39,1.39,0,0,0,1-.34A1.12,1.12,0,0,0,176,67h1.46a2.29,2.29,0,0,1-.4,1.2,2.66,2.66,0,0,1-1,.88,3.11,3.11,0,0,1-1.38.32,3,3,0,0,1-2.29-.93,3.71,3.71,0,0,1-.84-2.58v-.16a3.64,3.64,0,0,1,.84-2.51,2.89,2.89,0,0,1,2.28-.94,2.86,2.86,0,0,1,2,.71,2.6,2.6,0,0,1,.81,1.88H176a1.37,1.37,0,0,0-.4-1,1.27,1.27,0,0,0-1-.38,1.37,1.37,0,0,0-1.16.54,2.74,2.74,0,0,0-.41,1.65V66a2.89,2.89,0,0,0,.4,1.67A1.36,1.36,0,0,0,174.65,68.17Z"/>
    <path class="cls-11" d="M180.56,60.74V62.4h1.22v1.15h-1.22v3.83a.88.88,0,0,0,.16.57.71.71,0,0,0,.56.17,2.62,2.62,0,0,0,.54-.06v1.19a3.76,3.76,0,0,1-1,.15c-1.18,0-1.78-.65-1.78-2V63.55h-1.13V62.4H179V60.74Z"/>
    <path class="cls-11" d="M183,60.62a.82.82,0,0,1,.22-.59.85.85,0,0,1,.65-.23.82.82,0,0,1,.64.23.78.78,0,0,1,.23.59.76.76,0,0,1-.23.58.82.82,0,0,1-.64.23.85.85,0,0,1-.65-.23A.79.79,0,0,1,183,60.62Zm1.64,8.65h-1.55V62.4h1.55Z"/>
    <path class="cls-11" d="M188.7,67.32l1.45-4.92h1.59l-2.38,6.87H188l-2.4-6.87h1.6Z"/>
    <path class="cls-11" d="M195.73,69.4a3.22,3.22,0,0,1-2.38-.92,3.35,3.35,0,0,1-.91-2.46v-.19a4,4,0,0,1,.4-1.84,2.95,2.95,0,0,1,2.71-1.71,2.71,2.71,0,0,1,2.17.89,3.8,3.8,0,0,1,.76,2.54v.62H194a2,2,0,0,0,.56,1.34,1.73,1.73,0,0,0,1.26.5,2.09,2.09,0,0,0,1.72-.86l.84.79a2.79,2.79,0,0,1-1.11,1A3.35,3.35,0,0,1,195.73,69.4Zm-.19-5.88a1.28,1.28,0,0,0-1,.44,2.31,2.31,0,0,0-.5,1.24H197v-.12a1.88,1.88,0,0,0-.41-1.17A1.31,1.31,0,0,0,195.54,63.52Z"/>
    <path class="cls-11" d="M118.23,84.12h-3.58l-.75,2.15h-1.67L115.72,77h1.44l3.5,9.24H119Zm-3.13-1.29h2.68L116.44,79Z"/>
    <path class="cls-11" d="M124.38,85.17a1.39,1.39,0,0,0,1-.34,1.12,1.12,0,0,0,.4-.83h1.46a2.29,2.29,0,0,1-.4,1.2,2.66,2.66,0,0,1-1,.88,3.11,3.11,0,0,1-1.38.32,3,3,0,0,1-2.29-.93,3.71,3.71,0,0,1-.84-2.58v-.16a3.64,3.64,0,0,1,.84-2.51,2.89,2.89,0,0,1,2.28-.94,2.86,2.86,0,0,1,2,.71,2.6,2.6,0,0,1,.81,1.88h-1.46a1.37,1.37,0,0,0-.4-1,1.27,1.27,0,0,0-1-.38,1.38,1.38,0,0,0-1.16.54,2.82,2.82,0,0,0-.41,1.65V83a2.89,2.89,0,0,0,.4,1.67A1.36,1.36,0,0,0,124.38,85.17Z"/>
    <path class="cls-11" d="M130.29,77.74V79.4h1.22v1.15h-1.22v3.83a.88.88,0,0,0,.16.57.71.71,0,0,0,.56.17,2.62,2.62,0,0,0,.54-.06v1.19a3.76,3.76,0,0,1-1,.15c-1.18,0-1.78-.65-1.78-2V80.55h-1.13V79.4h1.13V77.74Z"/>
    <path class="cls-11" d="M132.69,77.62a.82.82,0,0,1,.22-.59.85.85,0,0,1,.65-.23.86.86,0,0,1,.65.23.82.82,0,0,1,.22.59.79.79,0,0,1-.22.58.86.86,0,0,1-.65.23.85.85,0,0,1-.65-.23A.79.79,0,0,1,132.69,77.62Zm1.64,8.65h-1.55V79.4h1.55Z"/>
    <path class="cls-11" d="M135.72,82.77a4,4,0,0,1,.4-1.81,2.9,2.9,0,0,1,1.12-1.25,3.16,3.16,0,0,1,1.66-.43,3,3,0,0,1,2.26.89,3.54,3.54,0,0,1,.94,2.38v.36a4,4,0,0,1-.39,1.81A2.81,2.81,0,0,1,140.59,86a3.18,3.18,0,0,1-1.67.44,3,3,0,0,1-2.33-1,3.7,3.7,0,0,1-.87-2.58Zm1.54.14a2.71,2.71,0,0,0,.44,1.66,1.41,1.41,0,0,0,1.22.6,1.39,1.39,0,0,0,1.21-.61,3.07,3.07,0,0,0,.44-1.79,2.74,2.74,0,0,0-.45-1.65,1.52,1.52,0,0,0-2.42,0A3,3,0,0,0,137.26,82.91Z"/>
    <path class="cls-11" d="M144.84,79.4l0,.8a2.46,2.46,0,0,1,2-.92c1.43,0,2.16.82,2.18,2.45v4.54h-1.54V81.82a1.42,1.42,0,0,0-.28-1,1.23,1.23,0,0,0-.92-.31,1.47,1.47,0,0,0-1.39.85v4.88h-1.55V79.4Z"/>
    <path class="cls-11" d="M155.63,82.85v3.42H154V77h3.54a3.58,3.58,0,0,1,2.46.81,2.7,2.7,0,0,1,.91,2.13,2.65,2.65,0,0,1-.89,2.12,3.79,3.79,0,0,1-2.5.76Zm0-1.3h1.93a1.9,1.9,0,0,0,1.31-.4,1.49,1.49,0,0,0,.45-1.17,1.59,1.59,0,0,0-.46-1.19,1.72,1.72,0,0,0-1.26-.46h-2Z"/>
    <path class="cls-11" d="M163.82,86.27h-1.54V76.52h1.54Z"/>
    <path class="cls-11" d="M169.61,86.27a2.2,2.2,0,0,1-.18-.64,2.4,2.4,0,0,1-1.8.77,2.43,2.43,0,0,1-1.69-.59,1.88,1.88,0,0,1-.66-1.46,2,2,0,0,1,.82-1.69,4,4,0,0,1,2.33-.58h.95v-.45a1.22,1.22,0,0,0-.3-.86,1.2,1.2,0,0,0-.91-.32,1.32,1.32,0,0,0-.86.27.79.79,0,0,0-.34.67h-1.54a1.71,1.71,0,0,1,.37-1.06,2.43,2.43,0,0,1,1-.77,3.52,3.52,0,0,1,1.44-.28,2.88,2.88,0,0,1,1.92.6,2.17,2.17,0,0,1,.74,1.71v3.1a3.6,3.6,0,0,0,.26,1.48v.1Zm-1.7-1.11a1.72,1.72,0,0,0,.86-.22,1.53,1.53,0,0,0,.61-.6V83.05h-.83a2.23,2.23,0,0,0-1.29.3,1,1,0,0,0-.43.84.89.89,0,0,0,.29.71A1.17,1.17,0,0,0,167.91,85.16Z"/>
    <path class="cls-11" d="M174,79.4l0,.8a2.46,2.46,0,0,1,2-.92c1.43,0,2.16.82,2.18,2.45v4.54h-1.54V81.82a1.42,1.42,0,0,0-.28-1,1.23,1.23,0,0,0-.92-.31,1.47,1.47,0,0,0-1.39.85v4.88h-1.55V79.4Z"/>
  </g>
  <g>
    <path class="cls-11" d="M276.45,96.39l-108.1,46.7v11.77h242.3V143.09l-108.1-46.7A32.56,32.56,0,0,0,276.45,96.39Z"/>
    <rect class="cls-11" x="175.44" y="157.63" width="228.11" height="10.25"/>
    <rect class="cls-11" x="175.4" y="170.92" width="39.77" height="6.31"/>
    <rect class="cls-11" x="180.03" y="178.44" width="30.5" height="5.61"/>
    <rect class="cls-11" x="175.4" y="311.45" width="39.77" height="6.31"/>
    <rect class="cls-11" x="180.03" y="304.63" width="30.5" height="5.61"/>
    <rect class="cls-11" x="183.11" y="186.02" width="24.33" height="116.87"/>
    <rect class="cls-11" x="237.95" y="170.89" width="39.77" height="6.31"/>
    <rect class="cls-11" x="242.58" y="178.41" width="30.5" height="5.61"/>
    <rect class="cls-11" x="237.95" y="311.42" width="39.77" height="6.31"/>
    <rect class="cls-11" x="242.58" y="304.6" width="30.5" height="5.61"/>
    <rect class="cls-11" x="245.66" y="185.98" width="24.33" height="116.87"/>
    <rect class="cls-11" x="300.5" y="170.86" width="39.77" height="6.31"/>
    <rect class="cls-11" x="305.13" y="178.38" width="30.5" height="5.61"/>
    <rect class="cls-11" x="300.5" y="311.39" width="39.77" height="6.31"/>
    <rect class="cls-11" x="305.13" y="304.56" width="30.5" height="5.61"/>
    <rect class="cls-11" x="308.21" y="185.94" width="24.33" height="116.87"/>
    <rect class="cls-11" x="363.84" y="170.89" width="39.77" height="6.31"/>
    <rect class="cls-11" x="368.47" y="178.41" width="30.5" height="5.61"/>
    <rect class="cls-11" x="363.84" y="311.42" width="39.77" height="6.31"/>
    <rect class="cls-11" x="368.47" y="304.6" width="30.5" height="5.61"/>
    <rect class="cls-11" x="371.55" y="185.98" width="24.33" height="116.87"/>
    <rect class="cls-11" x="172.45" y="320.31" width="234.09" height="46.37"/>
  </g>
  <g>
    <path class="cls-10" d="M218.18,337.09a3.64,3.64,0,0,1-1.18,2.49,4,4,0,0,1-2.73.89,3.91,3.91,0,0,1-2.09-.56,3.68,3.68,0,0,1-1.4-1.61,5.66,5.66,0,0,1-.51-2.41V335a5.69,5.69,0,0,1,.5-2.48,3.76,3.76,0,0,1,1.43-1.66,4,4,0,0,1,2.15-.58,3.84,3.84,0,0,1,2.66.9,3.7,3.7,0,0,1,1.17,2.52h-1.73a2.5,2.5,0,0,0-.62-1.55,2.12,2.12,0,0,0-1.48-.47,2,2,0,0,0-1.73.82,4.16,4.16,0,0,0-.62,2.42v.88a4.36,4.36,0,0,0,.58,2.47,1.94,1.94,0,0,0,1.69.85,2.26,2.26,0,0,0,1.53-.46,2.37,2.37,0,0,0,.65-1.53Z"/>
    <path class="cls-10" d="M227.66,335.62a6,6,0,0,1-.5,2.56,3.85,3.85,0,0,1-1.45,1.7,4.25,4.25,0,0,1-4.32,0,3.9,3.9,0,0,1-1.46-1.69,5.76,5.76,0,0,1-.52-2.52v-.56a6.11,6.11,0,0,1,.51-2.57,4.06,4.06,0,0,1,5.77-1.71,3.8,3.8,0,0,1,1.45,1.68,5.84,5.84,0,0,1,.52,2.55Zm-1.73-.52a4.33,4.33,0,0,0-.62-2.54,2.21,2.21,0,0,0-3.53,0,4.19,4.19,0,0,0-.64,2.48v.58a4.34,4.34,0,0,0,.63,2.53,2.07,2.07,0,0,0,1.78.9,2,2,0,0,0,1.77-.88,4.41,4.41,0,0,0,.61-2.55Z"/>
    <path class="cls-10" d="M237.28,340.33h-1.73l-4.43-7.06v7.06h-1.73v-9.95h1.73l4.45,7.09v-7.09h1.71Z"/>
    <path class="cls-10" d="M246.52,331.77h-3.11v8.56H241.7v-8.56h-3.08v-1.39h7.9Z"/>
    <path class="cls-10" d="M249.65,340.33h-1.73v-9.95h1.73Z"/>
    <path class="cls-10" d="M259.67,340.33h-1.73l-4.44-7.06v7.06h-1.73v-9.95h1.73l4.45,7.09v-7.09h1.72Z"/>
    <path class="cls-10" d="M269,330.38V337a3.23,3.23,0,0,1-1,2.51,4.45,4.45,0,0,1-5.42,0,3.26,3.26,0,0,1-1-2.54v-6.64h1.72V337a2.14,2.14,0,0,0,.5,1.52,2,2,0,0,0,1.49.53c1.34,0,2-.7,2-2.11v-6.6Z"/>
    <path class="cls-10" d="M272.67,340.33h-1.73v-9.95h1.73Z"/>
    <path class="cls-10" d="M282,331.77h-3.1v8.56h-1.72v-8.56h-3.07v-1.39H282Z"/>
    <path class="cls-10" d="M286.64,335.1l2.29-4.72h1.92l-3.34,6.29v3.66h-1.73v-3.66l-3.35-6.29h1.92Z"/>
    <path class="cls-10" d="M297.14,336.64v3.69h-1.73v-9.95h3.81a3.85,3.85,0,0,1,2.65.87,2.93,2.93,0,0,1,1,2.3,2.85,2.85,0,0,1-1,2.28,4.06,4.06,0,0,1-2.69.81Zm0-1.39h2.08a2,2,0,0,0,1.41-.44,1.6,1.6,0,0,0,.49-1.25,1.72,1.72,0,0,0-.5-1.29,1.91,1.91,0,0,0-1.35-.5h-2.13Z"/>
    <path class="cls-10" d="M306.09,339h4.52v1.38h-6.25v-9.95h1.73Z"/>
    <path class="cls-10" d="M317.64,338h-3.86l-.8,2.31h-1.8l3.76-9.95h1.55l3.77,9.95h-1.81Zm-3.37-1.4h2.88l-1.44-4.13Z"/>
    <path class="cls-10" d="M329.28,340.33h-1.73l-4.44-7.06v7.06h-1.73v-9.95h1.73l4.45,7.09v-7.09h1.72Z"/>
    <path class="cls-10" d="M339.22,340.33h-1.73l-4.44-7.06v7.06h-1.73v-9.95h1.73l4.45,7.09v-7.09h1.72Z"/>
    <path class="cls-10" d="M343.09,340.33h-1.72v-9.95h1.72Z"/>
    <path class="cls-10" d="M353.11,340.33h-1.73l-4.44-7.06v7.06h-1.73v-9.95h1.73l4.45,7.09v-7.09h1.72Z"/>
    <path class="cls-10" d="M362.78,339a3.32,3.32,0,0,1-1.49,1.07,6.19,6.19,0,0,1-2.18.36,4.25,4.25,0,0,1-2.21-.57,3.77,3.77,0,0,1-1.49-1.62,5.62,5.62,0,0,1-.54-2.47V335a5.28,5.28,0,0,1,1.08-3.53,3.75,3.75,0,0,1,3-1.27,4,4,0,0,1,2.64.83,3.6,3.6,0,0,1,1.18,2.37h-1.7a1.91,1.91,0,0,0-2.08-1.8,2.05,2.05,0,0,0-1.77.83,4.36,4.36,0,0,0-.63,2.46v.76a4.09,4.09,0,0,0,.68,2.51,2.27,2.27,0,0,0,1.89.89,2.49,2.49,0,0,0,1.89-.6v-1.95H359v-1.31h3.77Z"/>
    <path class="cls-10" d="M367.75,337.65a2.27,2.27,0,0,1,.37-1.27,5.85,5.85,0,0,1,1.49-1.37,6.38,6.38,0,0,1-.82-1.25,2.61,2.61,0,0,1,.49-2.84,2.65,2.65,0,0,1,1.91-.68,2.54,2.54,0,0,1,1.78.64,2.09,2.09,0,0,1,.7,1.58,2.19,2.19,0,0,1-.32,1.15,3.6,3.6,0,0,1-1,1l-.68.49,1.92,2.27a3.9,3.9,0,0,0,.42-1.82h1.44a4.92,4.92,0,0,1-.86,3l1.46,1.73H374.1l-.56-.66a4.15,4.15,0,0,1-2.55.8,3.45,3.45,0,0,1-2.36-.78A2.59,2.59,0,0,1,367.75,337.65Zm3.29,1.49a2.48,2.48,0,0,0,1.57-.56L370.44,336l-.21.15a1.76,1.76,0,0,0-.82,1.42,1.5,1.5,0,0,0,.44,1.12A1.63,1.63,0,0,0,371,339.14Zm-.91-6.41a2.53,2.53,0,0,0,.7,1.44l.76-.52.21-.17a1.23,1.23,0,0,0,.42-1,.88.88,0,0,0-.29-.67,1.06,1.06,0,0,0-.75-.27,1,1,0,0,0-.77.32A1.23,1.23,0,0,0,370.13,332.73Z"/>
    <path class="cls-10" d="M212.31,353.64v3.69h-1.73v-9.95h3.81a3.86,3.86,0,0,1,2.65.87,2.93,2.93,0,0,1,1,2.3,2.85,2.85,0,0,1-1,2.28,4.06,4.06,0,0,1-2.69.81Zm0-1.39h2.08a2.07,2.07,0,0,0,1.41-.44,1.59,1.59,0,0,0,.48-1.25,1.71,1.71,0,0,0-.49-1.29,1.91,1.91,0,0,0-1.35-.5h-2.13Z"/>
    <path class="cls-10" d="M223.19,353.5h-1.93v3.83h-1.73v-9.95H223a4.11,4.11,0,0,1,2.66.77,2.75,2.75,0,0,1,.93,2.24,2.79,2.79,0,0,1-.48,1.67,3.06,3.06,0,0,1-1.34,1l2.23,4.14v.09h-1.85Zm-1.93-1.39H223a2,2,0,0,0,1.36-.44,1.54,1.54,0,0,0,.5-1.21,1.64,1.64,0,0,0-.46-1.23,1.89,1.89,0,0,0-1.36-.46h-1.82Z"/>
    <path class="cls-10" d="M236.21,352.62a6,6,0,0,1-.51,2.56,3.83,3.83,0,0,1-1.44,1.7,4.25,4.25,0,0,1-4.32,0,4,4,0,0,1-1.47-1.69,6.06,6.06,0,0,1-.52-2.52v-.56a6,6,0,0,1,.52-2.57,3.94,3.94,0,0,1,1.45-1.71,4.25,4.25,0,0,1,4.32,0,3.86,3.86,0,0,1,1.45,1.68,6.14,6.14,0,0,1,.52,2.55Zm-1.73-.52a4.33,4.33,0,0,0-.63-2.54,2.2,2.2,0,0,0-3.52,0,4.18,4.18,0,0,0-.65,2.48v.58a4.26,4.26,0,0,0,.64,2.53,2.06,2.06,0,0,0,1.77.9,2,2,0,0,0,1.77-.88,4.4,4.4,0,0,0,.62-2.55Z"/>
    <path class="cls-10" d="M245.56,356a3.3,3.3,0,0,1-1.5,1.07,6.09,6.09,0,0,1-2.17.36,4.29,4.29,0,0,1-2.22-.57,3.81,3.81,0,0,1-1.48-1.62,5.76,5.76,0,0,1-.55-2.47V352a5.28,5.28,0,0,1,1.08-3.53,3.77,3.77,0,0,1,3-1.27,4,4,0,0,1,2.64.83,3.55,3.55,0,0,1,1.17,2.37h-1.69a1.91,1.91,0,0,0-2.09-1.8,2,2,0,0,0-1.76.83,4.2,4.2,0,0,0-.63,2.46v.76a4.09,4.09,0,0,0,.68,2.51,2.24,2.24,0,0,0,1.89.89,2.52,2.52,0,0,0,1.89-.6v-1.95h-2.05v-1.31h3.77Z"/>
    <path class="cls-10" d="M251.12,353.5h-1.93v3.83h-1.73v-9.95H251a4.09,4.09,0,0,1,2.66.77,3.12,3.12,0,0,1,.45,3.91,3,3,0,0,1-1.34,1l2.24,4.14v.09h-1.86Zm-1.93-1.39H251a2,2,0,0,0,1.36-.44,1.54,1.54,0,0,0,.5-1.21,1.6,1.6,0,0,0-.46-1.23,1.88,1.88,0,0,0-1.35-.46h-1.83Z"/>
    <path class="cls-10" d="M261.77,355h-3.86l-.8,2.31h-1.8l3.76-9.95h1.55l3.77,9.95h-1.81Zm-3.37-1.4h2.88l-1.44-4.13Z"/>
    <path class="cls-10" d="M267.76,347.38l2.87,7.63,2.86-7.63h2.24v9.95H274v-3.28l.17-4.39-2.93,7.67H270l-2.93-7.66.17,4.38v3.28h-1.73v-9.95Z"/>
    <path class="cls-10" d="M283.5,347.38l2.87,7.63,2.87-7.63h2.23v9.95h-1.72v-3.28l.17-4.39L287,357.33h-1.24l-2.93-7.66.17,4.38v3.28h-1.72v-9.95Z"/>
    <path class="cls-10" d="M299.08,355h-3.85l-.81,2.31h-1.79l3.75-9.95h1.56l3.76,9.95h-1.8Zm-3.37-1.4h2.89l-1.44-4.13Z"/>
    <path class="cls-10" d="M310.73,357.33H309l-4.44-7.06v7.06h-1.73v-9.95h1.73l4.45,7.09v-7.09h1.72Z"/>
    <path class="cls-10" d="M318.34,355h-3.85l-.81,2.31h-1.8l3.76-9.95h1.55l3.77,9.95h-1.8Zm-3.37-1.4h2.89l-1.44-4.13Z"/>
    <path class="cls-10" d="M329.72,356a3.3,3.3,0,0,1-1.5,1.07,6.13,6.13,0,0,1-2.17.36,4.27,4.27,0,0,1-2.22-.57,3.83,3.83,0,0,1-1.49-1.62,5.76,5.76,0,0,1-.54-2.47V352a5.28,5.28,0,0,1,1.08-3.53,3.77,3.77,0,0,1,3-1.27,4,4,0,0,1,2.63.83,3.51,3.51,0,0,1,1.18,2.37H328a1.9,1.9,0,0,0-2.08-1.8,2.08,2.08,0,0,0-1.77.83,4.28,4.28,0,0,0-.62,2.46v.76a4,4,0,0,0,.68,2.51,2.24,2.24,0,0,0,1.89.89,2.48,2.48,0,0,0,1.88-.6v-1.95h-2.05v-1.31h3.78Z"/>
    <path class="cls-10" d="M337.43,352.89h-4.08V356h4.78v1.38h-6.51v-9.95h6.46v1.39h-4.73v2.75h4.08Z"/>
    <path class="cls-10" d="M341.78,347.38l2.87,7.63,2.86-7.63h2.24v9.95H348v-3.28l.17-4.39-2.94,7.67H344l-2.94-7.66.18,4.38v3.28h-1.73v-9.95Z"/>
    <path class="cls-10" d="M357.61,352.89h-4.09V356h4.78v1.38h-6.51v-9.95h6.46v1.39h-4.73v2.75h4.09Z"/>
    <path class="cls-10" d="M367.6,357.33h-1.73l-4.43-7.06v7.06h-1.73v-9.95h1.73l4.45,7.09v-7.09h1.71Z"/>
    <path class="cls-10" d="M376.84,348.77h-3.11v8.56H372v-8.56h-3.08v-1.39h7.9Z"/>
  </g>
  <g>
    <path class="cls-10" d="M215.35,140.76a3.6,3.6,0,0,1-1.18,2.49,4,4,0,0,1-2.72.89,3.84,3.84,0,0,1-2.1-.57A3.72,3.72,0,0,1,208,142a5.7,5.7,0,0,1-.51-2.41v-.93a5.84,5.84,0,0,1,.5-2.48,3.76,3.76,0,0,1,1.43-1.66,4.06,4.06,0,0,1,2.16-.58,3.86,3.86,0,0,1,2.65.89,3.75,3.75,0,0,1,1.17,2.53h-1.72a2.48,2.48,0,0,0-.63-1.55,2.37,2.37,0,0,0-3.21.35,4.17,4.17,0,0,0-.61,2.42v.88a4.44,4.44,0,0,0,.57,2.47,1.93,1.93,0,0,0,1.7.84,2.25,2.25,0,0,0,1.53-.45,2.42,2.42,0,0,0,.65-1.53Z"/>
    <path class="cls-10" d="M224.84,139.28a6,6,0,0,1-.51,2.57,3.9,3.9,0,0,1-1.44,1.7,4.25,4.25,0,0,1-4.32,0,3.92,3.92,0,0,1-1.47-1.69,5.91,5.91,0,0,1-.52-2.52v-.56a6,6,0,0,1,.52-2.57,3.94,3.94,0,0,1,1.45-1.71,4.25,4.25,0,0,1,4.32,0,3.86,3.86,0,0,1,1.45,1.68,6.14,6.14,0,0,1,.52,2.55Zm-1.73-.51a4.33,4.33,0,0,0-.63-2.54,2.2,2.2,0,0,0-3.52,0,4.18,4.18,0,0,0-.65,2.48v.57a4.3,4.3,0,0,0,.64,2.54,2.21,2.21,0,0,0,3.54,0,4.41,4.41,0,0,0,.62-2.56Z"/>
    <path class="cls-10" d="M234.46,144h-1.73l-4.44-7.06V144h-1.73v-9.95h1.73l4.45,7.09v-7.09h1.72Z"/>
    <path class="cls-10" d="M243.69,135.44h-3.1V144h-1.72v-8.56H235.8v-1.39h7.89Z"/>
    <path class="cls-10" d="M246.82,144H245.1v-9.95h1.72Z"/>
    <path class="cls-10" d="M256.84,144h-1.73l-4.43-7.06V144H249v-9.95h1.73l4.45,7.09v-7.09h1.71Z"/>
    <path class="cls-10" d="M266.17,134.05v6.65a3.22,3.22,0,0,1-1,2.51,3.85,3.85,0,0,1-2.7.93,3.94,3.94,0,0,1-2.72-.91,3.26,3.26,0,0,1-1-2.54v-6.64h1.72v6.66a2.1,2.1,0,0,0,.51,1.52,2,2,0,0,0,1.49.53c1.33,0,2-.7,2-2.11v-6.6Z"/>
    <path class="cls-10" d="M269.84,144h-1.72v-9.95h1.72Z"/>
    <path class="cls-10" d="M279.16,135.44h-3.11V144h-1.71v-8.56h-3.08v-1.39h7.9Z"/>
    <path class="cls-10" d="M283.82,138.77l2.29-4.72H288l-3.33,6.29V144H283v-3.66l-3.34-6.29h1.92Z"/>
    <path class="cls-10" d="M300.18,140.76a3.63,3.63,0,0,1-1.17,2.49,4.06,4.06,0,0,1-2.73.89,3.89,3.89,0,0,1-2.1-.57,3.63,3.63,0,0,1-1.39-1.6,5.85,5.85,0,0,1-.52-2.41v-.93a5.84,5.84,0,0,1,.5-2.48,3.78,3.78,0,0,1,1.44-1.66,4,4,0,0,1,2.15-.58,3.86,3.86,0,0,1,2.65.89,3.75,3.75,0,0,1,1.17,2.53h-1.72a2.42,2.42,0,0,0-.63-1.55,2,2,0,0,0-1.47-.47,2,2,0,0,0-1.73.82,4.09,4.09,0,0,0-.62,2.42v.88a4.36,4.36,0,0,0,.58,2.47,1.92,1.92,0,0,0,1.69.84,2.25,2.25,0,0,0,1.53-.45,2.42,2.42,0,0,0,.65-1.53Z"/>
    <path class="cls-10" d="M307.3,141.68h-3.86l-.8,2.32h-1.8l3.76-9.95h1.55l3.77,9.95h-1.81Zm-3.37-1.39h2.88l-1.44-4.13Z"/>
    <path class="cls-10" d="M312.77,140.31V144H311v-9.95h3.81a3.85,3.85,0,0,1,2.65.87,2.9,2.9,0,0,1,1,2.3,2.85,2.85,0,0,1-1,2.28,4,4,0,0,1-2.69.81Zm0-1.39h2.08a2,2,0,0,0,1.41-.44,1.61,1.61,0,0,0,.49-1.25,1.72,1.72,0,0,0-.5-1.29,1.89,1.89,0,0,0-1.35-.5h-2.13Z"/>
    <path class="cls-10" d="M324.35,141.68h-3.86l-.8,2.32h-1.8l3.76-9.95h1.55L327,144h-1.81ZM321,140.29h2.88l-1.44-4.13Z"/>
    <path class="cls-10" d="M328.09,144v-9.95h3.41a4.13,4.13,0,0,1,2.58.68,2.39,2.39,0,0,1,.88,2,2.17,2.17,0,0,1-.37,1.23,2.38,2.38,0,0,1-1.08.85,2.25,2.25,0,0,1,1.25.82,2.45,2.45,0,0,1,.44,1.46,2.65,2.65,0,0,1-.9,2.15,3.93,3.93,0,0,1-2.58.75Zm1.73-5.76h1.7a1.91,1.91,0,0,0,1.26-.37,1.25,1.25,0,0,0,.45-1,1.28,1.28,0,0,0-.42-1.07,2.1,2.1,0,0,0-1.31-.33h-1.68Zm0,1.27v3.11h1.92a1.87,1.87,0,0,0,1.28-.4,1.44,1.44,0,0,0,.45-1.12,1.41,1.41,0,0,0-1.58-1.59Z"/>
    <path class="cls-10" d="M338.75,144H337v-9.95h1.72Z"/>
    <path class="cls-10" d="M342.61,142.62h4.52V144h-6.25v-9.95h1.73Z"/>
    <path class="cls-10" d="M350.28,144h-1.73v-9.95h1.73Z"/>
    <path class="cls-10" d="M359.59,135.44h-3.1V144h-1.72v-8.56H351.7v-1.39h7.89Z"/>
    <path class="cls-10" d="M364.26,138.77l2.29-4.72h1.91l-3.33,6.29V144h-1.74v-3.66l-3.34-6.29H362Z"/>
  </g>
  <g>
    <path class="cls-10" d="M192,194.57v3.87h-1.18v-5.35h8.53v1.48Z"/>
    <path class="cls-10" d="M194.67,204.56v-3.5H192v4.1h-1.18v-5.58h8.53v5.53h-1.2v-4.05h-2.35v3.5Z"/>
    <path class="cls-10" d="M192.84,211.14v-3.31l-2-.69V205.6l8.53,3.22v1.33l-8.53,3.23v-1.54Zm1.2-2.89v2.47l3.54-1.23Z"/>
    <path class="cls-10" d="M190.86,214.35h8.53v2.52a4,4,0,0,1-.51,2,3.39,3.39,0,0,1-1.43,1.35,4.51,4.51,0,0,1-2.12.48h-.42a4.59,4.59,0,0,1-2.14-.48,3.43,3.43,0,0,1-1.42-1.38,4.14,4.14,0,0,1-.49-2Zm7.33,1.48H192v1a2.22,2.22,0,0,0,.73,1.79,3.16,3.16,0,0,0,2.09.63h.48a3.27,3.27,0,0,0,2.12-.6,2.13,2.13,0,0,0,.73-1.75Z"/>
    <path class="cls-10" d="M194.67,227.18v-3.51H192v4.1h-1.18v-5.58h8.53v5.54h-1.2v-4.06h-2.35v3.51Z"/>
    <path class="cls-10" d="M194.14,232.11v-1.65h-3.28V229h8.53v3a3.48,3.48,0,0,1-.66,2.28,2.36,2.36,0,0,1-1.92.81,2.4,2.4,0,0,1-1.44-.42,2.58,2.58,0,0,1-.88-1.15l-3.56,1.92h-.07v-1.59Zm1.19-1.65V232a1.7,1.7,0,0,0,.38,1.17,1.33,1.33,0,0,0,1,.42,1.41,1.41,0,0,0,1.06-.39,1.6,1.6,0,0,0,.38-1.16v-1.56Z"/>
    <path class="cls-10" d="M193.05,240.92a1,1,0,0,0,.87-.39,5,5,0,0,0,.62-1.43,6.26,6.26,0,0,1,.69-1.64,2.18,2.18,0,0,1,1.91-1.17,2.08,2.08,0,0,1,1.7.84,3.45,3.45,0,0,1,.67,2.19,3.63,3.63,0,0,1-.33,1.58,2.59,2.59,0,0,1-.94,1.1,2.34,2.34,0,0,1-1.34.4v-1.48a1.33,1.33,0,0,0,1-.42,1.7,1.7,0,0,0,.38-1.2,1.76,1.76,0,0,0-.31-1.12,1,1,0,0,0-.87-.41.94.94,0,0,0-.78.44,5,5,0,0,0-.61,1.43,6.41,6.41,0,0,1-.67,1.6,2.44,2.44,0,0,1-.87.88,2.22,2.22,0,0,1-1.14.28,2,2,0,0,1-1.7-.81,3.57,3.57,0,0,1-.63-2.22,4.1,4.1,0,0,1,.34-1.7,2.91,2.91,0,0,1,.95-1.21,2.33,2.33,0,0,1,1.41-.43v1.48a1.39,1.39,0,0,0-1.13.48,2.08,2.08,0,0,0-.4,1.38,1.82,1.82,0,0,0,.32,1.16A1,1,0,0,0,193.05,240.92Z"/>
    <path class="cls-10" d="M190.86,250.48V249h3.78v-3.81h-3.78V243.7h8.53v1.49h-3.55V249h3.55v1.48Z"/>
    <path class="cls-10" d="M190.86,253.79v-1.47h8.53v1.47Z"/>
    <path class="cls-10" d="M194,257.1h-3.16v-1.48h8.53v3.26a3.29,3.29,0,0,1-.75,2.27,2.49,2.49,0,0,1-2,.84,2.41,2.41,0,0,1-1.95-.82,3.45,3.45,0,0,1-.7-2.31Zm1.2,0v1.78a1.75,1.75,0,0,0,.37,1.21,1.38,1.38,0,0,0,1.07.41,1.5,1.5,0,0,0,1.11-.42,1.61,1.61,0,0,0,.42-1.16V257.1Z"/>
  </g>
  <g>
    <path class="cls-10" d="M256.15,197.54a1,1,0,0,0,.87-.39,4.64,4.64,0,0,0,.61-1.43,6.76,6.76,0,0,1,.7-1.64,2.16,2.16,0,0,1,1.91-1.16,2.07,2.07,0,0,1,1.69.84,3.36,3.36,0,0,1,.67,2.18,3.71,3.71,0,0,1-.33,1.59,2.55,2.55,0,0,1-.93,1.09,2.34,2.34,0,0,1-1.34.4v-1.48a1.36,1.36,0,0,0,1-.41,1.74,1.74,0,0,0,.38-1.2,1.79,1.79,0,0,0-.31-1.13,1,1,0,0,0-.87-.4.93.93,0,0,0-.78.43,5.11,5.11,0,0,0-.61,1.43,6.63,6.63,0,0,1-.67,1.6,2.75,2.75,0,0,1-.87.89,2.36,2.36,0,0,1-1.15.28,2,2,0,0,1-1.69-.82,3.55,3.55,0,0,1-.63-2.22,4.13,4.13,0,0,1,.34-1.7,2.83,2.83,0,0,1,.95-1.21,2.39,2.39,0,0,1,1.4-.43v1.48a1.37,1.37,0,0,0-1.12.48A2.1,2.1,0,0,0,255,196a1.79,1.79,0,0,0,.31,1.16A1,1,0,0,0,256.15,197.54Z"/>
    <path class="cls-10" d="M261.29,206.49v-2.66H254v-1.47h7.34v-2.64h1.2v6.77Z"/>
    <path class="cls-10" d="M255.94,211.68v-3.3l-2-.69v-1.54l8.54,3.22v1.33L254,213.93v-1.55Zm1.2-2.89v2.48l3.53-1.24Z"/>
    <path class="cls-10" d="M257.57,219.81v-3.43H254v-1.49h8.54v5.42h-1.2v-3.93h-2.54v3.43Z"/>
    <path class="cls-10" d="M257.57,226.4V223H254v-1.48h8.54v5.42h-1.2V223h-2.54v3.43Z"/>
  </g>
  <g>
    <path class="cls-10" d="M319.72,198v-3.43H316.1v-1.48h8.53v5.42h-1.19v-3.94H320.9V198Z"/>
    <path class="cls-10" d="M318.09,203.33V200l-2-.69v-1.54l8.53,3.22v1.33l-8.53,3.23V204Zm1.19-2.89v2.47l3.54-1.23Z"/>
    <path class="cls-10" d="M318.88,213.05a3.08,3.08,0,0,1-2.13-1,3.43,3.43,0,0,1-.76-2.34,3.3,3.3,0,0,1,.48-1.79,3.15,3.15,0,0,1,1.37-1.2,5,5,0,0,1,2.07-.44h.8a4.9,4.9,0,0,1,2.12.43,3.16,3.16,0,0,1,1.42,1.22,3.46,3.46,0,0,1,.5,1.85,3.32,3.32,0,0,1-.76,2.28,3.26,3.26,0,0,1-2.17,1v-1.48a2.16,2.16,0,0,0,1.33-.53,1.79,1.79,0,0,0,.41-1.27,1.73,1.73,0,0,0-.71-1.48,3.51,3.51,0,0,0-2.07-.53H320a3.74,3.74,0,0,0-2.11.49,1.64,1.64,0,0,0-.73,1.45,2,2,0,0,0,.39,1.32,2.07,2.07,0,0,0,1.31.55Z"/>
    <path class="cls-10" d="M316.1,215.94v-1.48h8.53v1.48Z"/>
    <path class="cls-10" d="M317.29,219.24v3.87H316.1v-5.35h8.53v1.48Z"/>
    <path class="cls-10" d="M316.1,225.82v-1.48h8.53v1.48Z"/>
    <path class="cls-10" d="M323.44,233.8v-2.66H316.1v-1.47h7.34V227h1.19v6.77Z"/>
    <path class="cls-10" d="M316.1,236.49V235h8.53v1.48Z"/>
    <path class="cls-10" d="M319.91,243.29v-3.5h-2.62v4.1H316.1v-5.58h8.53v5.54h-1.19v-4.06h-2.36v3.5Z"/>
    <path class="cls-10" d="M318.3,249.55a1.06,1.06,0,0,0,.87-.39,4.75,4.75,0,0,0,.61-1.43,7.21,7.21,0,0,1,.69-1.64,2.2,2.2,0,0,1,1.91-1.17,2.07,2.07,0,0,1,1.7.84,3.39,3.39,0,0,1,.67,2.19,3.63,3.63,0,0,1-.33,1.58,2.64,2.64,0,0,1-.93,1.1,2.38,2.38,0,0,1-1.35.4v-1.48a1.33,1.33,0,0,0,1.05-.42,1.73,1.73,0,0,0,.38-1.19,1.83,1.83,0,0,0-.31-1.13,1,1,0,0,0-.87-.4.93.93,0,0,0-.78.43,5,5,0,0,0-.61,1.43,6.39,6.39,0,0,1-.68,1.6,2.5,2.5,0,0,1-.86.88,2.25,2.25,0,0,1-1.15.28,2,2,0,0,1-1.69-.81A3.57,3.57,0,0,1,316,248a4.1,4.1,0,0,1,.34-1.7,2.89,2.89,0,0,1,.94-1.21,2.38,2.38,0,0,1,1.41-.43v1.48a1.37,1.37,0,0,0-1.12.48,2.08,2.08,0,0,0-.4,1.38,1.81,1.81,0,0,0,.31,1.16A1,1,0,0,0,318.3,249.55Z"/>
  </g>
  <g>
    <path class="cls-10" d="M382.92,199.6a3.12,3.12,0,0,1-2.13-1,3.45,3.45,0,0,1-.77-2.34,3.28,3.28,0,0,1,.49-1.8,3.19,3.19,0,0,1,1.37-1.19,4.78,4.78,0,0,1,2.07-.44h.8a5,5,0,0,1,2.12.42,3.24,3.24,0,0,1,1.42,1.23,3.44,3.44,0,0,1,.5,1.85,3.29,3.29,0,0,1-.77,2.27,3.2,3.2,0,0,1-2.16,1v-1.48a2.1,2.1,0,0,0,1.33-.54,1.77,1.77,0,0,0,.4-1.26,1.75,1.75,0,0,0-.7-1.49,3.62,3.62,0,0,0-2.08-.53h-.75a3.71,3.71,0,0,0-2.11.5,1.63,1.63,0,0,0-.73,1.45,1.92,1.92,0,0,0,.39,1.31,2.08,2.08,0,0,0,1.31.56Z"/>
    <path class="cls-10" d="M384.18,207.73a5.23,5.23,0,0,1-2.2-.44,3.26,3.26,0,0,1-1.45-1.23,3.63,3.63,0,0,1,0-3.71A3.32,3.32,0,0,1,382,201.1a5,5,0,0,1,2.17-.45h.48a5.27,5.27,0,0,1,2.2.44,3.33,3.33,0,0,1,1.46,1.25,3.38,3.38,0,0,1,.51,1.85,3.49,3.49,0,0,1-.5,1.85,3.37,3.37,0,0,1-1.44,1.24,5.19,5.19,0,0,1-2.19.45Zm.45-1.48a3.7,3.7,0,0,0,2.17-.54,1.89,1.89,0,0,0,0-3,3.64,3.64,0,0,0-2.13-.56h-.5a3.66,3.66,0,0,0-2.17.55,1.9,1.9,0,0,0,0,3,3.81,3.81,0,0,0,2.19.53Z"/>
    <path class="cls-10" d="M388.67,211.13l-6.54,2.46,6.54,2.45V218h-8.53v-1.48H383l3.76.15-6.57-2.52v-1.06l6.57-2.52-3.76.15h-2.81V209.2h8.53Z"/>
    <path class="cls-10" d="M388.67,221.63l-6.54,2.46,6.54,2.46v1.91h-8.53V227H383l3.76.14-6.57-2.52v-1.06l6.57-2.51-3.76.15h-2.81v-1.48h8.53Z"/>
    <path class="cls-10" d="M388.67,236.46H383a2.76,2.76,0,0,1-2.15-.87,3.8,3.8,0,0,1,0-4.65,2.79,2.79,0,0,1,2.17-.86h5.69v1.48H383a1.79,1.79,0,0,0-1.3.43,1.71,1.71,0,0,0-.45,1.28q0,1.71,1.8,1.71h5.66Z"/>
    <path class="cls-10" d="M380.14,244.81v-1.49l6.05-3.8h-6.05V238h8.53v1.48l-6.07,3.82h6.07v1.47Z"/>
    <path class="cls-10" d="M380.14,248.12v-1.47h8.53v1.47Z"/>
    <path class="cls-10" d="M382.92,256.45a3.07,3.07,0,0,1-2.13-1,3.45,3.45,0,0,1-.77-2.34,3.28,3.28,0,0,1,.49-1.8,3.22,3.22,0,0,1,1.37-1.2,4.93,4.93,0,0,1,2.07-.43h.8a5,5,0,0,1,2.12.42,3.24,3.24,0,0,1,1.42,1.23,3.44,3.44,0,0,1,.5,1.85,3.29,3.29,0,0,1-.77,2.27,3.15,3.15,0,0,1-2.16,1V255a2.1,2.1,0,0,0,1.33-.54,1.78,1.78,0,0,0,.4-1.26,1.74,1.74,0,0,0-.7-1.49,3.62,3.62,0,0,0-2.08-.53h-.75a3.71,3.71,0,0,0-2.11.5,1.63,1.63,0,0,0-.73,1.45,1.92,1.92,0,0,0,.39,1.31,2.08,2.08,0,0,0,1.31.56Z"/>
    <path class="cls-10" d="M382.13,262.55v-3.3l-2-.69V257l8.53,3.22v1.33l-8.53,3.23v-1.55Zm1.19-2.88v2.47l3.54-1.24Z"/>
    <path class="cls-10" d="M387.48,271.23v-2.66h-7.34v-1.48h7.34v-2.63h1.19v6.77Z"/>
    <path class="cls-10" d="M380.14,273.91v-1.48h8.53v1.48Z"/>
    <path class="cls-10" d="M384.18,282.54a5.24,5.24,0,0,1-2.2-.43,3.34,3.34,0,0,1-1.45-1.24,3.42,3.42,0,0,1,1.44-5,5.28,5.28,0,0,1,2.17-.45h.48a5.27,5.27,0,0,1,2.2.44,3.28,3.28,0,0,1,2,3.1,3.46,3.46,0,0,1-.5,1.85,3.3,3.3,0,0,1-1.44,1.24,5,5,0,0,1-2.19.45Zm.45-1.48a3.7,3.7,0,0,0,2.17-.54,1.89,1.89,0,0,0,0-3,3.72,3.72,0,0,0-2.13-.56h-.5a3.74,3.74,0,0,0-2.17.55,1.9,1.9,0,0,0,0,3,3.81,3.81,0,0,0,2.19.53Z"/>
    <path class="cls-10" d="M380.14,290.78V289.3l6.05-3.8h-6.05V284h8.53v1.48l-6.07,3.81h6.07v1.47Z"/>
    <path class="cls-10" d="M382.34,297a1.06,1.06,0,0,0,.87-.4,4.9,4.9,0,0,0,.61-1.43,7.41,7.41,0,0,1,.69-1.64,2.19,2.19,0,0,1,1.91-1.16,2.07,2.07,0,0,1,1.7.84,3.38,3.38,0,0,1,.67,2.18,3.71,3.71,0,0,1-.33,1.59,2.61,2.61,0,0,1-.93,1.09,2.4,2.4,0,0,1-1.35.4V297a1.33,1.33,0,0,0,1.05-.42,1.74,1.74,0,0,0,.38-1.2,1.79,1.79,0,0,0-.32-1.13,1,1,0,0,0-.86-.4.92.92,0,0,0-.78.43,4.83,4.83,0,0,0-.61,1.43,6.61,6.61,0,0,1-.68,1.6,2.63,2.63,0,0,1-.86.89,2.36,2.36,0,0,1-1.15.28,2,2,0,0,1-1.7-.82,3.53,3.53,0,0,1-.63-2.22,4.17,4.17,0,0,1,.35-1.7,2.81,2.81,0,0,1,.94-1.21,2.4,2.4,0,0,1,1.41-.43v1.48a1.4,1.4,0,0,0-1.13.49,2.11,2.11,0,0,0-.39,1.37,1.84,1.84,0,0,0,.31,1.17A1,1,0,0,0,382.34,297Z"/>
  </g>
</svg>
