<svg xmlns="http://www.w3.org/2000/svg" viewBox="0 0 676 496"><title>coop</title><polygon points="267.44 394.46 396.22 319.87 346.87 291.23 409.29 296.69 458.64 325.33 329.86 399.92 267.44 394.46" style="opacity:0.2"/><polygon points="346.87 291.23 217.36 365.82 217.36 170.67 346.87 96.08 346.87 291.23" style="fill:#336273"/><polygon points="349.49 97.59 349.49 125.18 340.58 120.04 220.29 189.48 219.99 172.19 349.49 97.59" style="fill:#123054"/><polygon points="362.92 132.93 242.62 202.38 250.89 207.15 371.19 137.71 362.92 132.93" style="fill:#fff"/><polygon points="358.78 130.54 238.49 199.99 242.62 202.38 362.92 132.93 358.78 130.54" style="fill:#bbc2c6"/><polygon points="354.64 128.16 234.35 197.6 238.49 199.99 358.78 130.54 354.64 128.16" style="fill:#fff"/><polygon points="383.57 144.86 263.28 214.3 267.41 216.69 387.71 147.24 383.57 144.86" style="fill:#bbc2c6"/><polygon points="379.44 142.47 259.14 211.91 263.28 214.3 383.57 144.86 379.44 142.47" style="fill:#fff"/><polygon points="346.38 123.38 226.08 192.83 234.35 197.6 354.64 128.16 346.38 123.38" style="fill:#bbc2c6"/><polygon points="340.58 120.04 220.29 189.48 226.08 192.83 346.38 123.38 340.58 120.04" style="fill:#fff"/><polygon points="371.17 137.69 250.87 207.14 259.14 211.91 379.44 142.47 371.17 137.69" style="fill:#bbc2c6"/><polygon points="267.44 394.46 217.36 365.82 217.36 170.67 267.44 199.31 267.44 394.46" style="fill:#1b4a83"/><polygon points="256.55 313.1 228.25 296.71 228.25 188.18 256.55 204.57 256.55 313.1" style="fill:#fff"/><path d="M253.61,354.25c0,7.1-5,10-11.13,6.43s-11.13-12.18-11.13-19.28,5-10,11.13-6.43S253.61,347.16,253.61,354.25Z" style="fill:#225da5"/><polygon points="252.92 212.69 232.6 201 232.6 203.7 252.92 215.38 252.92 212.69" style="fill:#a7b9ba"/><polygon points="252.92 218.98 232.6 207.3 232.6 210 252.92 221.68 252.92 218.98" style="fill:#a7b9ba"/><polygon points="252.92 225.28 232.6 213.6 232.6 216.3 252.92 227.98 252.92 225.28" style="fill:#a7b9ba"/><polygon points="252.92 231.58 232.6 219.9 232.6 222.59 252.92 234.28 252.92 231.58" style="fill:#a7b9ba"/><polygon points="252.92 237.88 232.6 226.2 232.6 228.89 252.92 240.57 252.92 237.88" style="fill:#a7b9ba"/><polygon points="252.92 244.18 232.6 232.5 232.6 235.19 252.92 246.87 252.92 244.18" style="fill:#a7b9ba"/><polygon points="252.92 250.47 232.6 238.79 232.6 241.49 252.92 253.17 252.92 250.47" style="fill:#a7b9ba"/><path d="M242.48,335c-2.62-1.51-5-1.85-6.93-1.2-1.51,1.32-2.43,3.57-2.43,6.6,0,7.1,5,15.73,11.13,19.28,2.62,1.51,5,1.85,6.93,1.2,1.51-1.32,2.43-3.57,2.43-6.6C253.61,347.16,248.63,338.52,242.48,335Z" style="fill:#0f1e23"/><polygon points="396.22 319.87 267.44 394.46 267.44 199.31 396.22 124.72 396.22 319.87" style="fill:#123054"/><polygon points="396.22 124.72 393.59 123.21 267.44 196.28 222.61 170.67 349.49 97.59 346.87 96.08 219.99 169.15 217.36 170.67 264.81 197.8 264.81 197.8 267.44 199.31 270.06 197.8 270.06 197.8 396.22 124.72" style="fill:#225da5"/><path d="M282.1,273a32.09,32.09,0,0,1,3-12.13,26.78,26.78,0,0,1,5.83-8.53l.1,0,.73,2a24.23,24.23,0,0,0-3.8,6.92,32.45,32.45,0,0,0-1.9,9.82l0,.43q-.28,5.57,1,8.42t3.28,3.45l-1,2.78-.1,0q-3,.23-5.26-3t-1.89-9.72Z" style="fill:#fff"/><path d="M311.25,260l0,.08a12.91,12.91,0,0,1-2.58,7.22,17.85,17.85,0,0,1-6.65,5.53q-4.21,2.11-6.71.67t-2.28-5.81l.24-4.73a16.41,16.41,0,0,1,2.92-8.38,17.36,17.36,0,0,1,6.79-6.06q4.31-2.13,6.61-1.08t2.06,5l0,.11-4.52,2.25q.11-2.34-.93-3t-3.37.46a8,8,0,0,0-3.41,3.38,11.29,11.29,0,0,0-1.45,5l-.24,4.75q-.14,2.73,1.08,3.82t3.42,0a7.61,7.61,0,0,0,4.51-6.91Z" style="fill:#fff"/><path d="M333.17,247.48a16.45,16.45,0,0,1-3,8.5,18.36,18.36,0,0,1-7.09,6.32q-4.26,2.14-6.8.63T314,257.06l.2-4.26a16.55,16.55,0,0,1,3-8.49,18,18,0,0,1,7-6.25q4.27-2.11,6.81-.61t2.35,5.81Zm-4.4-2q.13-2.75-1.13-3.85t-3.61.07a8.72,8.72,0,0,0-3.73,3.57,11.34,11.34,0,0,0-1.51,5.18l-.2,4.29q-.13,2.81,1.1,3.93t3.58-.06A8.93,8.93,0,0,0,327,255a11.34,11.34,0,0,0,1.53-5.23Z" style="fill:#fff"/><path d="M355,236.57A16.29,16.29,0,0,1,352.1,245a18,18,0,0,1-7,6.26q-4.21,2.11-6.72.61T336.06,246l.19-4.22a16.39,16.39,0,0,1,2.94-8.42,17.69,17.69,0,0,1,6.94-6.19q4.22-2.09,6.74-.59t2.34,5.77Zm-4.36-2q.12-2.73-1.13-3.82t-3.57.06a8.57,8.57,0,0,0-3.68,3.53,11.24,11.24,0,0,0-1.48,5.14l-.19,4.26q-.12,2.79,1.1,3.9t3.54,0A8.79,8.79,0,0,0,349,244a11.24,11.24,0,0,0,1.5-5.19Z" style="fill:#fff"/><path d="M363.05,233.65l-.35,8.45-4.53,2.27,1-23.29,9-4.43q3.86-1.91,6-1t2,4.25a11.56,11.56,0,0,1-2.42,6.44,16.75,16.75,0,0,1-6.16,5.06Zm.15-3.6,4.45-2.22a7.19,7.19,0,0,0,2.89-2.48,6.18,6.18,0,0,0,1.08-3.18,2.42,2.42,0,0,0-.85-2.28q-.92-.61-2.81.33l-4.44,2.2Z" style="fill:#fff"/><path d="M386.25,221.42a30.57,30.57,0,0,1-2.82,11.72,26.19,26.19,0,0,1-5.63,8.43l-.09,0-.74-1.87a23.76,23.76,0,0,0,3.56-6.74,31.57,31.57,0,0,0,1.72-9.56l0-.41q.21-5.33-1.05-8.13t-3.14-3.41l.91-2.66.09,0q2.92-.2,5.17,3t2,9.27Z" style="fill:#fff"/></svg>