<svg xmlns="http://www.w3.org/2000/svg" viewBox="0 0 579 498"><title>coop-clipboard</title><path d="M257.93,352.69,133.78,281a4.4,4.4,0,0,1-2.57-3.72c0-1.68,1.23-3.46,3.63-4.84L314.51,168.72c4.39-2.53,11-2.81,14.83-.61l124.15,71.68a4.4,4.4,0,0,1,2.57,3.72c0,1.68-1.23,3.46-3.63,4.84L272.76,352.07C268.37,354.61,261.73,354.88,257.93,352.69Z" style="fill:#333"/><polygon points="266.83 346.23 144.96 275.87 320.45 174.56 442.31 244.92 266.83 346.23" style="fill:#fff"/><path d="M366.88,186.32l55.05,31.79c2.89,1.67,2.89,4.38,0,6l-9.47,5.47a11.59,11.59,0,0,1-10.47,0l-55.05-31.79c-2.89-1.67-2.89-4.38,0-6l9.47-5.47A11.59,11.59,0,0,1,366.88,186.32Zm37.51,41.92a6.28,6.28,0,0,0,5.67,0l9.47-5.47c1.56-.9,1.56-2.37,0-3.27l-55.05-31.79a6.28,6.28,0,0,0-5.67,0l-9.47,5.47c-1.56.9-1.56,2.37,0,3.27Z" style="fill:#bcc1c6"/><path d="M351.36,190.62a1.1,1.1,0,0,1,0,2.08l-1.43.83a1.36,1.36,0,0,0,0,2.58l1.38.79a1.1,1.1,0,0,1,0,2.08,4,4,0,0,1-3.6,0l-1.38-.79c-3.22-1.86-3.22-4.88,0-6.74l1.43-.83A4,4,0,0,1,351.36,190.62Z" style="fill:#333"/><path d="M414.46,227.08a1.1,1.1,0,0,1,0,2.08l-1.38.79a12.92,12.92,0,0,1-11.67,0l-1.43-.83a1.1,1.1,0,0,1,0-2.08,4,4,0,0,1,3.6,0l1.43.83a5,5,0,0,0,4.47,0l1.38-.79A4,4,0,0,1,414.46,227.08Z" style="fill:#333"/><path d="M257.93,352.69,133.78,281a4.4,4.4,0,0,1-2.57-3.72V281a4.4,4.4,0,0,0,2.57,3.72l124.15,71.68a13.39,13.39,0,0,0,6.83,1.47v-3.69A13.39,13.39,0,0,1,257.93,352.69Z" style="fill:#1a1a1a"/><path d="M452.43,248.34,272.76,352.07a17.11,17.11,0,0,1-8,2.09v3.69a17.11,17.11,0,0,0,8-2.09L452.43,252c2.4-1.39,3.63-3.16,3.63-4.84V243.5C456.06,245.18,454.83,247,452.43,248.34Z" style="fill:#0d0d0d"/><polygon points="257.19 243.71 335.3 288.47 332.36 290.16 254.25 245.41 257.19 243.71" style="fill:#bcc1c6"/><polygon points="263.8 239.47 341.91 284.22 338.98 285.92 260.87 241.16 263.8 239.47" style="fill:#bcc1c6"/><polygon points="270.42 235.22 348.53 279.98 345.59 281.67 267.48 236.92 270.42 235.22" style="fill:#bcc1c6"/><polygon points="252.38 228.01 261.7 233.27 252.73 238.45 243.42 233.19 252.38 228.01" style="fill:none;stroke:#bcc1c6;stroke-miterlimit:10"/><polygon points="224.36 244.03 233.67 249.28 224.71 254.46 215.4 249.2 224.36 244.03" style="fill:none;stroke:#bcc1c6;stroke-miterlimit:10"/><polygon points="195.34 262.04 204.65 267.3 195.68 272.48 186.37 267.22 195.34 262.04" style="fill:none;stroke:#bcc1c6;stroke-miterlimit:10"/><polygon points="217.23 267.5 295.34 312.25 292.4 313.95 214.29 269.19 217.23 267.5" style="fill:#bcc1c6"/><polygon points="233.86 257.25 311.97 302.01 309.03 303.7 230.92 258.95 233.86 257.25" style="fill:#bcc1c6"/><polygon points="240.47 253.01 318.58 297.76 315.65 299.46 237.54 254.7 240.47 253.01" style="fill:#bcc1c6"/><polygon points="197.47 280.18 275.58 324.93 272.64 326.63 194.53 281.87 197.47 280.18" style="fill:#bcc1c6"/><polygon points="204.09 275.93 282.2 320.69 279.26 322.39 201.15 277.63 204.09 275.93" style="fill:#bcc1c6"/><polygon points="210.71 271.69 288.81 316.45 285.88 318.14 207.77 273.38 210.71 271.69" style="fill:#bcc1c6"/><polyline points="250.83 230.33 250.83 234.67 264.83 232.17" style="fill:none;stroke:#89c348;stroke-miterlimit:10;stroke-width:2px"/><polyline points="222.83 246.33 222.83 250.67 236.83 248.17" style="fill:none;stroke:#89c348;stroke-miterlimit:10;stroke-width:2px"/><polyline points="194.17 264.5 194.17 268.83 208.17 266.33" style="fill:none;stroke:#89c348;stroke-miterlimit:10;stroke-width:2px"/><path d="M264.77,357.86l.7.06a7.93,7.93,0,0,0,1.57,0l1.82-.2a6,6,0,0,0,1.15-.24l2.5-.79a4.71,4.71,0,0,0,.9-.39l10.43-5.87,170-98.17a8.51,8.51,0,0,0,2.08-1.68l.63-.7a2.47,2.47,0,0,0,.45-.73l.09-.23a2.22,2.22,0,0,0-.35-2.24l-1.73-2.1-1.48-.13,2.57,3.11-2.57,3.89-182,105Z" style="opacity:0.3"/><path d="M293.68,365.35l5.41-3.44.66.38a3.53,3.53,0,0,0,2.63,0L380,316.53l1-4.17-82.84,43.51L294.7,359c-.16.14-.12.3.11.43l1.73,1-6.38,4c-.25.16-.23.35.05.51l.83.45A3.52,3.52,0,0,0,293.68,365.35Z" style="opacity:0.3"/><path d="M388.84,302.72a.87.87,0,0,1,.68.13,2.44,2.44,0,0,1,1,1.17,2.1,2.1,0,0,1,.17.78.87.87,0,0,1-.23.66l-10,9.34-1.84-3.19-2.8-4.86Z" style="fill:#6a6d71"/><path d="M294.64,353.51l80.75-46.62a1.6,1.6,0,0,1,.33-.14,2.57,2.57,0,0,1,2,.38,7.14,7.14,0,0,1,2.73,3.24l-83.05,48Z" style="fill:#4f5255"/><path d="M380.47,310.37a6.3,6.3,0,0,1,.58,2.5,2.57,2.57,0,0,1-.68,1.93,1.6,1.6,0,0,1-.29.21l-80.75,46.62-1.91-3.31Z" style="fill:#453f43"/><path d="M294.64,353.51a2.33,2.33,0,0,0-1,2.15A7.33,7.33,0,0,0,297,361.4a2,2,0,0,0,3.31-1.91,7.33,7.33,0,0,0-3.31-5.74A2.33,2.33,0,0,0,294.64,353.51Z" style="fill:#201b1e"/><path d="M287.14,360.11l8.48-4.9a1.35,1.35,0,0,1,1.36.13,3.87,3.87,0,0,1,1.3,1.34l-9.84,5.68Z" style="fill:#4f5255"/><path d="M298.29,356.69a4,4,0,0,1,.62,2,1.35,1.35,0,0,1-.56,1.24l-8.48,4.9-1.41-2.45Z" style="fill:#453f43"/><path d="M287.14,360.11a1.35,1.35,0,0,0-.56,1.24,4.25,4.25,0,0,0,1.92,3.33,1.17,1.17,0,0,0,1.92-1.11,4.25,4.25,0,0,0-1.92-3.33A1.35,1.35,0,0,0,287.14,360.11Z" style="fill:#201b1e"/><path d="M301.67,352.8v-1.1a1,1,0,0,1,.46-.8l28.19-16.28v-1l-28.65,16.54h0a1.87,1.87,0,0,0-.85,1.47h0v1.64Z" style="fill:#201b1e"/><path d="M299.19,348.76l28.65-16.54,2.48,1.43-28.65,16.54a1.75,1.75,0,0,0-.62.67l-2.48-1.43A1.75,1.75,0,0,1,299.19,348.76Z" style="fill:#453f43"/><path d="M301.05,350.86a1.71,1.71,0,0,0-.23.79v1.64l-2.48-1.43v-1.64a1.71,1.71,0,0,1,.23-.79Z" style="fill:#151214"/><path d="M312.36,219.06l-.05.07a12.22,12.22,0,0,1-6.84,2.5,12,12,0,0,1-7-1.86q-3.29-2-3.05-4.88t3.74-5.3l3.79-2.68a15.64,15.64,0,0,1,7.64-2.84,12.24,12.24,0,0,1,7.44,1.45c2.3,1.32,3.51,2.78,3.62,4.4s-.89,3.2-3,4.7l-.1,0-3.67-2.15q1.89-1.36,2-2.6t-1.75-2.3a5.76,5.76,0,0,0-4-.54,11.13,11.13,0,0,0-4.51,2l-3.82,2.72a6,6,0,0,0-2.61,3.19,2.33,2.33,0,0,0,1.33,2.68,5.5,5.5,0,0,0,3.54.85,8,8,0,0,0,3.75-1.59Z" style="fill:#141617"/><path d="M332.16,229.12a15.62,15.62,0,0,1-8.32,3.09,13.44,13.44,0,0,1-8.32-1.88q-3.57-2.2-3.4-5.29t3.75-5.66l3.48-2.53a15.72,15.72,0,0,1,8-3,13.56,13.56,0,0,1,8.13,1.66c2.45,1.4,3.69,3.12,3.71,5.17s-1.16,4-3.53,5.77Zm-.48-5a5.76,5.76,0,0,0,2.55-3.44q.29-1.74-1.73-2.91A6.62,6.62,0,0,0,328,217a11.09,11.09,0,0,0-4.79,2.08l-3.52,2.58a6.22,6.22,0,0,0-2.69,3.44q-.37,1.75,1.6,3a6.63,6.63,0,0,0,4.62.82,11.1,11.1,0,0,0,4.95-2.15Z" style="fill:#141617"/><path d="M352.11,241a15.47,15.47,0,0,1-8.56,3.22,14.26,14.26,0,0,1-8.76-2q-3.81-2.35-3.76-5.62t3.68-6l3.52-2.66a15.58,15.58,0,0,1,8.24-3.09,14.35,14.35,0,0,1,8.55,1.8c2.62,1.5,4,3.32,4.09,5.48s-1,4.21-3.44,6.08Zm-.71-5.31a5.73,5.73,0,0,0,2.52-3.62q.23-1.84-1.93-3.08a7,7,0,0,0-4.75-.81,11,11,0,0,0-4.91,2.17l-3.56,2.71a6.18,6.18,0,0,0-2.67,3.63q-.32,1.85,1.78,3.14a7,7,0,0,0,4.86.89,11,11,0,0,0,5.07-2.25Z" style="fill:#141617"/><path d="M358.92,246.43l-7.3,5.77-4.36-2.69L367.08,234l8.82,5q3.89,2.22,4.43,4.91t-2.3,5a10.86,10.86,0,0,1-6.86,2.38,14.64,14.64,0,0,1-7.86-2.26ZM362,244l4.39,2.6a6.29,6.29,0,0,0,3.76,1,5.88,5.88,0,0,0,3.29-1.28,3.05,3.05,0,0,0,1.38-2.45q0-1.3-1.94-2.4l-4.4-2.55Z" style="fill:#141617"/></svg>