<svg xmlns="http://www.w3.org/2000/svg" viewBox="0 0 579 498"><title>eop-icons</title><rect x="111.34" y="71.27" width="173.43" height="173.43" rx="11.98" ry="11.98" style="fill:#f9cb40"/><rect x="294.23" y="71.27" width="173.43" height="173.43" rx="11.98" ry="11.98" style="fill:#207c7e"/><rect x="111.34" y="253.31" width="173.43" height="173.43" rx="11.98" ry="11.98" style="fill:#5e89bd"/><rect x="294.23" y="253.31" width="173.43" height="173.43" rx="11.98" ry="11.98" style="fill:#e55934"/><path d="M202,223.25V206.53h15.58a4.72,4.72,0,0,0,4.72-4.72v-9.16a19.47,19.47,0,0,1,2.49-8.73l14.59-20.12a19.47,19.47,0,0,0,2.49-8.73V136.17a4.72,4.72,0,0,0-4.72-4.72H222.56v-30a4.6,4.6,0,1,0-9.2,0v30h-32v-30a4.6,4.6,0,1,0-9.2,0v30H157.61a4.72,4.72,0,0,0-4.72,4.72v18.89a19.47,19.47,0,0,0,2.49,8.73L170,183.91a19.47,19.47,0,0,1,2.49,8.73v9.16a4.72,4.72,0,0,0,4.72,4.72h15.58v16.73a4.6,4.6,0,1,0,9.2,0Z" style="fill:#fff"/><path d="M234.6,391.36H213.65c9.3-7.33,15.45-17.73,15.45-31.56A121.49,121.49,0,0,0,225.22,336a439,439,0,0,0-25.05-63.36c-.28-.56-.64-.84-1-.84s-.74.28-1,.85a437.73,437.73,0,0,0-25,63.36,119.9,119.9,0,0,0-3.92,23.76c0,13.83,6.06,24.88,15.45,31.56H163.71a4.83,4.83,0,0,0,0,9.66h33.63s-8.14-14.1-13.22-25.76a27.74,27.74,0,0,1-2.13-8.7q0-.21,0-.41c0-.26,0-.51,0-.77s0-.64,0-1c0-.09,0-.17,0-.26v-.08c0-.09,0-.17,0-.26,0-.32,0-.65,0-1s0-.51,0-.77,0-.28,0-.43a27.41,27.41,0,0,1,2.15-8.69,148.09,148.09,0,0,1,14.43-25.09.68.68,0,0,1,1.17,0A148.57,148.57,0,0,1,214.19,353a27.74,27.74,0,0,1,2.13,8.7q0,.21,0,.41c0,.26,0,.51,0,.77s0,.64,0,1c0,.09,0,.17,0,.26v.08c0,.09,0,.17,0,.26,0,.32,0,.65,0,1s0,.51,0,.77,0,.28,0,.43a27.41,27.41,0,0,1-2.15,8.69C209.11,386.92,201,401,201,401H234.6a4.83,4.83,0,0,0,0-9.66Z" style="fill:#fff"/><path d="M340,321.57l-14.87-1.52s-.46-3.65-.46-6.21c0-2.39.39-5.91.39-5.91L340,306.35Zm17.16,55.23a6.17,6.17,0,1,1-12.35,0V306.88a6.17,6.17,0,0,1,12.35,0Zm17,0a6.17,6.17,0,1,1-12.35,0V306.88a6.17,6.17,0,1,1,12.35,0Zm17,0a6.17,6.17,0,1,1-12.35,0V306.88a6.17,6.17,0,0,1,12.35,0Zm17,0a6.17,6.17,0,1,1-12.35,0V306.88a6.17,6.17,0,1,1,12.35,0Zm17,0a6.17,6.17,0,1,1-12.35,0V306.88a6.17,6.17,0,0,1,12.35,0Z" style="fill:#fff"/><path d="M412.6,142.15c-3.47-4.43-7.35-8.64-11.09-13a84.63,84.63,0,0,1-11.09-15.81,95.24,95.24,0,0,1-6.83-17c-1.49-5.11-5-5.11-6.47,0a95.24,95.24,0,0,1-6.83,17,84.64,84.64,0,0,1-11.09,15.81c-3.74,4.41-7.62,8.62-11.09,13a44.71,44.71,0,1,0,64.51,0Zm-48.68,50.16A4.75,4.75,0,1,1,357.2,199a36.39,36.39,0,0,1,0-51.46,4.75,4.75,0,0,1,6.71,6.72,26.89,26.89,0,0,0,0,38Z" style="fill:#fff"/></svg>