<svg xmlns="http://www.w3.org/2000/svg" viewBox="0 0 579 498"><title>eop-clipboard</title><path d="M264.77,357.86l.7.06a7.93,7.93,0,0,0,1.57,0l1.82-.2a6,6,0,0,0,1.15-.24l2.5-.79a4.71,4.71,0,0,0,.9-.39l10.43-5.87,170-98.17a8.51,8.51,0,0,0,2.08-1.68l.63-.7a2.47,2.47,0,0,0,.45-.73l.09-.23a2.22,2.22,0,0,0-.35-2.24l-1.54-2.12-1.48-.13,2.38,3.13-2.77,3.66L271.48,356.39Z" style="opacity:0.30000000000000004"/><path d="M257.93,352.69,133.78,281a4.4,4.4,0,0,1-2.57-3.72c0-1.68,1.23-3.46,3.63-4.84L314.51,168.72c4.39-2.53,11-2.81,14.83-.61l124.15,71.68a4.4,4.4,0,0,1,2.57,3.72c0,1.68-1.23,3.46-3.63,4.84L272.76,352.07C268.37,354.61,261.73,354.88,257.93,352.69Z" style="fill:#f9cb40"/><polygon points="266.83 346.23 144.96 275.87 320.45 174.56 442.31 244.92 266.83 346.23" style="fill:#fff"/><path d="M366.88,186.32l55.05,31.79c2.89,1.67,2.89,4.38,0,6l-9.47,5.47a11.59,11.59,0,0,1-10.47,0l-55.05-31.79c-2.89-1.67-2.89-4.38,0-6l9.47-5.47A11.59,11.59,0,0,1,366.88,186.32Zm37.51,41.92a6.28,6.28,0,0,0,5.67,0l9.47-5.47c1.56-.9,1.56-2.37,0-3.27l-55.05-31.79a6.28,6.28,0,0,0-5.67,0l-9.47,5.47c-1.56.9-1.56,2.37,0,3.27Z" style="fill:#bcc1c6"/><path d="M351.36,190.62a1.1,1.1,0,0,1,0,2.08l-1.43.83a1.36,1.36,0,0,0,0,2.58l1.38.79a1.1,1.1,0,0,1,0,2.08,4,4,0,0,1-3.6,0l-1.38-.79c-3.22-1.86-3.22-4.88,0-6.74l1.43-.83A4,4,0,0,1,351.36,190.62Z" style="fill:#333"/><path d="M414.46,227.08a1.1,1.1,0,0,1,0,2.08l-1.38.79a12.92,12.92,0,0,1-11.67,0l-1.43-.83a1.1,1.1,0,0,1,0-2.08,4,4,0,0,1,3.6,0l1.43.83a5,5,0,0,0,4.47,0l1.38-.79A4,4,0,0,1,414.46,227.08Z" style="fill:#333"/><path d="M257.93,352.69,133.78,281a4.4,4.4,0,0,1-2.57-3.72V281a4.4,4.4,0,0,0,2.57,3.72l124.15,71.68a13.39,13.39,0,0,0,6.83,1.47v-3.69A13.39,13.39,0,0,1,257.93,352.69Z" style="fill:#9f8229"/><path d="M452.43,248.34,272.76,352.07a17.11,17.11,0,0,1-8,2.09v3.69a17.11,17.11,0,0,0,8-2.09L452.43,252c2.4-1.39,3.63-3.16,3.63-4.84V243.5C456.06,245.18,454.83,247,452.43,248.34Z" style="fill:#9f8229"/><polygon points="248.72 232.18 341.84 285.94 338.91 287.63 245.78 233.87 248.72 232.18" style="fill:#bcc1c6"/><polygon points="254.34 228.93 347.46 282.7 344.52 284.39 251.4 230.63 254.34 228.93" style="fill:#bcc1c6"/><polygon points="259.96 225.69 353.08 279.45 350.14 281.15 257.02 227.38 259.96 225.69" style="fill:#bcc1c6"/><polygon points="231.78 241.95 324.91 295.72 321.97 297.41 228.85 243.65 231.78 241.95" style="fill:#bcc1c6"/><polygon points="237.4 238.71 330.52 292.48 327.59 294.17 234.47 240.41 237.4 238.71" style="fill:#bcc1c6"/><polygon points="243.02 235.47 336.14 289.23 333.2 290.93 240.08 237.16 243.02 235.47" style="fill:#bcc1c6"/><polygon points="215.03 251.63 308.15 305.39 305.21 307.09 212.09 253.33 215.03 251.63" style="fill:#bcc1c6"/><polygon points="220.64 248.39 313.76 302.15 310.83 303.85 217.71 250.08 220.64 248.39" style="fill:#bcc1c6"/><polygon points="226.26 245.14 319.38 298.91 316.44 300.6 223.32 246.84 226.26 245.14" style="fill:#bcc1c6"/><path d="M319.11,222.48l-11-6.7-7.83,4.85L313,228.55l-4.32,2.66L290.89,220l27.31-16.94,18.53,10.8-4.36,2.68-13.1-7.73-6.94,4.29,11.09,6.67Z" style="fill:#141617"/><path d="M346.18,240A23.35,23.35,0,0,1,334,243.33a21.53,21.53,0,0,1-11.93-3.19c-3.39-2.13-5-4.54-4.81-7.24s2-5.09,5.43-7.21l5.07-3.12a23.48,23.48,0,0,1,11.8-3.4,22,22,0,0,1,12,2.87c3.6,2.09,5.38,4.53,5.32,7.3s-1.87,5.27-5.45,7.45Zm-.54-6.72q3.39-2.07,3.87-4.41t-2.46-4.06a10.7,10.7,0,0,0-6.65-1.35,16.43,16.43,0,0,0-7.06,2.42L328.17,229q-3.38,2.08-3.93,4.35t2.26,4a10.6,10.6,0,0,0,6.65,1.47,16.3,16.3,0,0,0,7.24-2.42Z" style="fill:#141617"/><path d="M355.28,247.24l-10.71,6.51-5.83-3.66,29.37-17.91,12.17,7.09c3.58,2.09,5.53,4.28,5.83,6.57s-1,4.34-3.92,6.1a17.49,17.49,0,0,1-10.08,2.37,22.69,22.69,0,0,1-10.91-3.47Zm4.58-2.78,6,3.61a9.81,9.81,0,0,0,5.25,1.51,9.37,9.37,0,0,0,4.84-1.32q2.18-1.32,2.26-3t-2.53-3.19l-6-3.57Z" style="fill:#141617"/></svg>