<svg xmlns="http://www.w3.org/2000/svg" viewBox="0 0 579 498"><title>eop</title><polygon points="450.01 253.53 337.58 188.96 335.9 188.81 423.5 261.92 346.19 306.56 293.89 336.7 303.71 337.56 352.02 309.71 353.14 309.81 450.01 253.53" style="opacity:0.3"/><path d="M423.31,258.86l-10.88,6.28L293.89,333.58v3.12l118.53-68.43L423.31,262c2-1.17,3-2.7,3-4.23h0v-3.12C426.34,256.16,425.33,257.69,423.31,258.86Z" style="fill:#56191f"/><polygon points="322.56 308.62 144.81 247.72 215.18 179.25 392.94 240.16 322.56 308.62" style="fill:#e9e9e9"/><polygon points="351.44 304.37 206.19 220.51 270.17 183.57 302.98 202.52 335.9 183.51 448.33 248.42 351.44 304.37" style="fill:#fcfdff"/><polygon points="270.17 183.57 335.9 183.51 302.98 202.52 270.17 183.57" style="fill:#e9e9e9"/><path d="M420.85,251.82,364.07,219a15.58,15.58,0,0,0-7.54-1.84h0A15.14,15.14,0,0,0,349,219l-10.44,6-89.16-51.47L133,240.71l160.85,92.87,116.4-67.2L421,260.2C425,257.91,424.9,254.15,420.85,251.82Z" style="fill:#bc3644"/><polygon points="399.94 248.42 399.95 248.42 356.57 223.38 350.75 226.74 362.57 233.56 362.57 233.56 405.94 258.6 411.77 255.24 399.94 248.42" style="fill:#fcfdff"/><polygon points="133.04 243.83 133.04 240.71 293.89 333.58 293.89 336.7 133.04 243.83" style="fill:#78232c"/><path d="M250.84,262.45l-11.55,7.08,7.58,4.21,13.51-8.17,4,2.32-19,11.41-26.93-14.78,19-12,4.25,2.43-13.52,8.44,6.85,3.8,11.56-7.13Z" style="fill:#fff"/><path d="M280.45,245.26c3.24,2,4.76,4.29,4.57,6.94s-2.1,5-5.7,7.18a23.56,23.56,0,0,1-11.76,3.35,21.19,21.19,0,0,1-11.33-2.66l-4.83-2.78q-5-2.86-5-6.82t5.34-7.38a23.6,23.6,0,0,1,12.2-3.6,21,21,0,0,1,11.69,2.84Zm-10.74.72a14.33,14.33,0,0,0-6.9-2,11.54,11.54,0,0,0-6.74,1.71q-3,1.86-2.56,4.07t3.59,4.05l4.86,2.84a14.56,14.56,0,0,0,6.78,2,11.38,11.38,0,0,0,6.55-1.61q3-1.81,2.71-4t-3.44-4.1Z" style="fill:#fff"/><path d="M292.39,239.5l9.46,5.9-6,3.61L269.2,232.62l12.08-7.6a23.22,23.22,0,0,1,10.77-3.73,14.77,14.77,0,0,1,9.32,2.11q3.83,2.48,3.06,5.86t-6,6.57ZM288.3,237l6-3.7q2.56-1.58,2.68-3.17a3.11,3.11,0,0,0-1.78-2.81,8.14,8.14,0,0,0-4.53-1.22,9.83,9.83,0,0,0-5.19,1.63l-6,3.76Z" style="fill:#fff"/></svg>