<svg xmlns="http://www.w3.org/2000/svg" viewBox="0 0 96 54"><title>lsn-hand-icon</title><path d="M29.68,41.12,29,40.5c-.84-.74-2.72-2.5-5.1-4.72C20,32.17,14.71,27.22,11.63,24.56l-.9-.78.93-.75c.82-.67,8.55-8,11.72-11.13,2.28-2.12,6-4.57,9-4.57H42c1.86,0,3.78,1.51,5.48,2.85A9.3,9.3,0,0,0,50,11.83H61.75a6.66,6.66,0,0,1,4.79,1.83l7.12-4c2.35-4.43,5.55-7.06,9.77-8h0c4-.94,7.62-.25,9.11,1.76l.34.46-.23.53c-2,4.67-10.41,15.46-11.76,17-1,1.1-14.13,13.51-17.11,13.51H36.39c-1.19,0-2,1-3.55,2.79a37.65,37.65,0,0,1-2.5,2.82ZM13.8,23.8c3.13,2.76,7.7,7,11.44,10.52,1.77,1.65,3.34,3.12,4.34,4,.64-.7,1.2-1.38,1.71-2,1.56-1.89,2.9-3.52,5.09-3.52H63.8C65.66,32.62,77.23,22.44,79.41,20,81,18.25,88.34,8.67,90.55,4.15c-1.08-.86-3.44-1.36-6.67-.61h0c-3.75.87-6.48,3.18-8.59,7.28l-.14.27-9.11,5.16-.53-.71a4.48,4.48,0,0,0-3.78-1.7H50c-1.1,0-2.27-.92-3.74-2.08S43.2,9.33,42,9.33H32.4c-2.3,0-5.57,2.08-7.64,4C22.26,15.84,16.17,21.62,13.8,23.8Z" style="fill:#fff"/><path d="M29.68,41.12,29,40.5c-.84-.74-2.72-2.5-5.1-4.72C20,32.17,14.71,27.22,11.63,24.56l-.9-.78.93-.75c.82-.67,8.55-8,11.72-11.13,2.28-2.12,6-4.57,9-4.57H42c1.86,0,3.78,1.51,5.48,2.85A9.3,9.3,0,0,0,50,11.83H61.75a6.79,6.79,0,0,1,4.39,1.44l7.54-3.67c2.35-4.41,5.54-7,9.76-8,4-.94,7.62-.25,9.11,1.76l.34.46-.23.53c-2,4.67-10.41,15.46-11.76,17-1,1.1-14.13,13.51-17.11,13.51H36.39c-1.19,0-2,1-3.55,2.79a37.65,37.65,0,0,1-2.5,2.82ZM13.8,23.8c3.13,2.76,7.7,7,11.44,10.52,1.77,1.65,3.34,3.12,4.34,4,.64-.7,1.2-1.38,1.71-2,1.56-1.89,2.9-3.52,5.09-3.52H63.8C65.66,32.62,77.23,22.44,79.41,20,81,18.25,88.34,8.67,90.55,4.15c-1.08-.86-3.44-1.36-6.67-.61-3.75.87-6.48,3.18-8.59,7.28l-.15.3-7.66,3.73a6.34,6.34,0,0,1,.89,3.24,6.23,6.23,0,0,1-6.62,6.25H45.25v-2h16.5c3.2,0,4.63-2.13,4.63-4.25s-1.43-4.25-4.62-4.25H50c-1.1,0-2.27-.92-3.74-2.08S43.2,9.33,42,9.33H32.4c-2.29,0-5.57,2.08-7.64,4C22.26,15.84,16.17,21.62,13.8,23.8Z" style="fill:#fff"/><rect x="12.46" y="17.95" width="14.4" height="31.98" transform="translate(-18.24 23.85) rotate(-45.01)" style="fill:#89c348"/><path d="M25.88,51.75l-24-24,11.59-11.6,24,24Zm-21.2-24,21.2,21.2,8.77-8.77L13.45,19Z" style="fill:#fff"/><rect x="12.61" y="25.49" width="2" height="5.58" transform="translate(-16.01 17.91) rotate(-45)" style="fill:#fff"/></svg>