<svg xmlns="http://www.w3.org/2000/svg" viewBox="0 0 64 64"><title>mod-summary-icon</title><path d="M43.76,16.19v8.12A11,11,0,1,1,27.55,38.84h-9.1A19,19,0,1,0,43.76,16.19Z" style="fill:#0f2845"/><rect x="3" y="7" width="41" height="32" style="fill:#0f2845"/><polyline points="24 39 3 39 3 7 44 7 44 21" style="fill:none;stroke:#fff;stroke-miterlimit:10;stroke-width:2px"/><line x1="5.76" y1="34.84" x2="7.76" y2="34.84" style="fill:none;stroke:#fff;stroke-miterlimit:10;stroke-width:2px"/><line x1="9.76" y1="34.84" x2="11.76" y2="34.84" style="fill:none;stroke:#fff;stroke-miterlimit:10;stroke-width:2px"/><line x1="13.76" y1="34.84" x2="15.76" y2="34.84" style="fill:none;stroke:#fff;stroke-miterlimit:10;stroke-width:2px"/><line x1="44.64" y1="41.14" x2="50.93" y2="47.08" style="fill:none;stroke:#1b4a83;stroke-miterlimit:10;stroke-width:2px"/><ellipse cx="37.02" cy="33.5" rx="11.02" ry="11.01" style="fill:none;stroke:#fff;stroke-miterlimit:10;stroke-width:2px"/><path d="M55,50.72h0a2.71,2.71,0,0,1-3.83,0L46.6,46.56a2.71,2.71,0,0,1,0-3.83h0a2.71,2.71,0,0,1,3.83,0l4.51,4.16A2.71,2.71,0,0,1,55,50.72Z" style="fill:#0f2845;stroke:#fff;stroke-miterlimit:10;stroke-width:2px"/><line x1="32" y1="29" x2="32" y2="37" style="fill:none;stroke:#fff;stroke-miterlimit:10;stroke-width:2px"/><line x1="35" y1="29" x2="35" y2="37" style="fill:none;stroke:#fff;stroke-miterlimit:10;stroke-width:2px"/><line x1="39" y1="29" x2="39" y2="37" style="fill:none;stroke:#fff;stroke-miterlimit:10;stroke-width:2px"/><line x1="42" y1="29" x2="42" y2="37" style="fill:none;stroke:#fff;stroke-miterlimit:10;stroke-width:2px"/><path d="M48.6,11.37h0A24.41,24.41,0,0,1,59,42.84" style="fill:none;stroke:#89c348;stroke-miterlimit:10;stroke-width:2px"/><path d="M15.1,43.89A24.41,24.41,0,0,0,46.76,55" style="fill:none;stroke:#89c348;stroke-miterlimit:10;stroke-width:2px"/><rect x="18" y="7" width="11" height="6" style="fill:#0f2845;stroke:#fff;stroke-miterlimit:10;stroke-width:2px"/></svg>