<svg xmlns="http://www.w3.org/2000/svg" viewBox="0 0 483 498"><title>safety-and-security </title><g style="isolation:isolate"><path d="M273.47,339.73s-53.75-40.89-73.91-86.15-21-103.67-21-103.67,26.24-4.71,51.24-19c29.4-16.79,43.68-42.35,43.68-42.35Z" style="fill:#777776"/><path d="M273.47,318.48s-44.66-34-61.4-71.57-17.44-86.13-17.44-86.13A150,150,0,0,0,237.19,145a103.79,103.79,0,0,0,36.28-35.18Z" style="fill:#d9d9d9"/><path d="M217.18,249.09C200.43,211.49,199.73,163,199.73,163a150,150,0,0,0,42.57-15.77,105.56,105.56,0,0,0,31.17-27.64v-9.73A103.79,103.79,0,0,1,237.19,145a150,150,0,0,1-42.56,15.77s.7,48.52,17.44,86.13,61.4,71.57,61.4,71.57v-1.92C261.28,306.44,230.46,278.92,217.18,249.09Z" style="fill:#d9d9d9;mix-blend-mode:multiply"/><path d="M273.47,339.63s53.75-40.88,73.92-86.15,21-103.68,21-103.68-26.24-4.7-51.24-19c-29.4-16.79-43.68-42.34-43.68-42.34Z" style="fill:#9c9b9b"/><path d="M273.47,318.38s44.66-34,61.41-71.57,17.45-86.13,17.45-86.13a150,150,0,0,1-42.56-15.77,103.81,103.81,0,0,1-36.29-35.18Z" style="fill:#fff"/><path d="M309.76,144.9a103.81,103.81,0,0,1-36.29-35.18v8.48a105.81,105.81,0,0,0,32.64,29.62,150,150,0,0,0,42.57,15.77s-.7,48.53-17.44,86.13C317.49,280.57,285,309,273.75,318.17c3.56-2.75,45.11-35.38,61.13-71.36,16.75-37.61,17.45-86.13,17.45-86.13A150,150,0,0,1,309.76,144.9Z" style="fill:#d9d9d9"/><path d="M313.68,195.93H285.91V168.16a4.32,4.32,0,0,0-4.33-4.33H265.36a4.33,4.33,0,0,0-4.33,4.33v27.77H233.26a4.33,4.33,0,0,0-4.32,4.33v16.23a4.33,4.33,0,0,0,4.32,4.33H261v27.77a4.33,4.33,0,0,0,4.33,4.33h16.23a4.32,4.32,0,0,0,4.33-4.33V220.82h27.77a4.33,4.33,0,0,0,4.33-4.33V200.26A4.33,4.33,0,0,0,313.68,195.93Z" style="fill:#007ca7"/><path d="M273.47,163.84h-8.11a4.33,4.33,0,0,0-4.33,4.33v27.77H233.26a4.33,4.33,0,0,0-4.32,4.33v16.23a4.33,4.33,0,0,0,4.32,4.33H261v27.77a4.33,4.33,0,0,0,4.33,4.33h8.11Z" style="fill:#085c7c"/><path d="M350.28,266.58l-61.15,33.53-26.26,2.74.15.31c3.73,7.64,7.16,15.49,11.68,22.8,9.9-2.7,20-6.23,24.87-8.82,15.31-8.09,53.36-31.51,63.85-37.57S362.54,259.86,350.28,266.58Z" style="fill:#f8ba8c"/><path d="M366.14,269.25a64.37,64.37,0,0,1-18,17c-4.64,2.87-9.65,5.26-14.51,7.82-5.45,2.87-10.7,6-16.15,8.88a167.77,167.77,0,0,1-30.09,12.74A146.62,146.62,0,0,1,271,319.45c1.17,2.21,2.4,4.38,3.72,6.52,9.9-2.7,20-6.23,24.87-8.82,15.31-8.09,53.36-31.51,63.85-37.57C368.18,276.82,368.43,272.51,366.14,269.25Z" style="fill:#ead8d1;mix-blend-mode:multiply"/><path d="M350.28,266.58l-61.15,33.53-26.26,2.74.15.31c1.39,2.85,2.74,5.72,4.12,8.59,12.75.35,26.64-4.32,37.67-10,6.15-3.17,13.16-6.27,18.73-10.18,4.6-3.23,8.7-7.09,13.53-10.06a88.63,88.63,0,0,0,14.66-10.7,61.89,61.89,0,0,0,5.1-4.87,7.37,7.37,0,0,0,.8-1.15A13.74,13.74,0,0,0,350.28,266.58Z" style="fill:#f9eae3;opacity:0.5;mix-blend-mode:soft-light"/><path d="M372.3,272.3l-65.73,29.65-27-.6.12.37c3,9.26,5.63,18.74,9.45,27.73,10.36-1.68,21-4.28,26.22-6.54,16.42-7.07,57.59-28.43,68.9-33.88S385.48,266.35,372.3,272.3Z" style="fill:#f8ba8c"/><path d="M388.15,277.6A65.18,65.18,0,0,1,368,294.46c-5,2.63-10.37,4.64-15.58,6.88-5.84,2.51-11.51,5.36-17.36,7.86-10.28,4.4-20.88,8.21-31.94,10.29a132.69,132.69,0,0,1-17.07,2c1,2.69,2,5.35,3.08,8,10.36-1.68,21-4.28,26.22-6.54,16.42-7.07,57.59-28.43,68.9-33.88C389.41,286.56,390.12,281.66,388.15,277.6Z" style="fill:#ead8d1;mix-blend-mode:multiply"/><path d="M372.3,272.3l-65.73,29.65-27-.6.12.37c1.11,3.45,2.17,6.94,3.27,10.41,12.92,2.22,27.54-1.15,39.36-6.09,6.59-2.75,14-5.29,20.12-9,5-3,9.59-6.87,14.82-9.58a85.92,85.92,0,0,0,16-10.14,62.2,62.2,0,0,0,5.7-4.84,7.74,7.74,0,0,0,.94-1.21A12.5,12.5,0,0,0,372.3,272.3Z" style="fill:#f9eae3;opacity:0.5;mix-blend-mode:soft-light"/><path d="M393.77,282.81l-73.34,26.35-29-2.92.1.41c2.37,10.21,4.38,20.62,7.67,30.62,11.29-.94,22.94-2.84,28.79-4.83,18.3-6.22,64.49-25.73,77.14-30.63S408.47,277.53,393.77,282.81Z" style="fill:#f8ba8c"/><path d="M410.33,289.85c-6.63,6.92-16.19,9.94-24.95,13.67-5.63,2.4-30,12.42-36.52,14.62-11.45,3.86-21.62,8.29-33.71,9.6a143.47,143.47,0,0,1-18.53.69c.78,3,1.64,5.92,2.6,8.84,11.29-.94,22.94-2.84,28.79-4.83,18.3-6.22,64.49-25.73,77.14-30.63C410.89,299.59,412.09,294.38,410.33,289.85Z" style="fill:#ead8d1;mix-blend-mode:multiply"/><path d="M393.77,282.81l-73.34,26.35-29-2.92.1.41c.88,3.81,1.72,7.64,2.58,11.47,13.7,3.48,29.72,1.08,42.88-3.23,7.33-2.4,15.58-4.51,22.44-8,5.68-2.85,10.93-6.58,16.8-9.06,6.36-2.69,12.54-5.56,18.16-9.56A68.08,68.08,0,0,0,401,283.6a8.63,8.63,0,0,0,1.11-1.22A13.54,13.54,0,0,0,393.77,282.81Z" style="fill:#f9eae3;opacity:0.5;mix-blend-mode:soft-light"/><path d="M180.79,383.08s24.11-19.15,29.79-24.82,53.19,0,67.37,2.13,45.89-1.62,57.44-5.67c20.52-7.2,72.33-29.79,86.52-35.46s3.73-28.11-12.76-22l-82.26,30.5-68.08-7.09-89.36-3.55-51.06,46.8Z" style="fill:#f8ba8c"/><path d="M401.76,324.43c-6.32,2.78-13,4.76-19.49,7-7.3,2.55-14.43,5.55-21.73,8.09-12.85,4.47-26,8.18-39.57,9.7-31.21,3.49-62.29-5.13-93.46-1.44-7.54.89-15.2,1.42-22.6,3.15s-14.11,4.94-20.79,8.78c-9.7,5.58-19.26,11.38-29.76,15.21l26.43,8.11s24.11-19.15,29.79-24.82,53.19,0,67.37,2.13,45.89-1.62,57.44-5.67c20.52-7.2,72.33-29.79,86.52-35.46,6.44-2.58,7.79-8.6,5.81-13.85A79.57,79.57,0,0,1,401.76,324.43Z" style="fill:#ead8d1;mix-blend-mode:multiply"/><path d="M277.61,327.67a52,52,0,0,0,18.56,10.14c15.62,4.5,34.17,1.7,49.32-3.42,8.23-2.78,17.47-5.22,25.17-9.21,6.37-3.3,12.26-7.61,18.84-10.48,7.14-3.11,14.07-6.43,20.38-11.06,2.39-1.75,5.23-3.44,7.37-5.47a10.05,10.05,0,0,0,1.25-1.41,14.72,14.72,0,0,0-9.35.5l-82.26,30.5-56.11-5.84C273,324,275.46,325.94,277.61,327.67Z" style="fill:#f9eae3;opacity:0.5;mix-blend-mode:soft-light"/><path d="M118.38,363.93s34.75-36.17,41.84-51.06S211.47,288,231.59,293a371.24,371.24,0,0,0,37.72,7.19s42-6.23,61.12-8.48,21.9,22.6,2.84,27.53c-18.17,4.7-58.33,12.41-58.33,12.41" style="fill:#f8ba8c"/><path d="M182.38,305.4c12.61-2.34,38.62-3,51.34-.83,11.26,1.93,25.82,8.89,37.12,4.51,5.62-2.18,10.44-6.26,16.34-7.71a109.45,109.45,0,0,1,17.76-2.54c11.12-.86,25.19,1.82,34-6a16.28,16.28,0,0,0-8.57-1.08c-19.15,2.25-61.12,8.48-61.12,8.48A371.24,371.24,0,0,1,231.59,293c-20.12-5-64.27,5-71.36,19.86-1.84,3.87-5.55,9.17-10,14.9C156.54,326.27,171.79,307.37,182.38,305.4Z" style="fill:#f9eae3;opacity:0.5;mix-blend-mode:soft-light"/><path d="M331.12,309.62a75.28,75.28,0,0,1-26.46,10.5c-6.23,1.08-13.23,1.49-18.66,5.09a38.4,38.4,0,0,0-6.4,5.55c11.1-2.17,39.27-7.78,53.66-11.5,12.53-3.24,15.63-15.08,10.86-22.18A44.45,44.45,0,0,1,331.12,309.62Z" style="fill:#ead8d1;mix-blend-mode:multiply"/><rect x="151.41" y="324.28" width="17.34" height="72.69" transform="translate(-213.91 234.91) rotate(-47.48)" style="fill:#fff"/><polygon points="176.07 409.53 187.27 397.31 121.19 336.72 54.43 409.53 176.07 409.53" style="fill:#083b5a"/><polygon points="99.94 409.53 145.91 359.39 121.19 336.72 54.43 409.53 99.94 409.53" style="fill:#c6c6c5;mix-blend-mode:multiply"/><polygon points="176.56 384.99 131.4 343.59 140.63 333.53 139.45 344.96 176.56 384.99" style="fill:#dfdfdf"/><polygon points="189.05 378.67 143.89 337.27 163.75 363.98 189.05 378.67" style="fill:#e1f2fd"/><circle cx="145.97" cy="378.47" r="8.49" transform="matrix(0.68, -0.74, 0.74, 0.68, -231.64, 230.29)" style="fill:#ffd300"/></g></svg>