<svg xmlns="http://www.w3.org/2000/svg" viewBox="0 0 675 436">
  <defs>
    <style>
      .cls-1 {
        fill: #fff;
      }

      .cls-2, .cls-9 {
        fill: #0e2947;
      }

      .cls-3 {
        fill: #164f51;
      }

      .cls-4 {
        fill: #336c4f;
      }

      .cls-5 {
        fill: #50894c;
      }

      .cls-6 {
        fill: #6ca54a;
      }

      .cls-7 {
        fill: #89c247;
      }

      .cls-8 {
        fill: #dee1e2;
      }

      .cls-9 {
        font-size: 15px;
        font-family: Roboto-Bold, Roboto;
        font-weight: 700;
      }

      .cls-10 {
        letter-spacing: -0.01em;
      }

      .cls-11 {
        letter-spacing: -0.14em;
      }
    </style>
  </defs>
  <title>sigma-cycle</title>
  <g id="cd-bg">
    <path class="cls-1" d="M334.43,8.63c-110.46,0-200,89.54-200,200s89.54,200,200,200,200-89.54,200-200S444.88,8.63,334.43,8.63Zm0,288a88,88,0,1,1,88-88A88.1,88.1,0,0,1,334.43,296.63Z"/>
    <path class="cls-2" d="M334.43,20.63c-103.83,0-188,84.17-188,188s84.17,188,188,188,188-84.17,188-188S438.26,20.63,334.43,20.63Zm0,288a100,100,0,1,1,100-100A100.11,100.11,0,0,1,334.43,308.63Z"/>
  </g>
  <g id="cd-arrows">
    <path class="cls-3" d="M434.46,346.08l-28.27-38.79A122,122,0,0,1,272,313.46l8.11-11.12L204,294.22l31,70,8.64-11.85a170,170,0,0,0,190.79-6.3Z"/>
    <path class="cls-4" d="M496.08,155.91l-45.64,14.87a121.86,121.86,0,0,1-39.31,132.67L397.9,285.3l-10.21,65.17,65.17,10.23-13.41-18.4a170.12,170.12,0,0,0,56.64-186.38Z"/>
    <path class="cls-5" d="M494,150a171.64,171.64,0,0,0-59.75-79,168.76,168.76,0,0,0-99.85-32.41v48a121.06,121.06,0,0,1,71.63,23.24,123.28,123.28,0,0,1,42.27,55l-21.36,7,58.81,29.89,29.9-58.8Z"/>
    <path class="cls-6" d="M374.81,62.63,328.17,16V38.74A168.62,168.62,0,0,0,234.58,71a171.45,171.45,0,0,0-61.8,84.88l45.64,14.87a123.09,123.09,0,0,1,44.39-60.92A120.91,120.91,0,0,1,328.17,86.8v22.47Z"/>
    <path class="cls-7" d="M253,299.45a121.94,121.94,0,0,1-36.39-122.66l21.36,7L208.11,125,149.3,154.84,171,161.9a169.83,169.83,0,0,0,52,175L204,294.22Z"/>
  </g>
  <g id="cd-measure">
    <circle class="cls-1" cx="502.08" cy="263.1" r="41.99" transform="translate(96.7 659.31) rotate(-72)"/>
    <path class="cls-2" d="M515.58,254.1h-27a3,3,0,0,0-3,3v12a3,3,0,0,0,3,3h27a3,3,0,0,0,3-3v-12A3,3,0,0,0,515.58,254.1Zm0,15h-27v-12h3v6h3v-6h3v6h3v-6h3v6h3v-6h3v6h3v-6h3Z"/>
    <rect class="cls-8" x="550.08" y="243.97" width="96" height="36" rx="18" ry="18"/>
    <text class="cls-9" transform="translate(563.69 267.04)">MEASURE</text>
  </g>
  <g id="cd-define">
    <circle class="cls-1" cx="438.04" cy="66.01" r="42" transform="translate(127.16 381.6) rotate(-54)"/>
    <path class="cls-2" d="M436.54,75h3V72h-3ZM438,51a15,15,0,1,0,15,15A15,15,0,0,0,438,51Zm0,27a12,12,0,1,1,12-12A12,12,0,0,1,438,78Zm0-21a6,6,0,0,0-6,6h3a3,3,0,1,1,6,0c0,3-4.5,2.63-4.5,7.5h3c0-3.37,4.5-3.75,4.5-7.5A6,6,0,0,0,438,57Z"/>
    <rect class="cls-8" x="486.04" y="46.88" width="96" height="36" rx="18" ry="18"/>
    <text class="cls-9" transform="translate(509.14 69.95)">DEFINE</text>
  </g>
  <g id="cd-control">
    <circle class="cls-1" cx="230.81" cy="66.01" r="42" transform="translate(5.28 148.28) rotate(-36)"/>
    <path class="cls-2" d="M233.81,63h-18v3h18Zm0-6h-18v3h18Zm-18,15h12V69h-12Zm29.25-6.75,2.25,2.25L236.83,78l-6.77-6.75L232.31,69l4.52,4.5Z"/>
    <rect class="cls-8" x="86.81" y="46.88" width="96" height="36" rx="18" ry="18"/>
    <text class="cls-9" transform="translate(100.76 69.95)">CONTROL</text>
  </g>
  <g id="cd-improve">
    <circle class="cls-1" cx="166.77" cy="263.1" r="41.99" transform="translate(-73.14 64.41) rotate(-18)"/>
    <path class="cls-2" d="M172.77,254.53l3.44,3.43-7.32,7.32-6-6-11.12,11.13,2.12,2.11,9-9,6,6,9.45-9.44,3.44,3.44v-9Z"/>
    <rect class="cls-8" x="22.77" y="243.97" width="96" height="36" rx="18" ry="18"/>
    <text class="cls-9" transform="translate(38.17 267.04)">IMPR<tspan class="cls-10" x="36.76" y="0">O</tspan><tspan x="46.96" y="0">VE</tspan></text>
  </g>
  <g id="cd-analyze">
    <circle class="cls-1" cx="334.43" cy="384.91" r="42"/>
    <path class="cls-2" d="M339.68,387.91h-1.18l-.42-.41a9.76,9.76,0,1,0-1.05,1.05l.41.42v1.19l7.5,7.48,2.23-2.23Zm-9,0a6.75,6.75,0,1,1,6.75-6.75A6.74,6.74,0,0,1,330.68,387.91Z"/>
    <rect class="cls-8" x="382.43" y="365.78" width="96" height="36" rx="18" ry="18"/>
    <text class="cls-9" transform="translate(398.6 388.84)">ANA<tspan class="cls-11" x="30.78" y="0">L</tspan><tspan x="36.86" y="0">YZE</tspan></text>
  </g>
  <g id="cd-sigma">
    <path class="cls-2" d="M322.37,167.23c-6.95.09-10.66,1-15.55,3.95-10.45,6.14-17.37,18.88-17.37,32,0,13.6,8,23.75,18.46,23.75,10.09,0,18.46-8.79,18.46-19.56,0-10.18-7-17.37-16.83-17.37a19.9,19.9,0,0,0-11.22,3.59c3.27-14.19,13.18-23.93,25.08-24.79v-1.54h-1Zm36.54,15.82c-6.17.09-10.51.86-14.22,2.46-8.31,3.77-13,10.45-13,18.4a23.91,23.91,0,0,0,6.06,15.64,19.64,19.64,0,0,0,16.09,7.33,21.36,21.36,0,0,0,14.69-5.28,18.09,18.09,0,0,0,6.14-13c0-6.5-5-12.91-14-18.11H379.4v-7.45H358.92Zm-5.37,7.45h.09a1.43,1.43,0,0,1,.36,0h2.67c7.33,7.6,9,10.83,9,17.84,0,8.91-4.27,14.9-10.6,14.9-7.87,0-14.37-8.64-14.37-19.18C340.66,196,345.77,190.68,353.54,190.51Zm-47,3.59s.09,0,.12,0a1.43,1.43,0,0,1,.36,0c4.27,0,7.18,1.78,9.17,5.88a26.87,26.87,0,0,1,2.64,11.64c0,7.42-3.77,12.23-9.59,12.23-7.51,0-12.29-7.78-12.29-20a37.79,37.79,0,0,1,.42-6.09,1.52,1.52,0,0,0,.09-.59C301.54,194.9,303.73,194.16,306.58,194.1Z"/>
    <text class="cls-9" transform="translate(290.35 245.96)">DMAIC Cycle</text>
  </g>
</svg>
