<svg id="Layer_1" data-name="Layer 1" xmlns="http://www.w3.org/2000/svg" viewBox="0 0 224 224"><title>six-sigma</title><circle cx="112" cy="112" r="112" style="fill:#142a48"/><path d="M94.85,67.64c-9.89.13-15.17,1.44-22.14,5.62C57.84,82,48,100.13,48,118.76c0,19.35,11.32,33.8,26.28,33.8,14.36,0,26.27-12.51,26.27-27.84,0-14.49-10-24.72-24-24.72a28.33,28.33,0,0,0-16,5.12c4.65-20.2,18.76-34.05,35.7-35.28l0-2.2H94.85Zm52,22.52c-8.79.13-14.95,1.23-20.23,3.51-11.83,5.36-18.51,14.87-18.51,26.19a34.06,34.06,0,0,0,8.62,22.26c6.34,7.27,13.27,10.44,22.9,10.44,8.28,0,15.33-2.54,20.91-7.52s8.74-11.92,8.74-18.51c0-9.25-7.05-18.37-19.94-25.77H176V90.16H146.85Zm-7.64,10.6h.12a2.17,2.17,0,0,1,.51,0h3.8c10.44,10.82,12.76,15.42,12.76,25.39,0,12.68-6.08,21.21-15.08,21.21-11.2,0-20.45-12.29-20.45-27.29C120.87,108.62,128.14,101,139.21,100.76Zm-66.84,5.12s.13,0,.17,0a1.74,1.74,0,0,1,.51,0c6.08,0,10.22,2.53,13,8.36a38.21,38.21,0,0,1,3.76,16.56c0,10.56-5.36,17.4-13.64,17.4-10.69,0-17.49-11.06-17.49-28.47a53.87,53.87,0,0,1,.59-8.66,2.08,2.08,0,0,0,.13-.84C65.19,107,68.32,106,72.37,105.88Z" style="fill:#fff"/></svg>