<svg xmlns="http://www.w3.org/2000/svg" viewBox="0 0 579 436"><title>small-triangle-diagram</title><polygon points="298.58 75.5 108.63 404.5 488.53 404.5 298.58 75.5" style="fill:#0f393a"/><path d="M415.58,413.5a45,45,0,1,1,45-45A45.05,45.05,0,0,1,415.58,413.5Z" style="fill:#205052"/><path d="M415.58,326.5a42,42,0,1,1-42,42,42,42,0,0,1,42-42m0-6a48,48,0,1,0,48,48,48,48,0,0,0-48-48Z" style="fill:#d4441c"/><path d="M409.11,375.35h-2.47l-6.34-10.09v10.09h-2.47V361.13h2.47l6.36,10.13V361.13h2.45Z" style="fill:#fff"/><path d="M422.88,370.72a5.13,5.13,0,0,1-1.68,3.55,5.73,5.73,0,0,1-3.9,1.27,5.54,5.54,0,0,1-3-.81,5.28,5.28,0,0,1-2-2.29,8.26,8.26,0,0,1-.73-3.45v-1.33a8.32,8.32,0,0,1,.71-3.54,5.37,5.37,0,0,1,2-2.36,5.71,5.71,0,0,1,3.08-.83,5.5,5.5,0,0,1,3.79,1.27,5.33,5.33,0,0,1,1.67,3.61h-2.46a3.52,3.52,0,0,0-.89-2.21,3,3,0,0,0-2.1-.68,2.89,2.89,0,0,0-2.48,1.18,5.89,5.89,0,0,0-.88,3.46v1.26a6.24,6.24,0,0,0,.83,3.52,2.74,2.74,0,0,0,2.42,1.21,3.19,3.19,0,0,0,2.19-.65,3.41,3.41,0,0,0,.93-2.18Z" style="fill:#fff"/><path d="M433,372h-5.51l-1.15,3.31h-2.57l5.37-14.22h2.22l5.38,14.22h-2.58Zm-4.81-2h4.12l-2.06-5.9Z" style="fill:#fff"/><path d="M301.58,413.5a45,45,0,1,1,45-45A45.05,45.05,0,0,1,301.58,413.5Z" style="fill:#205052"/><path d="M301.58,326.5a42,42,0,1,1-42,42,42,42,0,0,1,42-42m0-6a48,48,0,1,0,48,48,48,48,0,0,0-48-48Z" style="fill:#f9cb40"/><path d="M288.84,372.25l3.61-11.12h2.71l-5.12,14.22h-2.39l-5.1-14.22h2.71Z" style="fill:#fff"/><path d="M296.77,375.35V361.13h4.87a6,6,0,0,1,3.67,1,3.41,3.41,0,0,1,1.26,2.88,3.07,3.07,0,0,1-.53,1.76,3.38,3.38,0,0,1-1.54,1.21,3.14,3.14,0,0,1,1.78,1.18,3.43,3.43,0,0,1,.63,2.08,3.78,3.78,0,0,1-1.28,3.08,5.58,5.58,0,0,1-3.68,1.07Zm2.47-8.23h2.42a2.8,2.8,0,0,0,1.8-.52,1.79,1.79,0,0,0,.65-1.48,1.81,1.81,0,0,0-.6-1.52,3,3,0,0,0-1.87-.47h-2.4Zm0,1.82v4.42H302a2.66,2.66,0,0,0,1.82-.57,2.26,2.26,0,0,0-1.61-3.85Z" style="fill:#fff"/><path d="M317.35,372h-5.51l-1.15,3.31h-2.57l5.37-14.22h2.22l5.38,14.22h-2.58Zm-4.81-2h4.12l-2.06-5.9Z" style="fill:#fff"/><path d="M181.58,413.5a45,45,0,1,1,45-45A45.05,45.05,0,0,1,181.58,413.5Z" style="fill:#205052"/><path d="M181.58,326.5a42,42,0,1,1-42,42,42,42,0,0,1,42-42m0-6a48,48,0,1,0,48,48,48,48,0,0,0-48-48Z" style="fill:#8ec33f"/><path d="M168.84,372.25l3.61-11.12h2.71l-5.12,14.22h-2.39l-5.1-14.22h2.71Z" style="fill:#fff"/><path d="M188.06,375.35H185.6V369h-6.36v6.31h-2.47V361.13h2.47V367h6.36v-5.92h2.46Z" style="fill:#fff"/><path d="M199.12,372h-5.51l-1.15,3.31h-2.57l5.37-14.22h2.22l5.38,14.22h-2.58Zm-4.81-2h4.12l-2.06-5.9Z" style="fill:#fff"/><path d="M133.48,88.25V76.16h3.57a5.6,5.6,0,0,1,2.84.71,4.87,4.87,0,0,1,1.92,2,6.43,6.43,0,0,1,.68,3v.61a6.41,6.41,0,0,1-.68,3,4.81,4.81,0,0,1-2,2,5.86,5.86,0,0,1-2.9.71Zm2.1-10.39v8.7H137a3.16,3.16,0,0,0,2.54-1,4.49,4.49,0,0,0,.9-3v-.67a4.61,4.61,0,0,0-.85-3,3,3,0,0,0-2.48-1Z" style="fill:#fff"/><path d="M149.37,88.42a4.17,4.17,0,0,1-3.11-1.21A4.38,4.38,0,0,1,145.07,84v-.25a5.38,5.38,0,0,1,.52-2.4A3.94,3.94,0,0,1,147,79.69a3.85,3.85,0,0,1,2.09-.59A3.52,3.52,0,0,1,152,80.27a5,5,0,0,1,1,3.31v.81H147.1a2.7,2.7,0,0,0,.74,1.76,2.23,2.23,0,0,0,1.64.65,2.73,2.73,0,0,0,2.26-1.12l1.09,1A3.63,3.63,0,0,1,151.39,88,4.5,4.5,0,0,1,149.37,88.42Zm-.24-7.69a1.7,1.7,0,0,0-1.34.58,3,3,0,0,0-.65,1.62H151v-.15a2.45,2.45,0,0,0-.54-1.53A1.68,1.68,0,0,0,149.13,80.72Z" style="fill:#fff"/><path d="M163.42,83.85a5.35,5.35,0,0,1-.95,3.32,3.29,3.29,0,0,1-4.91.27V91.7h-2V79.27h1.86l.08.91a3,3,0,0,1,2.42-1.08,3.06,3.06,0,0,1,2.58,1.22,5.49,5.49,0,0,1,.93,3.4Zm-2-.17a3.75,3.75,0,0,0-.54-2.13,1.74,1.74,0,0,0-1.53-.79,1.86,1.86,0,0,0-1.78,1v4a1.87,1.87,0,0,0,1.79,1,1.74,1.74,0,0,0,1.51-.78A4.12,4.12,0,0,0,161.41,83.68Z" style="fill:#fff"/><path d="M171.51,88.25a3.12,3.12,0,0,1-.23-.84,3.39,3.39,0,0,1-4.57.23,2.47,2.47,0,0,1-.85-1.91,2.55,2.55,0,0,1,1.07-2.2,5.17,5.17,0,0,1,3.05-.77h1.24v-.59a1.57,1.57,0,0,0-.39-1.12,1.55,1.55,0,0,0-1.19-.42,1.78,1.78,0,0,0-1.13.34,1.07,1.07,0,0,0-.44.88h-2a2.24,2.24,0,0,1,.49-1.38,3.26,3.26,0,0,1,1.33-1,4.68,4.68,0,0,1,1.88-.37,3.77,3.77,0,0,1,2.52.79,2.83,2.83,0,0,1,1,2.23v4.05a4.59,4.59,0,0,0,.34,1.93v.14ZM169.3,86.8a2.29,2.29,0,0,0,1.13-.29,1.94,1.94,0,0,0,.79-.78V84h-1.09a3,3,0,0,0-1.69.39,1.26,1.26,0,0,0-.56,1.1,1.18,1.18,0,0,0,.39.93A1.49,1.49,0,0,0,169.3,86.8Z" style="fill:#fff"/><path d="M181.07,81.11a5,5,0,0,0-.82-.07,1.85,1.85,0,0,0-1.87,1.06v6.14h-2v-9h1.93l0,1a2.27,2.27,0,0,1,2-1.17,1.89,1.89,0,0,1,.71.12Z" style="fill:#fff"/><path d="M186.3,77.09v2.18h1.59v1.49H186.3v5a1.1,1.1,0,0,0,.2.74.94.94,0,0,0,.73.23,3.12,3.12,0,0,0,.71-.08v1.56a5,5,0,0,1-1.33.19q-2.32,0-2.32-2.56V80.76h-1.48V79.27h1.48V77.09Z" style="fill:#fff"/><path d="M192.35,79.27l.06.94A3.23,3.23,0,0,1,195,79.1a2.48,2.48,0,0,1,2.47,1.38,3.19,3.19,0,0,1,2.76-1.38,2.8,2.8,0,0,1,2.21.82,3.62,3.62,0,0,1,.74,2.42v5.9h-2V82.41a1.79,1.79,0,0,0-.37-1.25,1.63,1.63,0,0,0-1.24-.4,1.68,1.68,0,0,0-1.12.37,2,2,0,0,0-.61,1v6.16h-2V82.34a1.44,1.44,0,0,0-1.62-1.59,1.78,1.78,0,0,0-1.72,1v6.51h-2v-9Z" style="fill:#fff"/><path d="M210.22,88.42a4.17,4.17,0,0,1-3.11-1.21A4.38,4.38,0,0,1,205.92,84v-.25a5.38,5.38,0,0,1,.52-2.4,3.94,3.94,0,0,1,1.46-1.65A3.85,3.85,0,0,1,210,79.1a3.52,3.52,0,0,1,2.83,1.17,5,5,0,0,1,1,3.31v.81h-5.87a2.7,2.7,0,0,0,.74,1.76,2.23,2.23,0,0,0,1.64.65,2.73,2.73,0,0,0,2.26-1.12l1.09,1A3.63,3.63,0,0,1,212.24,88,4.5,4.5,0,0,1,210.22,88.42ZM210,80.72a1.7,1.7,0,0,0-1.34.58,3,3,0,0,0-.65,1.62h3.84v-.15a2.45,2.45,0,0,0-.54-1.53A1.68,1.68,0,0,0,210,80.72Z" style="fill:#fff"/><path d="M218.27,79.27l.06,1a3.23,3.23,0,0,1,2.61-1.2q2.81,0,2.86,3.21v5.94h-2V82.43a1.85,1.85,0,0,0-.37-1.27,1.55,1.55,0,0,0-1.21-.41,1.94,1.94,0,0,0-1.82,1.1v6.39h-2v-9Z" style="fill:#fff"/><path d="M229.41,77.09v2.18H231v1.49h-1.59v5a1.1,1.1,0,0,0,.2.74.94.94,0,0,0,.73.23,3.12,3.12,0,0,0,.71-.08v1.56a5,5,0,0,1-1.33.19q-2.32,0-2.32-2.56V80.76h-1.48V79.27h1.48V77.09Z" style="fill:#fff"/><path d="M162.23,106.52a7.42,7.42,0,0,1-.61,3.12,4.65,4.65,0,0,1-1.76,2.06,5.15,5.15,0,0,1-5.25,0,4.72,4.72,0,0,1-1.78-2,7.18,7.18,0,0,1-.63-3.06v-.68a7.35,7.35,0,0,1,.63-3.12,4.71,4.71,0,0,1,1.77-2.07,5.16,5.16,0,0,1,5.24,0,4.65,4.65,0,0,1,1.76,2,7.33,7.33,0,0,1,.63,3.1Zm-2.1-.63a5.29,5.29,0,0,0-.76-3.08,2.68,2.68,0,0,0-4.28,0,5.18,5.18,0,0,0-.78,3v.7a5.25,5.25,0,0,0,.78,3.08,2.5,2.5,0,0,0,2.15,1.09,2.47,2.47,0,0,0,2.15-1.06,5.36,5.36,0,0,0,.75-3.1Z" style="fill:#fff"/><path d="M165.85,112.25v-7.49h-1.37v-1.49h1.37v-.82a3.09,3.09,0,0,1,.83-2.31,3.18,3.18,0,0,1,2.32-.81,4.66,4.66,0,0,1,1.13.15l0,1.58a4,4,0,0,0-.77-.07,1.3,1.3,0,0,0-1.44,1.49v.8h1.83v1.49h-1.83v7.49Z" style="fill:#fff"/><path d="M172.9,112.25v-7.49h-1.37v-1.49h1.37v-.82a3.09,3.09,0,0,1,.83-2.31,3.18,3.18,0,0,1,2.32-.81,4.66,4.66,0,0,1,1.13.15l0,1.58a4,4,0,0,0-.77-.07,1.3,1.3,0,0,0-1.44,1.49v.8h1.83v1.49h-1.83v7.49Z" style="fill:#fff"/><path d="M179.24,100.93a1.08,1.08,0,0,1,.29-.78,1.11,1.11,0,0,1,.84-.31,1.12,1.12,0,0,1,.85.31,1.08,1.08,0,0,1,.3.78,1.05,1.05,0,0,1-.3.77,1.13,1.13,0,0,1-.85.31,1.12,1.12,0,0,1-.84-.31A1.06,1.06,0,0,1,179.24,100.93Zm2.14,11.32h-2v-9h2Z" style="fill:#fff"/><path d="M188.29,110.81a1.82,1.82,0,0,0,1.25-.44,1.5,1.5,0,0,0,.53-1.09H192a3,3,0,0,1-.52,1.56,3.43,3.43,0,0,1-1.33,1.15,4,4,0,0,1-1.81.42,3.83,3.83,0,0,1-3-1.22,4.84,4.84,0,0,1-1.1-3.37v-.21a4.76,4.76,0,0,1,1.1-3.28,3.8,3.8,0,0,1,3-1.23,3.69,3.69,0,0,1,2.61.93,3.35,3.35,0,0,1,1.06,2.45h-1.9a1.85,1.85,0,0,0-.53-1.27,1.69,1.69,0,0,0-1.26-.5,1.78,1.78,0,0,0-1.51.71,3.62,3.62,0,0,0-.54,2.15v.32a3.68,3.68,0,0,0,.53,2.18A1.77,1.77,0,0,0,188.29,110.81Z" style="fill:#fff"/><path d="M198.47,112.42a4.17,4.17,0,0,1-3.11-1.21,4.38,4.38,0,0,1-1.19-3.22v-.25a5.38,5.38,0,0,1,.52-2.4,3.94,3.94,0,0,1,1.46-1.65,3.85,3.85,0,0,1,2.09-.59,3.52,3.52,0,0,1,2.83,1.17,5,5,0,0,1,1,3.31v.81H196.2a2.7,2.7,0,0,0,.74,1.76,2.23,2.23,0,0,0,1.64.65,2.73,2.73,0,0,0,2.26-1.12l1.09,1a3.63,3.63,0,0,1-1.44,1.25A4.5,4.5,0,0,1,198.47,112.42Zm-.24-7.69a1.7,1.7,0,0,0-1.34.58,3,3,0,0,0-.65,1.62h3.84v-.15a2.45,2.45,0,0,0-.54-1.53A1.68,1.68,0,0,0,198.23,104.72Z" style="fill:#fff"/><path d="M209.69,109.81a.91.91,0,0,0-.44-.82,4.74,4.74,0,0,0-1.47-.5,7.6,7.6,0,0,1-1.72-.55,2.29,2.29,0,0,1-1.51-2.12,2.39,2.39,0,0,1,1-1.94,3.87,3.87,0,0,1,2.49-.78,4,4,0,0,1,2.6.8,2.53,2.53,0,0,1,1,2.07h-2a1.25,1.25,0,0,0-.43-1,1.66,1.66,0,0,0-1.15-.39,1.79,1.79,0,0,0-1.08.31,1,1,0,0,0-.42.82.82.82,0,0,0,.39.72,5.38,5.38,0,0,0,1.58.52,7.47,7.47,0,0,1,1.86.62,2.64,2.64,0,0,1,1,.87,2.21,2.21,0,0,1,.33,1.23,2.34,2.34,0,0,1-1,2,4.28,4.28,0,0,1-2.63.75,4.65,4.65,0,0,1-2-.4,3.24,3.24,0,0,1-1.34-1.1,2.6,2.6,0,0,1-.48-1.5h2a1.42,1.42,0,0,0,.54,1.1,2.1,2.1,0,0,0,1.32.39,2,2,0,0,0,1.21-.3A.94.94,0,0,0,209.69,109.81Z" style="fill:#fff"/><path d="M144.14,133.25h-1.22V124h1.22Z" style="fill:#fff"/><path d="M152.57,125h-3v8.25h-1.21V125h-3v-1h7.15Z" style="fill:#fff"/><path d="M152.34,135.09l-.67-.46a3.06,3.06,0,0,0,.62-1.71v-1.06h1.15v.92a2.89,2.89,0,0,1-.31,1.28A3,3,0,0,1,152.34,135.09Z" style="fill:#fff"/><path d="M165.44,128.93a5.72,5.72,0,0,1-.46,2.37,3.46,3.46,0,0,1-1.29,1.55,3.57,3.57,0,0,1-5.2-1.53A5.47,5.47,0,0,1,158,129v-.67a5.65,5.65,0,0,1,.46-2.35,3.43,3.43,0,0,1,3.25-2.11,3.59,3.59,0,0,1,2,.54A3.46,3.46,0,0,1,165,126a5.74,5.74,0,0,1,.46,2.37Zm-1.21-.6a4.14,4.14,0,0,0-.66-2.52,2.18,2.18,0,0,0-1.85-.88,2.15,2.15,0,0,0-1.82.88,4.06,4.06,0,0,0-.68,2.44v.68a4.15,4.15,0,0,0,.67,2.5,2.35,2.35,0,0,0,3.67.05,4.13,4.13,0,0,0,.67-2.47Z" style="fill:#fff"/><path d="M172.24,130.83h-3.87l-.87,2.42h-1.26l3.53-9.24h1.07l3.54,9.24h-1.25Zm-3.5-1h3.14l-1.57-4.32Z" style="fill:#fff"/><path d="M176.84,132.25h4.38v1h-5.6V124h1.23Z" style="fill:#fff"/><path d="M189,130.32a3.4,3.4,0,0,1-1.08,2.26,3.55,3.55,0,0,1-2.42.8,3.26,3.26,0,0,1-2.62-1.17,4.73,4.73,0,0,1-1-3.14v-.89a5.26,5.26,0,0,1,.46-2.27,3.44,3.44,0,0,1,1.3-1.5,3.64,3.64,0,0,1,2-.52,3.34,3.34,0,0,1,2.36.82,3.44,3.44,0,0,1,1,2.28h-1.23a2.66,2.66,0,0,0-.69-1.6,2.08,2.08,0,0,0-1.48-.5,2.18,2.18,0,0,0-1.83.86,4,4,0,0,0-.66,2.46v.9a4.08,4.08,0,0,0,.63,2.4,2,2,0,0,0,1.76.89,2.34,2.34,0,0,0,1.56-.46,2.56,2.56,0,0,0,.72-1.6Z" style="fill:#fff"/><path d="M190.43,135.09l-.67-.46a3.06,3.06,0,0,0,.62-1.71v-1.06h1.15v.92a2.89,2.89,0,0,1-.31,1.28A3,3,0,0,1,190.43,135.09Z" style="fill:#fff"/><path d="M199.09,133.38a3,3,0,0,1-2.27-.92,3.41,3.41,0,0,1-.88-2.45v-.22a4.13,4.13,0,0,1,.39-1.82,3,3,0,0,1,1.09-1.26,2.75,2.75,0,0,1,1.52-.45,2.57,2.57,0,0,1,2.08.88,3.82,3.82,0,0,1,.74,2.53v.49h-4.65a2.44,2.44,0,0,0,.59,1.64,1.86,1.86,0,0,0,1.44.63,2,2,0,0,0,1.05-.25,2.65,2.65,0,0,0,.76-.67l.72.56A2.88,2.88,0,0,1,199.09,133.38Zm-.15-6.16a1.57,1.57,0,0,0-1.19.52,2.51,2.51,0,0,0-.6,1.45h3.44v-.09a2.24,2.24,0,0,0-.48-1.39A1.47,1.47,0,0,0,198.95,127.22Z" style="fill:#fff"/><path d="M204.72,124.72v1.66H206v.91h-1.28v4.26a1,1,0,0,0,.17.62.72.72,0,0,0,.58.21,2.84,2.84,0,0,0,.56-.08v.95a3.43,3.43,0,0,1-.9.13,1.46,1.46,0,0,1-1.19-.48,2,2,0,0,1-.4-1.35v-4.26H202.3v-.91h1.25v-1.66Z" style="fill:#fff"/><path d="M210.13,132.42a1.69,1.69,0,0,0,1.1-.38,1.34,1.34,0,0,0,.52-1h1.11a2.13,2.13,0,0,1-.41,1.12,2.67,2.67,0,0,1-1,.85,2.89,2.89,0,0,1-1.32.32,2.83,2.83,0,0,1-2.23-.94,3.73,3.73,0,0,1-.83-2.56v-.2a4.13,4.13,0,0,1,.37-1.78,2.8,2.8,0,0,1,1.06-1.21,3,3,0,0,1,1.63-.43,2.76,2.76,0,0,1,1.92.69,2.47,2.47,0,0,1,.82,1.8h-1.11a1.62,1.62,0,0,0-.5-1.09,1.57,1.57,0,0,0-1.12-.43,1.64,1.64,0,0,0-1.39.64,3,3,0,0,0-.49,1.86v.22a3,3,0,0,0,.49,1.83A1.65,1.65,0,0,0,210.13,132.42Z" style="fill:#fff"/><path d="M214.23,132.63a.74.74,0,0,1,.18-.51.69.69,0,0,1,.54-.2.71.71,0,0,1,.55.2.72.72,0,0,1,.19.51.68.68,0,0,1-.19.49.72.72,0,0,1-.55.2.65.65,0,0,1-.72-.69Zm2.77,0a.73.73,0,0,1,.18-.51.69.69,0,0,1,.54-.2.71.71,0,0,1,.55.2.72.72,0,0,1,.19.51.68.68,0,0,1-.19.49.72.72,0,0,1-.55.2.65.65,0,0,1-.72-.69Zm2.63,0a.74.74,0,0,1,.18-.51.69.69,0,0,1,.54-.2.71.71,0,0,1,.55.2.72.72,0,0,1,.19.51.68.68,0,0,1-.19.49.72.72,0,0,1-.55.2.65.65,0,0,1-.72-.69Z" style="fill:#fff"/><path d="M223.44,33.5l41.57,72-41.57,72H140.31l-41.57-72,41.57-72h83.14m3.46-6H136.84l-45,78,45,78h90.07l45-78-45-78Z" style="fill:#fff"/><rect x="141.69" y="189.5" width="314" height="6" style="fill:#0f393a"/><rect x="143.19" y="197" width="311" height="57" style="fill:#205052"/><path d="M452.69,198.5v54h-308v-54h308m3-3h-314v60h314v-60Z" style="fill:#205052"/><path d="M227.09,229l3.61-11.12h2.71l-5.12,14.22h-2.39l-5.1-14.22h2.71Z" style="fill:#f9cb40"/><path d="M242.25,228.77h-5.51l-1.15,3.31H233l5.37-14.22h2.22L246,232.08h-2.58Zm-4.81-2h4.12l-2.06-5.9Z" style="fill:#f9cb40"/><path d="M260,228.42a1.72,1.72,0,0,0-.66-1.45,7.91,7.91,0,0,0-2.38-1,11.52,11.52,0,0,1-2.73-1.15,3.65,3.65,0,0,1-1.94-3.18,3.47,3.47,0,0,1,1.4-2.83,5.67,5.67,0,0,1,3.64-1.11,6.14,6.14,0,0,1,2.65.55,4.34,4.34,0,0,1,1.83,1.56,4,4,0,0,1,.66,2.24H260a2.2,2.2,0,0,0-.7-1.73,2.9,2.9,0,0,0-2-.62,3,3,0,0,0-1.88.52,1.71,1.71,0,0,0-.67,1.44,1.55,1.55,0,0,0,.72,1.3,8.31,8.31,0,0,0,2.38,1,10.93,10.93,0,0,1,2.67,1.12,4.25,4.25,0,0,1,1.47,1.45,3.77,3.77,0,0,1,.47,1.91,3.38,3.38,0,0,1-1.36,2.83,5.91,5.91,0,0,1-3.7,1.05,7,7,0,0,1-2.84-.57,4.77,4.77,0,0,1-2-1.58,3.93,3.93,0,0,1-.72-2.34h2.47a2.3,2.3,0,0,0,.8,1.88,3.51,3.51,0,0,0,2.29.66,3,3,0,0,0,1.94-.52A1.68,1.68,0,0,0,260,228.42Z" style="fill:#f9cb40"/><path d="M267.39,218.94v2.57h1.87v1.76h-1.87v5.9a1.3,1.3,0,0,0,.24.87,1.11,1.11,0,0,0,.85.27,3.69,3.69,0,0,0,.83-.1V232a5.86,5.86,0,0,1-1.56.22q-2.73,0-2.73-3v-6h-1.74v-1.76H265v-2.57Z" style="fill:#f9cb40"/><path d="M276.6,223.68a5.8,5.8,0,0,0-1-.08,2.18,2.18,0,0,0-2.2,1.25v7.23h-2.37V221.51h2.27l.06,1.18a2.67,2.67,0,0,1,2.38-1.38,2.21,2.21,0,0,1,.84.14Z" style="fill:#f9cb40"/><path d="M284.12,232.08a3.68,3.68,0,0,1-.27-1,4,4,0,0,1-5.37.27,2.91,2.91,0,0,1-1-2.25,3,3,0,0,1,1.25-2.59,6.09,6.09,0,0,1,3.59-.9h1.46v-.69a1.85,1.85,0,0,0-.46-1.31,1.82,1.82,0,0,0-1.4-.49,2.09,2.09,0,0,0-1.33.4,1.26,1.26,0,0,0-.52,1h-2.37a2.63,2.63,0,0,1,.58-1.63,3.84,3.84,0,0,1,1.57-1.19,5.49,5.49,0,0,1,2.21-.43,4.44,4.44,0,0,1,3,.93,3.33,3.33,0,0,1,1.13,2.62v4.77a5.4,5.4,0,0,0,.4,2.28v.17Zm-2.61-1.71a2.7,2.7,0,0,0,1.32-.34,2.29,2.29,0,0,0,.93-.92v-2h-1.28a3.49,3.49,0,0,0-2,.46,1.49,1.49,0,0,0-.66,1.3,1.38,1.38,0,0,0,.45,1.09A1.76,1.76,0,0,0,281.51,230.37Z" style="fill:#f9cb40"/><path d="M291.6,218.94v2.57h1.87v1.76H291.6v5.9a1.3,1.3,0,0,0,.24.87,1.11,1.11,0,0,0,.85.27,3.69,3.69,0,0,0,.83-.1V232a5.85,5.85,0,0,1-1.56.22q-2.73,0-2.73-3v-6h-1.74v-1.76h1.74v-2.57Z" style="fill:#f9cb40"/><path d="M299.93,232.27a4.91,4.91,0,0,1-3.66-1.42,5.16,5.16,0,0,1-1.4-3.78v-.29a6.35,6.35,0,0,1,.61-2.83A4.65,4.65,0,0,1,297.2,222a4.53,4.53,0,0,1,2.46-.69,4.15,4.15,0,0,1,3.33,1.38,5.82,5.82,0,0,1,1.18,3.9v1h-6.9a3.18,3.18,0,0,0,.87,2.07,2.63,2.63,0,0,0,1.93.76,3.21,3.21,0,0,0,2.66-1.32l1.28,1.22a4.26,4.26,0,0,1-1.69,1.47A5.3,5.3,0,0,1,299.93,232.27Zm-.28-9.05a2,2,0,0,0-1.58.68,3.54,3.54,0,0,0-.77,1.9h4.52v-.18a2.88,2.88,0,0,0-.63-1.8A2,2,0,0,0,299.65,223.22Z" style="fill:#f9cb40"/><path d="M305.59,226.72a6.18,6.18,0,0,1,1.16-3.93,3.72,3.72,0,0,1,3.07-1.47,3.48,3.48,0,0,1,2.84,1.26l.11-1.06h2.14v10.24a4.26,4.26,0,0,1-1.29,3.28,4.93,4.93,0,0,1-3.49,1.2,5.63,5.63,0,0,1-2.27-.48,4,4,0,0,1-1.68-1.26l1.12-1.43a3.39,3.39,0,0,0,2.7,1.3,2.62,2.62,0,0,0,1.87-.64,2.45,2.45,0,0,0,.68-1.88v-.71a3.49,3.49,0,0,1-2.73,1.14,3.71,3.71,0,0,1-3-1.47A6.38,6.38,0,0,1,305.59,226.72Zm2.36.21a4.25,4.25,0,0,0,.65,2.5,2.09,2.09,0,0,0,1.8.91,2.28,2.28,0,0,0,2.13-1.23v-4.65a2.25,2.25,0,0,0-2.11-1.2,2.1,2.1,0,0,0-1.82.93A4.76,4.76,0,0,0,308,226.92Z" style="fill:#f9cb40"/><path d="M317.35,218.76a1.28,1.28,0,0,1,.35-.92,1.3,1.3,0,0,1,1-.36,1.32,1.32,0,0,1,1,.36,1.26,1.26,0,0,1,.35.92,1.24,1.24,0,0,1-.35.9,1.33,1.33,0,0,1-1,.36,1.32,1.32,0,0,1-1-.36A1.25,1.25,0,0,1,317.35,218.76Zm2.52,13.32H317.5V221.51h2.37Z" style="fill:#f9cb40"/><path d="M326.8,230.38a2.15,2.15,0,0,0,1.47-.52,1.77,1.77,0,0,0,.63-1.28h2.24a3.47,3.47,0,0,1-.62,1.84,4,4,0,0,1-1.56,1.35,4.66,4.66,0,0,1-2.13.5,4.51,4.51,0,0,1-3.52-1.44,5.7,5.7,0,0,1-1.3-4v-.24a5.6,5.6,0,0,1,1.29-3.86,4.46,4.46,0,0,1,3.52-1.45,4.34,4.34,0,0,1,3.07,1.1,3.94,3.94,0,0,1,1.25,2.89H328.9a2.17,2.17,0,0,0-.62-1.49,2,2,0,0,0-1.48-.59,2.09,2.09,0,0,0-1.78.83,4.27,4.27,0,0,0-.63,2.54V227a4.33,4.33,0,0,0,.62,2.56A2.09,2.09,0,0,0,326.8,230.38Z" style="fill:#f9cb40"/><path d="M340.6,226.8v5.27h-2.47V217.86h5.44a5.5,5.5,0,0,1,3.78,1.24,4.17,4.17,0,0,1,1.4,3.28,4,4,0,0,1-1.37,3.26,5.77,5.77,0,0,1-3.84,1.16Zm0-2h3a2.92,2.92,0,0,0,2-.62,2.27,2.27,0,0,0,.69-1.79,2.46,2.46,0,0,0-.7-1.84,2.71,2.71,0,0,0-1.93-.71h-3Z" style="fill:#f9cb40"/><path d="M353.21,232.08h-2.37v-15h2.37Z" style="fill:#f9cb40"/><path d="M362.11,232.08a3.7,3.7,0,0,1-.27-1,4,4,0,0,1-5.37.27,2.91,2.91,0,0,1-1-2.25,3,3,0,0,1,1.25-2.59,6.09,6.09,0,0,1,3.59-.9h1.46v-.69a1.85,1.85,0,0,0-.46-1.31,1.82,1.82,0,0,0-1.4-.49,2.1,2.1,0,0,0-1.33.4,1.26,1.26,0,0,0-.52,1h-2.37a2.64,2.64,0,0,1,.58-1.63,3.85,3.85,0,0,1,1.57-1.19,5.5,5.5,0,0,1,2.21-.43,4.44,4.44,0,0,1,3,.93,3.33,3.33,0,0,1,1.13,2.62v4.77a5.41,5.41,0,0,0,.4,2.28v.17Zm-2.61-1.71a2.7,2.7,0,0,0,1.32-.34,2.28,2.28,0,0,0,.93-.92v-2h-1.28a3.49,3.49,0,0,0-2,.46,1.49,1.49,0,0,0-.66,1.3,1.38,1.38,0,0,0,.45,1.09A1.76,1.76,0,0,0,359.5,230.37Z" style="fill:#f9cb40"/><path d="M368.82,221.51l.07,1.22a3.8,3.8,0,0,1,3.08-1.42q3.3,0,3.36,3.78v7h-2.37v-6.85a2.18,2.18,0,0,0-.43-1.49,1.83,1.83,0,0,0-1.42-.48,2.29,2.29,0,0,0-2.14,1.3v7.52h-2.37V221.51Z" style="fill:#f9cb40"/><rect x="141.69" y="255.5" width="314" height="6" style="fill:#0f393a"/><circle cx="248.17" cy="142.87" r="18" transform="translate(0.35 286.36) rotate(-60)" style="fill:#205052"/><path d="M252.56,159.27l-20.78-12,12-20.78,20.78,12Z" style="fill:none"/><path d="M244.17,149.8l1.93-.52-2-7.63,10.54,6.08,1-1.73-10.54-6.08,7.63-2.05-.52-1.93-10.93,2.93Z" style="fill:#fff"/></svg>