<svg xmlns="http://www.w3.org/2000/svg" viewBox="0 0 483 498"><title>target</title><circle cx="241.5" cy="249" r="143.93" style="fill:#207c7e"/><path d="M385.43,249a144.88,144.88,0,0,0-1.9-23.35l-1-.6-1-.63-1-.63-1.06-.64-1.06-.64-1-.63-1-.62-1.06-.64-1.05-.63-1-.63-1-.63-1.06-.64-1-.63-1-.63-1.06-.64-1-.63-1-.63-1-.63-1.06-.64-1-.63-1.06-.64-1.06-.64-1-.62-1-.62-1.06-.64-1.06-.64-1-.62-1.05-.63-1-.63-1-.63-1.06-.64-1.06-.64-1-.63-1-.62-1-.63-1-.63-1.07-.64-1-.62-1.07-.64-1-.62-1-.62-1.07-.65-1-.62-1.06-.64-1-.63-1.05-.63-1-.63-1.07-.64-1-.63-1-.63L330,193.5l-1-.62-1.06-.64-1.05-.63-1-.63-1.07-.64-1-.63-1-.62-1.07-.65-1-.62-1.07-.64-1-.62-1.07-.64-1-.62-1.06-.64-1.06-.64-1-.62-1.06-.63-1-.63-1.06-.64-1-.63-1.06-.64-1-.63-1-.63-1.06-.63-1-.63-1.05-.63-1-.63-1-.63-1.06-.64-1-.62-1.06-.64-1.05-.63-1-.62-1.06-.64-1-.63-1-.63-1.06-.64-1.05-.63a93.17,93.17,0,1,0-96.17,159.6l1.05.63,1,.62,1.06.64,1,.63,1,.63,1.07.64,1.05.63,1,.63,1,.62,1.06.64,1,.62,1.07.64,1,.63,1.06.63,1,.62,1.07.64,1.06.63,1,.63,1,.63,1.06.64,1,.62L217,343l1.06.63,1,.63,1,.62,1.07.64,1,.63,1,.62,1.07.64,1.06.63,1,.62,1.06.64,1.06.63,1,.63,1,.62,1.06.64,1,.62,1.09.65,1,.61,1.07.64,1,.62,1.06.64,1,.63,1.05.63,1,.62,1.07.64,1.05.63,1,.62,1.09.65,1,.61,1.07.64,1,.62,1.06.63,1.05.63,1.06.64,1,.62,1.08.65,1,.63,1,.62L257,367l1,.63,1,.63,1.06.63,1.05.63,1,.63,1.06.64,1.05.63,1,.62,1.06.64,1,.63,1.06.64,1,.62,1.06.64,1,.62,1.08.65,1,.62,1.07.64,1,.63,1,.63,1.05.63,1,.63,1,.63,1.06.64,1.06.63,1,.62,1.06.64,1,.63,1,.63,1.06.64.17.11A144,144,0,0,0,385.43,249Z" style="fill:#333;opacity:0.2"/><circle cx="241.5" cy="249" r="87.31" style="fill:#f2f2f2"/><path d="M241.5,155.84A93.16,93.16,0,1,0,334.66,249,93.27,93.27,0,0,0,241.5,155.84Zm0,175.64A82.48,82.48,0,1,1,324,249,82.57,82.57,0,0,1,241.5,331.48Z" style="fill:#d33737"/><path d="M241.5,176.85A72.15,72.15,0,1,0,313.65,249,72.23,72.23,0,0,0,241.5,176.85Zm0,133.61A61.47,61.47,0,1,1,303,249,61.54,61.54,0,0,1,241.5,310.47Z" style="fill:#d33737"/><path d="M241.5,199.71A49.29,49.29,0,1,0,290.79,249,49.35,49.35,0,0,0,241.5,199.71Zm0,87.9A38.61,38.61,0,1,1,280.11,249,38.65,38.65,0,0,1,241.5,287.61Z" style="fill:#d33737"/><path d="M241.5,225.52A23.48,23.48,0,1,0,265,249,23.51,23.51,0,0,0,241.5,225.52Zm0,36.29A12.8,12.8,0,1,1,254.3,249,12.82,12.82,0,0,1,241.5,261.8Z" style="fill:#d33737"/><rect x="234.65" y="218.54" width="101.34" height="8.29" transform="translate(-71.91 164.49) rotate(-28.72)" style="fill:#12393f"/><polygon points="327.62 194.79 300.19 209.81 300.98 189.55 328.41 174.53 327.62 194.79" style="fill:#f7ca0f"/><polygon points="331.61 202.08 304.18 217.1 321.67 227.34 349.1 212.32 331.61 202.08" style="fill:#f7ca0f"/><g style="opacity:0.2"><rect x="282.11" y="223.47" width="8.29" height="101.34" transform="matrix(0.54, -0.84, 0.84, 0.54, -99.58, 364.87)" style="fill:#333"/><polygon points="349.08 289.28 322.86 272.24 304.64 281.14 330.87 298.18 349.08 289.28" style="fill:#333"/><polygon points="326.34 305.15 300.12 288.11 299.38 308.37 325.61 325.41 326.34 305.15" style="fill:#333"/></g></svg>