<svg xmlns="http://www.w3.org/2000/svg" viewBox="0 0 868 412">
  <defs>
    <style>
      .cls-1, .cls-29 {
        fill: #0f2845;
      }

      .cls-2 {
        fill: #f2f2f2;
      }

      .cls-10, .cls-22, .cls-23, .cls-3 {
        fill: #fff;
      }

      .cls-4 {
        fill: #225da5;
      }

      .cls-5 {
        fill: #d9d9d9;
      }

      .cls-6 {
        fill: #1b4a83;
      }

      .cls-7 {
        fill: #babfc3;
      }

      .cls-8 {
        fill: #141617;
      }

      .cls-9 {
        fill: #dee1e2;
      }

      .cls-10, .cls-22, .cls-23, .cls-29 {
        font-size: 17px;
      }

      .cls-10 {
        font-family: Roboto-Bold, Roboto;
        font-weight: 700;
      }

      .cls-11 {
        letter-spacing: -0.04em;
      }

      .cls-12 {
        letter-spacing: 0em;
      }

      .cls-13 {
        letter-spacing: -0.06em;
      }

      .cls-14 {
        letter-spacing: 0.01em;
      }

      .cls-15 {
        letter-spacing: 0em;
      }

      .cls-16 {
        fill: #333;
      }

      .cls-17 {
        fill: #89c348;
      }

      .cls-18 {
        letter-spacing: -0.1em;
      }

      .cls-19 {
        letter-spacing: -0.01em;
      }

      .cls-20 {
        letter-spacing: 0.01em;
      }

      .cls-21 {
        letter-spacing: -0.06em;
      }

      .cls-22, .cls-29 {
        font-family: Roboto-Regular, Roboto;
      }

      .cls-23 {
        font-family: Roboto-Light, Roboto;
      }

      .cls-24 {
        letter-spacing: -0.01em;
      }

      .cls-25 {
        fill: #bfbfbf;
      }

      .cls-26 {
        fill: #5e89bd;
      }

      .cls-27 {
        opacity: 0.1;
      }

      .cls-28 {
        fill: #bc3644;
      }

      .cls-30 {
        letter-spacing: 0.01em;
      }

      .cls-31 {
        fill: #8ec33f;
      }

      .cls-32 {
        letter-spacing: -0.04em;
      }

      .cls-33 {
        letter-spacing: -0.02em;
      }
    </style>
  </defs>
  <title>vha-diagram</title>
  <g id="pd-plan">
    <rect class="cls-1" x="584" y="207.55" width="248" height="100" rx="19" ry="19"/>
    <g>
      <g>
        <path class="cls-2" d="M641.85,285.19h10.09a3.85,3.85,0,0,0,3.85-3.85V271.25Z"/>
        <path class="cls-3" d="M655.79,248.32h-53v33a3.85,3.85,0,0,0,3.85,3.85h35.18l13.94-13.94Z"/>
      </g>
      <path class="cls-4" d="M655.79,236.07a3.85,3.85,0,0,0-3.85-3.85H606.67a3.85,3.85,0,0,0-3.85,3.85v12.24h53Z"/>
      <rect class="cls-5" x="602.82" y="248.32" width="52.97" height="1.75"/>
      <path class="cls-5" d="M655.79,271.25H645.7a3.85,3.85,0,0,0-3.85,3.85v10.09Z"/>
      <circle class="cls-6" cx="643.85" cy="236.09" r="3.87"/>
      <circle class="cls-6" cx="614.76" cy="236.09" r="3.87"/>
      <g>
        <path class="cls-7" d="M614.76,238a2.75,2.75,0,0,1-2.75-2.75V229.2a2.75,2.75,0,1,1,5.5,0v6.05A2.75,2.75,0,0,1,614.76,238Z"/>
        <path class="cls-7" d="M643.85,238a2.75,2.75,0,0,1-2.75-2.75V229.2a2.75,2.75,0,1,1,5.5,0v6.05A2.75,2.75,0,0,1,643.85,238Z"/>
      </g>
      <g>
        <path class="cls-8" d="M616.15,274l3.83-5q.89-1.18,1.6-2.07t1.19-1.64a7.72,7.72,0,0,0,.73-1.39,3.57,3.57,0,0,0,.25-1.3,2,2,0,0,0-.77-1.7,3.45,3.45,0,0,0-2.16-.6,8.48,8.48,0,0,0-1,.05,6.06,6.06,0,0,0-.83.16,8,8,0,0,0-.77.25l-.8.33a13.44,13.44,0,0,1-.59-1.49,6.27,6.27,0,0,1-.3-1.55l1.17-.43a8.14,8.14,0,0,1,1.09-.31,11.42,11.42,0,0,1,1.14-.18,12.25,12.25,0,0,1,1.35-.07,10.36,10.36,0,0,1,2.57.3,5.8,5.8,0,0,1,2,.93,4.32,4.32,0,0,1,1.32,1.59,5,5,0,0,1,.47,2.24,6.22,6.22,0,0,1-.26,1.81,8.84,8.84,0,0,1-.73,1.72,18.67,18.67,0,0,1-1.11,1.76q-.64.9-1.43,2l-1.39,1.86h5.58a7.88,7.88,0,0,1,.16,1.55,8.42,8.42,0,0,1-.16,1.65h-12Z"/>
        <path class="cls-8" d="M632.79,257h8.64a7.35,7.35,0,0,1,.15,1.45,7.59,7.59,0,0,1-.15,1.5h-5.55l-.14,3.45a7.27,7.27,0,0,1,.77-.13,6.58,6.58,0,0,1,.7,0,6.68,6.68,0,0,1,2.15.33,4.51,4.51,0,0,1,1.65,1,4.41,4.41,0,0,1,1.07,1.58,5.69,5.69,0,0,1,.39,2.17,6.26,6.26,0,0,1-.52,2.63,5.2,5.2,0,0,1-1.47,1.91,6.41,6.41,0,0,1-2.32,1.16,11.22,11.22,0,0,1-3.05.39l-.78,0q-.47,0-1-.12c-.36-.06-.74-.13-1.15-.23s-.79-.21-1.16-.34a6.68,6.68,0,0,1,.31-1.47q.24-.72.53-1.42a15.3,15.3,0,0,0,1.59.46,7.22,7.22,0,0,0,1.59.17,5.79,5.79,0,0,0,1.81-.24,3.43,3.43,0,0,0,1.18-.64,2.25,2.25,0,0,0,.65-.92,3.06,3.06,0,0,0,.19-1.07,2.36,2.36,0,0,0-.8-1.91,4,4,0,0,0-2.58-.68,7,7,0,0,0-1.36.13,5.32,5.32,0,0,0-1.34.47l-.36-.29Z"/>
      </g>
    </g>
    <polygon class="cls-9" points="572.05 247.51 556.07 231.46 544.66 220 544.66 231.46 538.34 231.46 538.34 220 526.93 231.46 510.95 247.51 502 256.5 510.95 265.49 526.93 281.54 538.34 293 538.34 281.54 544.66 281.54 544.66 293 556.07 281.54 572.05 265.49 581 256.5 572.05 247.51"/>
    <text class="cls-10" transform="translate(700.26 241.83)"><tspan class="cls-11">V<tspan class="cls-12" x="10.49" y="0">A 2014</tspan></tspan><tspan x="-12.41" y="21">STR</tspan><tspan class="cls-13" x="19.41" y="21">A</tspan><tspan x="29.85" y="21">TEGIC </tspan><tspan x="10.7" y="42">P</tspan><tspan class="cls-14" x="21.67" y="42">L</tspan><tspan class="cls-15" x="31.03" y="42">AN</tspan></text>
  </g>
  <g id="pd-results">
    <rect class="cls-1" x="584" y="101" width="248" height="100" rx="19" ry="19"/>
    <g>
      <rect class="cls-7" x="603.35" y="124.2" width="56.12" height="45.9" rx="2.3" ry="2.3"/>
      <rect class="cls-3" x="606.79" y="133.29" width="49.23" height="33.68"/>
      <circle class="cls-3" cx="654.29" cy="128.75" r="1.73"/>
      <circle class="cls-3" cx="649.12" cy="128.75" r="1.73"/>
      <circle class="cls-3" cx="643.95" cy="128.75" r="1.73"/>
      <g>
        <polygon class="cls-16" points="609.15 158.59 608.2 156.94 623.27 148.27 638 152.51 652.37 144.24 653.32 145.89 638.25 154.56 623.52 150.33 609.15 158.59"/>
        <circle class="cls-4" cx="608.67" cy="157.77" r="2.02"/>
        <circle class="cls-4" cx="623.4" cy="149.3" r="3.18"/>
        <circle class="cls-4" cx="638.12" cy="153.54" r="2.02"/>
        <circle class="cls-4" cx="652.85" cy="145.07" r="3.18"/>
      </g>
      <path class="cls-17" d="M652.85,148.24a3.16,3.16,0,0,1-2.15-.84l-10.56,6.07s0,0,0,.06a2,2,0,0,1-4,.42L626,151.05a3.17,3.17,0,0,1-4.8.58l-10.56,6.07s0,0,0,.06a2,2,0,0,1-3.9.73V167H656v-21.9A3.18,3.18,0,0,1,652.85,148.24Z"/>
    </g>
    <polygon class="cls-9" points="579 151.5 542.69 115 542.69 126.46 509 126.46 509 176.54 542.69 176.54 542.69 188 579 151.5"/>
    <text class="cls-10" transform="translate(697.3 155)">RESU<tspan class="cls-18" x="42.05" y="0">L</tspan><tspan class="cls-19" x="49.56" y="0">T</tspan><tspan x="59.94" y="0">S</tspan></text>
  </g>
  <g id="pd-roadmap">
    <rect class="cls-1" x="252" y="101" width="248" height="206" rx="12" ry="12"/>
    <text class="cls-10" transform="translate(287.64 137.54)">V<tspan class="cls-20" x="11.11" y="0">H</tspan><tspan x="23.28" y="0">A STR</tspan><tspan class="cls-21" x="70.76" y="0">A</tspan><tspan class="cls-12" x="81.21" y="0">TEGIC P</tspan><tspan class="cls-14" x="144.14" y="0">L</tspan><tspan class="cls-15" x="153.51" y="0">AN</tspan></text>
    <text class="cls-22" transform="translate(323.67 158.54)">FY 2013-2018</text>
    <text class="cls-23" transform="translate(289.04 284.54)">Roadmap <tspan class="cls-24" x="76.59" y="0">t</tspan><tspan x="81.89" y="0">o E</tspan><tspan class="cls-24" x="105.21" y="0">x</tspan><tspan class="cls-15" x="113.31" y="0">cellence</tspan></text>
    <g>
      <g>
        <polygon class="cls-3" points="339.96 202.43 364.83 195.52 387.39 201.79 412.26 194.87 412.26 246.12 387.39 253.03 364.83 246.76 339.96 253.67 339.96 202.43"/>
        <g>
          <g>
            <polygon class="cls-25" points="358.38 227.36 345.06 203.41 342.27 204.18 342.27 232.67 358.38 227.36"/>
            <polygon class="cls-17" points="354.03 214.02 381.62 202.58 364.83 197.91 347.71 202.67 354.03 214.02"/>
            <polygon class="cls-25" points="355.18 216.09 360.97 226.51 409.95 210.38 409.95 197.91 387.39 204.18 385.29 203.6 355.18 216.09"/>
            <polygon class="cls-17" points="378.01 223.35 394.77 248.58 409.95 244.36 409.95 212.83 378.01 223.35"/>
            <polygon class="cls-26" points="375.4 224.2 342.27 235.11 342.27 250.63 364.83 244.36 387.39 250.63 392.1 249.33 375.4 224.2"/>
          </g>
          <polygon class="cls-27" points="364.83 244.36 387.39 250.63 387.39 204.18 364.83 197.91 364.83 244.36"/>
        </g>
      </g>
      <path class="cls-28" d="M376.11,173a17.89,17.89,0,0,0-17.89,17.89c0,13,17.7,31.42,17.89,32.1,0,0,17.89-20.32,17.89-32.1A17.89,17.89,0,0,0,376.11,173Zm0,28.41a10.52,10.52,0,1,1,10.52-10.52A10.52,10.52,0,0,1,376.11,201.41Z"/>
    </g>
  </g>
  <g id="pd-principals">
    <text class="cls-29" transform="translate(413 382.54)">V<tspan class="cls-30" x="10.82" y="0">H</tspan><tspan x="23.08" y="0">A Principles</tspan></text>
    <polygon class="cls-31" points="376.5 314 340 350.31 351.46 350.31 351.46 384 401.54 384 401.54 350.31 413 350.31 376.5 314"/>
  </g>
  <g id="pd-values">
    <text class="cls-29" transform="translate(224 39.54)"><tspan class="cls-32">V</tspan><tspan x="10.19" y="0">A Core </tspan><tspan class="cls-33" x="65.22" y="0">V</tspan><tspan x="75.65" y="0">alues</tspan></text>
    <polygon class="cls-9" points="376.5 95 413 58.69 401.54 58.69 401.54 25 351.46 25 351.46 58.69 340 58.69 376.5 95"/>
  </g>
  <g id="pd-mission">
    <text class="cls-29" transform="translate(39 211.54)">Mission &amp; Vision</text>
    <polygon class="cls-31" points="246 204.5 209.69 168 209.69 179.46 176 179.46 176 229.54 209.69 229.54 209.69 241 246 204.5"/>
  </g>
</svg>
